STARTFONT 2.1
COMMENT
COMMENT Converted from OpenType font "texgyreadventor-regular.otf" by "otf2bdf 3.0".
COMMENT
FONT -FreeType-TeXGyreAdventor-Medium-R-Normal--35-350-72-72-P-175-ISO10646-1
SIZE 35 72 72
FONTBOUNDINGBOX 75 51 -21 -10
STARTPROPERTIES 19
FOUNDRY "FreeType"
FAMILY_NAME "TeXGyreAdventor"
WEIGHT_NAME "Medium"
SLANT "R"
SETWIDTH_NAME "Normal"
ADD_STYLE_NAME ""
PIXEL_SIZE 35
POINT_SIZE 350
RESOLUTION_X 72
RESOLUTION_Y 72
SPACING "P"
AVERAGE_WIDTH 175
CHARSET_REGISTRY "ISO10646"
CHARSET_ENCODING "1"
FONT_ASCENT 40
FONT_DESCENT 10
COPYRIGHT "Copyright (URW)++, copyright 1999 by (URW)++ Design & Development; Cyrillic glyphs added by Valek Filippov, copyright 2001-2002; Vietnamese characters were added by Han The Thanh; copyright 2006, 2008 for TeX Gyre extensions by B. Jackowski and J.M. Nowacki (on behalf of TeX users groups). This work is released under the GUST Font License --  see http://tug.org/fonts/licenses/GUST-FONT-LICENSE.txt for details."
_OTF_FONTFILE "texgyreadventor-regular.otf"
_OTF_PSNAME "TeXGyreAdventor-Regular"
ENDPROPERTIES
CHARS 1209
STARTCHAR 0020
ENCODING 32
SWIDTH 285 0
DWIDTH 10 0
BBX 0 0 0 0
BITMAP
ENDCHAR
STARTCHAR 0021
ENCODING 33
SWIDTH 285 0
DWIDTH 10 0
BBX 2 26 4 0
BITMAP
C0
C0
C0
C0
C0
C0
C0
C0
C0
C0
C0
C0
C0
C0
C0
C0
C0
C0
C0
00
00
00
C0
C0
C0
C0
ENDCHAR
STARTCHAR 0022
ENCODING 34
SWIDTH 314 0
DWIDTH 11 0
BBX 5 8 3 18
BITMAP
88
88
88
88
88
88
88
88
ENDCHAR
STARTCHAR 0023
ENCODING 35
SWIDTH 542 0
DWIDTH 19 0
BBX 19 26 0 0
BITMAP
018180
018180
038380
038380
030300
030300
030300
030700
7FFFE0
7FFFE0
060600
060600
060600
0E0E00
0E0E00
0C0C00
FFFFE0
FFFFE0
0C0C00
1C1C00
181800
181800
181800
181800
383800
303800
ENDCHAR
STARTCHAR 0024
ENCODING 36
SWIDTH 542 0
DWIDTH 19 0
BBX 14 30 3 -2
BITMAP
0300
0300
0300
0FC0
3FF0
7878
7038
6018
601C
6000
6000
7000
3C00
3F00
0FE0
01F0
0078
0038
001C
001C
C01C
C01C
E018
E038
7870
3FE0
0FC0
0300
0300
0300
ENDCHAR
STARTCHAR 0025
ENCODING 37
SWIDTH 771 0
DWIDTH 27 0
BBX 26 26 0 0
BITMAP
0F803800
1FE07000
3DF07000
70706000
6038E000
E038C000
E039C000
60398000
70738000
3CF30000
1FE70000
0F860000
000E0000
000C0000
001C3E00
001CFF00
0019E780
003981C0
003380C0
007300C0
006300C0
00E380C0
00C181C0
01C1E780
0180FF00
03803E00
ENDCHAR
STARTCHAR 0026
ENCODING 38
SWIDTH 771 0
DWIDTH 27 0
BBX 23 26 2 0
BITMAP
01F000
07FC00
0F3C00
0E0E00
1C0600
1C0600
1C0600
1C0E00
0E1E00
077C1C
03F038
07E038
1FE070
3C7070
7838E0
701CE0
E00FC0
E00780
E003C0
E003E0
E007F0
700E78
781E3C
3E7C1E
1FF80E
07E004
ENDCHAR
STARTCHAR 0027
ENCODING 39
SWIDTH 200 0
DWIDTH 7 0
BBX 1 8 3 18
BITMAP
80
80
80
80
80
80
80
80
ENDCHAR
STARTCHAR 0028
ENCODING 40
SWIDTH 371 0
DWIDTH 13 0
BBX 10 30 2 -4
BITMAP
0040
01C0
0380
0700
0E00
1C00
3800
3800
7000
7000
6000
E000
E000
E000
E000
E000
E000
E000
E000
6000
7000
7000
3800
3800
1C00
0E00
0700
0380
01C0
0040
ENDCHAR
STARTCHAR 0029
ENCODING 41
SWIDTH 371 0
DWIDTH 13 0
BBX 10 30 1 -4
BITMAP
8000
E000
7000
3800
1C00
0E00
0700
0700
0380
0380
0180
01C0
01C0
01C0
01C0
01C0
01C0
01C0
01C0
0180
0380
0380
0700
0700
0E00
1C00
3800
7000
E000
8000
ENDCHAR
STARTCHAR 002A
ENCODING 42
SWIDTH 428 0
DWIDTH 15 0
BBX 11 10 2 16
BITMAP
1100
3B80
1B00
0E00
FFE0
FFE0
1E00
1B00
3380
1100
ENDCHAR
STARTCHAR 002B
ENCODING 43
SWIDTH 600 0
DWIDTH 21 0
BBX 17 17 2 0
BITMAP
01C000
01C000
01C000
01C000
01C000
01C000
01C000
FFFF80
FFFF80
FFFF80
01C000
01C000
01C000
01C000
01C000
01C000
01C000
ENDCHAR
STARTCHAR 002C
ENCODING 44
SWIDTH 285 0
DWIDTH 10 0
BBX 6 6 3 -2
BITMAP
1C
38
38
70
70
E0
ENDCHAR
STARTCHAR 002D
ENCODING 45
SWIDTH 342 0
DWIDTH 12 0
BBX 10 2 1 8
BITMAP
FFC0
FFC0
ENDCHAR
STARTCHAR 002E
ENCODING 46
SWIDTH 285 0
DWIDTH 10 0
BBX 2 4 4 0
BITMAP
C0
C0
C0
C0
ENDCHAR
STARTCHAR 002F
ENCODING 47
SWIDTH 428 0
DWIDTH 15 0
BBX 12 30 2 -4
BITMAP
0070
0060
0060
00E0
00C0
00C0
01C0
0180
0180
0380
0300
0300
0700
0600
0600
0E00
0C00
0C00
1C00
1800
1800
3800
3000
3000
7000
6000
6000
E000
C000
C000
ENDCHAR
STARTCHAR 0030
ENCODING 48
SWIDTH 542 0
DWIDTH 19 0
BBX 17 26 1 0
BITMAP
07F000
1FFC00
3F3E00
380700
700380
600380
E00380
E00180
E00180
E00180
E00180
E00180
E00180
E00180
E00180
E00180
E00180
E00180
E00180
E00380
600380
700380
380700
3F3E00
1FFC00
07F000
ENDCHAR
STARTCHAR 0031
ENCODING 49
SWIDTH 542 0
DWIDTH 19 0
BBX 7 26 5 0
BITMAP
FE
FE
06
06
06
06
06
06
06
06
06
06
06
06
06
06
06
06
06
06
06
06
06
06
06
06
ENDCHAR
STARTCHAR 0032
ENCODING 50
SWIDTH 542 0
DWIDTH 19 0
BBX 17 26 1 0
BITMAP
03F000
0FFC00
3F7E00
380F00
700700
700300
600380
E00380
E00380
000380
000700
000700
000E00
001C00
003800
007000
00E000
01C000
038000
070000
1E0000
3C0000
780000
F00000
FFFF80
FFFF80
ENDCHAR
STARTCHAR 0033
ENCODING 51
SWIDTH 542 0
DWIDTH 19 0
BBX 17 26 1 0
BITMAP
03E000
0FF800
1F7C00
1C1C00
380E00
380E00
300E00
000E00
000E00
001C00
01F800
01F000
01FC00
000E00
000700
000300
000300
E00380
E00380
E00300
600300
700700
380E00
3F7C00
0FF800
03E000
ENDCHAR
STARTCHAR 0034
ENCODING 52
SWIDTH 542 0
DWIDTH 19 0
BBX 18 26 0 0
BITMAP
000700
000F00
001F00
001F00
003F00
007700
007700
00E700
01C700
01C700
038700
070700
070700
0E0700
1C0700
1C0700
380700
700700
700700
FFFFC0
FFFFC0
000700
000700
000700
000700
000700
ENDCHAR
STARTCHAR 0035
ENCODING 53
SWIDTH 542 0
DWIDTH 19 0
BBX 17 26 1 0
BITMAP
0FFE00
1FFE00
1C0000
1C0000
180000
180000
380000
380000
3BF000
3FFC00
3E3E00
380F00
700700
000380
000380
000180
000180
C00180
E00180
E00380
600380
700700
380F00
1F3E00
0FFC00
03F000
ENDCHAR
STARTCHAR 0036
ENCODING 54
SWIDTH 542 0
DWIDTH 19 0
BBX 18 26 1 0
BITMAP
007000
00E000
00E000
01C000
038000
030000
070000
0E0000
1DF000
1FFC00
3F3E00
380F00
700780
600380
E00180
E00180
C001C0
E001C0
E00180
E00180
600380
700700
380F00
3E3E00
0FFC00
03F000
ENDCHAR
STARTCHAR 0037
ENCODING 55
SWIDTH 542 0
DWIDTH 19 0
BBX 15 26 2 0
BITMAP
FFFE
FFFE
000E
000E
000C
001C
0018
0038
0030
0070
0060
00E0
00E0
01C0
01C0
0180
0380
0300
0700
0600
0E00
0E00
1C00
1C00
1800
3800
ENDCHAR
STARTCHAR 0038
ENCODING 56
SWIDTH 542 0
DWIDTH 19 0
BBX 17 26 1 0
BITMAP
03F000
0FF800
1F7C00
1C0E00
380E00
380700
300700
380700
380E00
1C0E00
1F7C00
07F800
0FFC00
3C1E00
380700
700300
600380
600380
E00380
600380
700380
700700
380F00
1F3E00
0FFC00
03F000
ENDCHAR
STARTCHAR 0039
ENCODING 57
SWIDTH 542 0
DWIDTH 19 0
BBX 18 26 1 0
BITMAP
03F000
0FFC00
3F3E00
380F00
700700
600380
E00380
E00180
C001C0
E001C0
E00180
E00180
E00380
700700
380F00
3E7E00
1FFE00
07FC00
003800
003800
007000
00E000
01C000
01C000
038000
070000
ENDCHAR
STARTCHAR 003A
ENCODING 58
SWIDTH 285 0
DWIDTH 10 0
BBX 2 18 4 0
BITMAP
C0
C0
C0
C0
00
00
00
00
00
00
00
00
00
00
C0
C0
C0
C0
ENDCHAR
STARTCHAR 003B
ENCODING 59
SWIDTH 285 0
DWIDTH 10 0
BBX 5 20 2 -2
BITMAP
38
38
38
38
00
00
00
00
00
00
00
00
00
38
38
70
70
60
E0
C0
ENDCHAR
STARTCHAR 003C
ENCODING 60
SWIDTH 600 0
DWIDTH 21 0
BBX 13 24 4 -3
BITMAP
0008
0018
0038
0078
01E0
03C0
0780
0F00
1E00
7800
F000
E000
E000
F000
7800
1E00
0F00
0780
03C0
01E0
0078
0038
0018
0008
ENDCHAR
STARTCHAR 003D
ENCODING 61
SWIDTH 600 0
DWIDTH 21 0
BBX 17 9 2 4
BITMAP
FFFF80
FFFF80
FFFF80
000000
000000
000000
FFFF80
FFFF80
FFFF80
ENDCHAR
STARTCHAR 003E
ENCODING 62
SWIDTH 600 0
DWIDTH 21 0
BBX 13 24 4 -3
BITMAP
8000
8000
E000
F000
7800
3C00
1E00
0780
03C0
01E0
00F0
0078
0078
00F0
01E0
03C0
0780
1E00
3C00
7800
F000
E000
8000
8000
ENDCHAR
STARTCHAR 003F
ENCODING 63
SWIDTH 600 0
DWIDTH 21 0
BBX 16 26 2 0
BITMAP
07E0
1FF8
3F7E
380E
7007
6007
E003
E003
0003
0007
0007
000E
001C
0038
0070
00E0
00C0
01C0
01C0
0000
0000
0000
01C0
01C0
01C0
01C0
ENDCHAR
STARTCHAR 0040
ENCODING 64
SWIDTH 857 0
DWIDTH 30 0
BBX 25 26 3 0
BITMAP
007F8000
01FFE000
07807800
0E001C00
18000E00
301E0600
607FB300
60E1E100
C1C0E180
C180E180
C380C180
8700C180
8701C180
86018180
86018300
C6038300
C6070600
C7070C00
679F1C00
63FBF000
3041E000
18000C00
0E001C00
07807800
03FFE000
007F0000
ENDCHAR
STARTCHAR 0041
ENCODING 65
SWIDTH 742 0
DWIDTH 26 0
BBX 24 26 1 0
BITMAP
003C00
003C00
007C00
007E00
006600
00E700
00C700
01C380
01C380
038180
0381C0
0301C0
0700E0
0600E0
0E0070
0FFFF0
1FFFF0
1C0038
180038
38001C
38001C
70000E
70000E
E00006
E00007
C00007
ENDCHAR
STARTCHAR 0042
ENCODING 66
SWIDTH 571 0
DWIDTH 20 0
BBX 16 26 3 0
BITMAP
FFC0
FFF0
C1F8
C01C
C00C
C00E
C00E
C00E
C00C
C01C
C038
FFF0
FFF8
C07C
C00E
C007
C007
C007
C007
C007
C007
C007
C00E
C0FC
FFF8
FFE0
ENDCHAR
STARTCHAR 0043
ENCODING 67
SWIDTH 800 0
DWIDTH 28 0
BBX 25 26 2 0
BITMAP
007F8000
01FFF000
07F3F800
0F003C00
1C000E00
38000700
70000380
70000000
E0000000
E0000000
C0000000
C0000000
C0000000
C0000000
C0000000
E0000000
E0000000
E0000000
70000000
78000380
38000700
1E000E00
0F003C00
07F3F800
01FFE000
007F8000
ENDCHAR
STARTCHAR 0044
ENCODING 68
SWIDTH 742 0
DWIDTH 26 0
BBX 22 26 3 0
BITMAP
FFF000
FFFE00
C0FF00
C007C0
C001E0
C000E0
C00070
C00030
C00038
C00038
C00018
C00018
C0001C
C0001C
C00018
C00018
C00038
C00038
C00038
C00070
C000E0
C001E0
C007C0
C07F00
FFFE00
FFE000
ENDCHAR
STARTCHAR 0045
ENCODING 69
SWIDTH 542 0
DWIDTH 19 0
BBX 14 26 3 0
BITMAP
FFFC
FFFC
C000
C000
C000
C000
C000
C000
C000
C000
C000
C000
FFF8
FFF8
C000
C000
C000
C000
C000
C000
C000
C000
C000
C000
FFFC
FFFC
ENDCHAR
STARTCHAR 0046
ENCODING 70
SWIDTH 485 0
DWIDTH 17 0
BBX 13 26 3 0
BITMAP
FFF8
FFF8
C000
C000
C000
C000
C000
C000
C000
C000
C000
C000
FFF0
FFF0
C000
C000
C000
C000
C000
C000
C000
C000
C000
C000
C000
C000
ENDCHAR
STARTCHAR 0047
ENCODING 71
SWIDTH 885 0
DWIDTH 31 0
BBX 27 26 2 0
BITMAP
003F8000
01FFF000
07F3FC00
0F003E00
1E000F00
38000780
70000380
70000000
E0000000
E0000000
C0000000
C0000000
C0000000
C0000000
C03FFFE0
E03FFFE0
E00000E0
E00000C0
700001C0
78000380
38000780
1E000F00
0F001E00
07F1FC00
01FFF000
003F8000
ENDCHAR
STARTCHAR 0048
ENCODING 72
SWIDTH 685 0
DWIDTH 24 0
BBX 18 26 3 0
BITMAP
C000C0
C000C0
C000C0
C000C0
C000C0
C000C0
C000C0
C000C0
C000C0
C000C0
C000C0
C000C0
FFFFC0
FFFFC0
C000C0
C000C0
C000C0
C000C0
C000C0
C000C0
C000C0
C000C0
C000C0
C000C0
C000C0
C000C0
ENDCHAR
STARTCHAR 0049
ENCODING 73
SWIDTH 228 0
DWIDTH 8 0
BBX 2 26 3 0
BITMAP
C0
C0
C0
C0
C0
C0
C0
C0
C0
C0
C0
C0
C0
C0
C0
C0
C0
C0
C0
C0
C0
C0
C0
C0
C0
C0
ENDCHAR
STARTCHAR 004A
ENCODING 74
SWIDTH 485 0
DWIDTH 17 0
BBX 14 26 0 0
BITMAP
000C
000C
000C
000C
000C
000C
000C
000C
000C
000C
000C
000C
000C
000C
000C
000C
000C
000C
000C
E00C
601C
701C
7038
3EF8
1FF0
0FC0
ENDCHAR
STARTCHAR 004B
ENCODING 75
SWIDTH 600 0
DWIDTH 21 0
BBX 17 26 3 0
BITMAP
C00380
C00700
C00E00
C01E00
C01C00
C03800
C07000
C0E000
C1E000
C1C000
C38000
C70000
CE0000
DF0000
DF8000
FB8000
F1C000
E0E000
E0F000
C07000
C03800
C01C00
C00E00
C00F00
C00700
C00380
ENDCHAR
STARTCHAR 004C
ENCODING 76
SWIDTH 457 0
DWIDTH 16 0
BBX 13 26 3 0
BITMAP
C000
C000
C000
C000
C000
C000
C000
C000
C000
C000
C000
C000
C000
C000
C000
C000
C000
C000
C000
C000
C000
C000
C000
C000
FFF8
FFF8
ENDCHAR
STARTCHAR 004D
ENCODING 77
SWIDTH 914 0
DWIDTH 32 0
BBX 27 26 3 0
BITMAP
F00003E0
F00003E0
F80007E0
D80007E0
DC0006E0
DC000EE0
CC000CE0
CE001CE0
C6001CE0
C70038E0
C70038E0
C38030E0
C38070E0
C18060E0
C1C0E0E0
C0C0E0E0
C0E1C0E0
C0E1C0E0
C07180E0
C07380E0
C03300E0
C03F00E0
C03F00E0
C01E00E0
C01E00E0
C00C00E0
ENDCHAR
STARTCHAR 004E
ENCODING 78
SWIDTH 742 0
DWIDTH 26 0
BBX 20 26 3 0
BITMAP
F00030
F00030
F80030
FC0030
DC0030
CE0030
CF0030
C70030
C38030
C1C030
C1C030
C0E030
C07030
C07030
C03830
C01C30
C01C30
C00E30
C00730
C00730
C003B0
C001F0
C001F0
C000F0
C00070
C00070
ENDCHAR
STARTCHAR 004F
ENCODING 79
SWIDTH 857 0
DWIDTH 30 0
BBX 27 26 2 0
BITMAP
003F8000
01FFF000
07F3F800
0F003E00
1E000F00
38000700
78000380
700001C0
E00001C0
E00000C0
E00000E0
C00000E0
C00000E0
C00000E0
C00000E0
E00000E0
E00000C0
E00001C0
700001C0
78000380
38000700
1E000E00
0F003C00
07F1F800
01FFF000
007F8000
ENDCHAR
STARTCHAR 0050
ENCODING 80
SWIDTH 600 0
DWIDTH 21 0
BBX 17 26 3 0
BITMAP
FFF000
FFFC00
C07E00
C00F00
C00700
C00380
C00380
C00380
C00380
C00380
C00300
C00700
C01E00
FFFE00
FFF800
C00000
C00000
C00000
C00000
C00000
C00000
C00000
C00000
C00000
C00000
C00000
ENDCHAR
STARTCHAR 0051
ENCODING 81
SWIDTH 857 0
DWIDTH 30 0
BBX 27 26 2 0
BITMAP
003FC000
01FFF000
07F1FC00
0F001E00
1E000F00
38000380
700001C0
700001C0
E00000E0
E00000E0
C00000E0
C0000060
C0000060
C0000060
C0000060
CFF000E0
FFFE00E0
FC7F80E0
7003E1C0
7800F3C0
3C007F80
1E003F00
0F803E00
07F9FFC0
01FFF3E0
003F80E0
ENDCHAR
STARTCHAR 0052
ENCODING 82
SWIDTH 600 0
DWIDTH 21 0
BBX 17 26 3 0
BITMAP
FFE000
FFFC00
C0FE00
C00F00
C00780
C00380
C00380
C00180
C00180
C00180
C00380
C00380
C00700
C01F00
C7FE00
C3F800
C1C000
C1C000
C0E000
C07000
C07800
C03800
C01C00
C00E00
C00F00
C00700
ENDCHAR
STARTCHAR 0053
ENCODING 83
SWIDTH 485 0
DWIDTH 17 0
BBX 16 26 1 0
BITMAP
07E0
1FF8
3EFC
381C
700E
600E
600E
6000
7000
7000
3800
3F00
0FE0
03F8
003C
000E
0006
0007
E007
E007
E006
F00E
781E
3E7C
1FF8
07E0
ENDCHAR
STARTCHAR 0054
ENCODING 84
SWIDTH 428 0
DWIDTH 15 0
BBX 15 26 0 0
BITMAP
FFFE
FFFE
0380
0380
0380
0380
0380
0380
0380
0380
0380
0380
0380
0380
0380
0380
0380
0380
0380
0380
0380
0380
0380
0380
0380
0380
ENDCHAR
STARTCHAR 0055
ENCODING 85
SWIDTH 657 0
DWIDTH 23 0
BBX 17 26 3 0
BITMAP
C00180
C00180
C00180
C00180
C00180
C00180
C00180
C00180
C00180
C00180
C00180
C00180
C00180
C00180
C00180
C00180
C00180
C00180
E00380
E00380
E00380
700700
780F00
3F7E00
1FFC00
07F000
ENDCHAR
STARTCHAR 0056
ENCODING 86
SWIDTH 714 0
DWIDTH 25 0
BBX 23 26 1 0
BITMAP
C0000E
E0000E
E0001C
70001C
700018
300038
380038
380070
1C0070
1C0060
0C00E0
0E00C0
0E01C0
0701C0
070180
030380
038300
038700
01C700
01C600
00CE00
00EC00
007C00
007C00
007800
003800
ENDCHAR
STARTCHAR 0057
ENCODING 87
SWIDTH 971 0
DWIDTH 34 0
BBX 33 26 0 0
BITMAP
E001C00380
6001C00380
7001E00380
7001E00300
3003E00700
3803F00700
3803700600
3803300E00
1807300E00
1C06380E00
1C06380C00
0C0E181C00
0E0E181C00
0E0C1C1800
0E0C1C1800
061C0C3800
071C0E3800
07180E3000
03380E7000
03B8067000
03B8076000
03B0076000
01F003E000
01F003E000
01F003C000
00E003C000
ENDCHAR
STARTCHAR 0058
ENCODING 88
SWIDTH 600 0
DWIDTH 21 0
BBX 20 26 1 0
BITMAP
E000E0
7000E0
7001C0
380380
1C0380
1C0700
0E0E00
070E00
071C00
03B800
01F800
01F000
00E000
00F000
01F000
03B800
039C00
071C00
0E0E00
0E0700
1C0700
380380
3801C0
7001C0
E000E0
E00070
ENDCHAR
STARTCHAR 0059
ENCODING 89
SWIDTH 600 0
DWIDTH 21 0
BBX 20 26 0 0
BITMAP
E00030
700070
700060
3800E0
3801C0
1C01C0
1C0380
0E0380
0E0700
070700
070E00
038E00
019C00
01DC00
00F800
00F800
007000
007000
007000
007000
007000
007000
007000
007000
007000
007000
ENDCHAR
STARTCHAR 005A
ENCODING 90
SWIDTH 485 0
DWIDTH 17 0
BBX 16 26 1 0
BITMAP
FFFE
FFFE
000E
000E
001C
0038
0038
0070
0070
00E0
01C0
01C0
0380
0380
0700
0E00
0E00
1C00
1C00
3800
7000
7000
E000
E000
FFFF
FFFF
ENDCHAR
STARTCHAR 005B
ENCODING 91
SWIDTH 342 0
DWIDTH 12 0
BBX 7 30 4 -4
BITMAP
02
0E
1E
38
70
60
E0
E0
C0
C0
C0
C0
C0
C0
C0
C0
C0
C0
C0
C0
C0
E0
E0
E0
60
70
38
1E
0E
06
ENDCHAR
STARTCHAR 005C
ENCODING 92
SWIDTH 600 0
DWIDTH 21 0
BBX 13 26 3 0
BITMAP
E000
6000
6000
7000
3000
3800
1800
1C00
1C00
0C00
0E00
0600
0700
0300
0300
0380
0180
01C0
00C0
00E0
00E0
0060
0070
0030
0038
0018
ENDCHAR
STARTCHAR 005D
ENCODING 93
SWIDTH 342 0
DWIDTH 12 0
BBX 7 30 1 -4
BITMAP
C0
F0
F8
3C
1C
0E
0E
06
06
06
06
06
06
06
06
06
06
06
06
06
06
06
06
0E
0E
1C
3C
F8
F0
C0
ENDCHAR
STARTCHAR 005E
ENCODING 94
SWIDTH 600 0
DWIDTH 21 0
BBX 19 20 1 6
BITMAP
00E000
01F000
01F000
01B800
03B800
039800
071C00
070C00
060E00
0E0E00
0C0700
1C0700
1C0300
380380
380380
3001C0
7001C0
6000E0
E000E0
E00060
ENDCHAR
STARTCHAR 005F
ENCODING 95
SWIDTH 514 0
DWIDTH 18 0
BBX 18 2 0 -4
BITMAP
FFFFC0
FFFFC0
ENDCHAR
STARTCHAR 0060
ENCODING 96
SWIDTH 371 0
DWIDTH 13 0
BBX 7 6 2 21
BITMAP
80
E0
F8
3C
1E
04
ENDCHAR
STARTCHAR 0061
ENCODING 97
SWIDTH 685 0
DWIDTH 24 0
BBX 21 19 1 0
BITMAP
01FC38
07FF38
0F8FB8
1E01F8
3800F8
700078
700078
600038
600038
E00038
600038
600038
700038
700078
3800F8
1C01F8
0F03B8
07FF38
01FC38
ENDCHAR
STARTCHAR 0062
ENCODING 98
SWIDTH 685 0
DWIDTH 24 0
BBX 20 26 2 0
BITMAP
E00000
E00000
E00000
E00000
E00000
E00000
E00000
E1FC00
E7FF00
EF9F80
FC03C0
F800E0
F00060
E00070
E00030
E00030
E00030
E00030
E00030
E00070
F00070
F800E0
FC03C0
FF8F80
E7FF00
E1FC00
ENDCHAR
STARTCHAR 0063
ENCODING 99
SWIDTH 657 0
DWIDTH 23 0
BBX 20 19 1 0
BITMAP
00FC00
07FF00
0F8FC0
1E01E0
3800E0
700070
700000
600000
600000
E00000
600000
600000
700000
700070
3800E0
1E01E0
0FCFC0
07FF00
01FC00
ENDCHAR
STARTCHAR 0064
ENCODING 100
SWIDTH 685 0
DWIDTH 24 0
BBX 21 26 1 0
BITMAP
000038
000038
000038
000038
000038
000038
000038
01FC38
07FF38
0F87B8
1E01F8
3800F8
700078
700038
600038
600038
E00038
600038
600038
700038
700078
380078
1C01F8
0F03B8
07FF38
01FC38
ENDCHAR
STARTCHAR 0065
ENCODING 101
SWIDTH 657 0
DWIDTH 23 0
BBX 20 19 1 0
BITMAP
01FC00
07FF00
0FDF80
1C01C0
3800E0
700060
700070
600030
7FFFF0
FFFFF0
600000
600000
700000
700070
3800E0
1C01C0
0F8F80
07FF00
01FC00
ENDCHAR
STARTCHAR 0066
ENCODING 102
SWIDTH 314 0
DWIDTH 11 0
BBX 10 26 1 0
BITMAP
01C0
07C0
0F80
1C00
1800
1800
1800
FFC0
FFC0
1800
1800
1800
1800
1800
1800
1800
1800
1800
1800
1800
1800
1800
1800
1800
1800
1800
ENDCHAR
STARTCHAR 0067
ENCODING 103
SWIDTH 685 0
DWIDTH 24 0
BBX 20 26 1 -7
BITMAP
01FC30
07FF30
0F9FB0
1C03F0
3800F0
700070
700070
600030
600030
E00030
600030
600070
700070
700070
3800F0
1E03B0
0F8FB0
07FE30
01FC30
700070
380070
3800E0
1E01E0
0FCFC0
07FF00
01FC00
ENDCHAR
STARTCHAR 0068
ENCODING 104
SWIDTH 600 0
DWIDTH 21 0
BBX 17 26 2 0
BITMAP
E00000
E00000
E00000
E00000
E00000
E00000
E00000
E3F000
EFFC00
FF7E00
F80F00
F00700
E00380
E00380
E00380
E00180
E00180
E00180
E00180
E00180
E00180
E00180
E00180
E00180
E00180
E00180
ENDCHAR
STARTCHAR 0069
ENCODING 105
SWIDTH 200 0
DWIDTH 7 0
BBX 3 25 2 0
BITMAP
E0
E0
E0
E0
00
00
E0
E0
E0
E0
E0
E0
E0
E0
E0
E0
E0
E0
E0
E0
E0
E0
E0
E0
E0
ENDCHAR
STARTCHAR 006A
ENCODING 106
SWIDTH 200 0
DWIDTH 7 0
BBX 7 32 -2 -7
BITMAP
0E
0E
0E
0E
00
00
0E
0E
0E
0E
0E
0E
0E
0E
0E
0E
0E
0E
0E
0E
0E
0E
0E
0E
0E
0E
0E
0C
1C
FC
F8
E0
ENDCHAR
STARTCHAR 006B
ENCODING 107
SWIDTH 514 0
DWIDTH 18 0
BBX 15 26 2 0
BITMAP
E000
E000
E000
E000
E000
E000
E000
E01E
E01C
E038
E070
E0E0
E1E0
E1C0
E380
E700
EE00
EF00
FF80
F9C0
F0E0
E0F0
E070
E038
E01C
E00E
ENDCHAR
STARTCHAR 006C
ENCODING 108
SWIDTH 200 0
DWIDTH 7 0
BBX 3 26 2 0
BITMAP
E0
E0
E0
E0
E0
E0
E0
E0
E0
E0
E0
E0
E0
E0
E0
E0
E0
E0
E0
E0
E0
E0
E0
E0
E0
E0
ENDCHAR
STARTCHAR 006D
ENCODING 109
SWIDTH 942 0
DWIDTH 33 0
BBX 29 20 2 -1
BITMAP
E3E03F00
EFF8FFC0
F83DC0E0
F00D8070
F00F0070
E0070030
E0070038
E0070038
E0070038
E0070038
E0070038
E0070038
E0070038
E0070038
E0070038
E0070038
E0070038
E0070038
E0070038
00000008
ENDCHAR
STARTCHAR 006E
ENCODING 110
SWIDTH 600 0
DWIDTH 21 0
BBX 17 19 2 -1
BITMAP
E3F000
EFFC00
FC1E00
F00700
F00300
E00380
E00380
E00380
E00180
E00180
E00180
E00180
E00180
E00180
E00180
E00180
E00180
E00180
E00180
ENDCHAR
STARTCHAR 006F
ENCODING 111
SWIDTH 657 0
DWIDTH 23 0
BBX 20 19 1 0
BITMAP
01FC00
07FF00
0F8F80
1C03C0
3800E0
700070
700070
600030
600030
E00030
600030
600030
700070
700070
3800E0
1C01C0
0F8F80
07FF00
01FC00
ENDCHAR
STARTCHAR 0070
ENCODING 112
SWIDTH 685 0
DWIDTH 24 0
BBX 20 25 2 -6
BITMAP
E1FC00
E7FF00
EE0780
FC01C0
F000E0
F00060
E00070
E00070
E00030
E00030
E00030
E00070
E00070
F00060
F000E0
FC03C0
EF0F80
E7FF00
E1F800
E00000
E00000
E00000
E00000
E00000
E00000
ENDCHAR
STARTCHAR 0071
ENCODING 113
SWIDTH 685 0
DWIDTH 24 0
BBX 21 25 1 -6
BITMAP
01FC38
07FF38
0F87B8
1C01F8
3800F8
700078
700038
600038
600038
E00038
600038
600038
700038
700078
3800F8
1E01F8
0F8FB8
07FF38
01FC38
000038
000038
000038
000038
000038
000038
ENDCHAR
STARTCHAR 0072
ENCODING 114
SWIDTH 314 0
DWIDTH 11 0
BBX 8 19 2 0
BITMAP
E3
EF
FC
F0
F0
E0
E0
E0
E0
E0
E0
E0
E0
E0
E0
E0
E0
E0
E0
ENDCHAR
STARTCHAR 0073
ENCODING 115
SWIDTH 400 0
DWIDTH 14 0
BBX 12 19 1 0
BITMAP
1F00
3FC0
7BE0
70E0
E0E0
E000
E000
7000
7E00
1F80
07C0
00E0
0060
C070
C060
E0E0
7BE0
7FC0
1F00
ENDCHAR
STARTCHAR 0074
ENCODING 116
SWIDTH 342 0
DWIDTH 12 0
BBX 11 26 0 0
BITMAP
0600
0600
0600
0600
0600
0600
0600
FFE0
FFE0
0600
0600
0600
0600
0600
0600
0600
0600
0600
0600
0600
0600
0600
0600
0600
0600
0600
ENDCHAR
STARTCHAR 0075
ENCODING 117
SWIDTH 600 0
DWIDTH 21 0
BBX 17 19 2 0
BITMAP
E00380
E00380
E00380
E00380
E00380
E00380
E00380
E00380
E00380
E00380
E00380
E00380
E00380
600380
700780
700780
3C1F80
1FFB80
07E380
ENDCHAR
STARTCHAR 0076
ENCODING 118
SWIDTH 542 0
DWIDTH 19 0
BBX 19 19 0 0
BITMAP
E000E0
7000C0
7001C0
3001C0
380180
180380
1C0300
1C0700
0C0700
0E0E00
060E00
070C00
031C00
039800
03B800
01B800
01F000
00F000
00E000
ENDCHAR
STARTCHAR 0077
ENCODING 119
SWIDTH 828 0
DWIDTH 29 0
BBX 29 19 0 0
BITMAP
E0000038
60000030
70070070
30070060
38070060
380F80E0
180D80C0
1C0D81C0
1C1DC1C0
0C19C180
0E18C380
0638E300
0730E700
07306700
03707600
03E07E00
01E03C00
01E03C00
01E03C00
ENDCHAR
STARTCHAR 0078
ENCODING 120
SWIDTH 485 0
DWIDTH 17 0
BBX 15 19 1 0
BITMAP
E00E
E01C
701C
3838
3870
1C70
0EE0
07C0
0780
0380
07C0
0FC0
0EE0
1C70
3870
3838
701C
E01C
E00E
ENDCHAR
STARTCHAR 0079
ENCODING 121
SWIDTH 542 0
DWIDTH 19 0
BBX 17 26 1 -7
BITMAP
C00380
E00380
E00300
700700
700700
700E00
380E00
380C00
1C1C00
1C1800
1C3800
0E3800
0E7000
067000
076000
07E000
03C000
03C000
01C000
038000
038000
030000
070000
060000
0E0000
0E0000
ENDCHAR
STARTCHAR 007A
ENCODING 122
SWIDTH 428 0
DWIDTH 15 0
BBX 15 19 0 0
BITMAP
7FFC
7FFC
001C
0038
0070
0060
00E0
01C0
0380
0380
0700
0E00
1C00
1C00
3800
7000
F000
FFFE
FFFE
ENDCHAR
STARTCHAR 007B
ENCODING 123
SWIDTH 342 0
DWIDTH 12 0
BBX 8 30 1 -4
BITMAP
07
0F
1E
1C
1C
1C
1C
1C
1C
1C
1C
1C
1C
38
F0
F0
78
1C
1C
1C
1C
1C
1C
1C
1C
1C
1C
1E
0F
07
ENDCHAR
STARTCHAR 007C
ENCODING 124
SWIDTH 685 0
DWIDTH 24 0
BBX 3 30 10 -4
BITMAP
E0
E0
E0
E0
E0
E0
E0
E0
E0
E0
E0
E0
E0
E0
E0
E0
E0
E0
E0
E0
E0
E0
E0
E0
E0
E0
E0
E0
E0
E0
ENDCHAR
STARTCHAR 007D
ENCODING 125
SWIDTH 342 0
DWIDTH 12 0
BBX 8 30 1 -4
BITMAP
F0
F8
7C
1C
1C
1C
1C
1C
1C
1C
1C
1C
1C
0E
07
07
0E
1C
1C
1C
1C
1C
1C
1C
1C
1C
1C
3C
F8
F0
ENDCHAR
STARTCHAR 007E
ENCODING 126
SWIDTH 600 0
DWIDTH 21 0
BBX 17 7 2 7
BITMAP
000100
1F0180
3FC380
7FFF80
E1FF00
C03C00
400000
ENDCHAR
STARTCHAR 00A0
ENCODING 160
SWIDTH 285 0
DWIDTH 10 0
BBX 0 0 0 0
BITMAP
ENDCHAR
STARTCHAR 00A1
ENCODING 161
SWIDTH 285 0
DWIDTH 10 0
BBX 2 26 4 -7
BITMAP
C0
C0
C0
C0
00
00
00
C0
C0
C0
C0
C0
C0
C0
C0
C0
C0
C0
C0
C0
C0
C0
C0
C0
C0
C0
ENDCHAR
STARTCHAR 00A2
ENCODING 162
SWIDTH 542 0
DWIDTH 19 0
BBX 16 23 2 2
BITMAP
0180
0180
0180
0180
0FF0
1FFC
783E
700E
E007
E000
C000
C000
C000
C000
E000
F00E
781E
3F7C
1FF8
07E0
0180
0180
0180
ENDCHAR
STARTCHAR 00A3
ENCODING 163
SWIDTH 542 0
DWIDTH 19 0
BBX 20 26 1 0
BITMAP
01F800
07FE00
0F9F00
1C0380
3801C0
3801C0
3000C0
300000
700000
300000
380000
380000
FFFE00
FFFE00
070000
038000
038000
01C070
01C070
01C070
01C070
01C0E0
0181E0
038FC0
7FFF80
7FFE00
ENDCHAR
STARTCHAR 00A4
ENCODING 164
SWIDTH 542 0
DWIDTH 19 0
BBX 17 18 1 1
BITMAP
03F100
6FFF80
FFFF80
380F00
700780
E00380
E00180
E00180
C00180
C00180
E00180
E00380
700380
780700
7C1F00
FFFF80
67F900
008000
ENDCHAR
STARTCHAR 00A5
ENCODING 165
SWIDTH 542 0
DWIDTH 19 0
BBX 20 26 0 0
BITMAP
E00030
600070
700060
3800E0
3800C0
1C01C0
1C0180
0E0380
060700
070700
7F0FE0
7F8FE0
019C00
01D800
00F800
3FFFE0
3FFFE0
007000
007000
007000
007000
007000
007000
007000
007000
007000
ENDCHAR
STARTCHAR 00A6
ENCODING 166
SWIDTH 685 0
DWIDTH 24 0
BBX 3 30 10 -4
BITMAP
E0
E0
E0
E0
E0
E0
E0
E0
E0
E0
E0
E0
00
00
00
00
00
00
E0
E0
E0
E0
E0
E0
E0
E0
E0
E0
E0
E0
ENDCHAR
STARTCHAR 00A7
ENCODING 167
SWIDTH 628 0
DWIDTH 22 0
BBX 16 31 3 -5
BITMAP
07C0
0FF0
1E78
381C
301C
3000
3000
3800
1C00
1F00
77C0
61F0
E07C
C01E
E006
E006
7807
3E06
1F8E
07FC
01F8
0078
001C
000C
600E
600E
700C
381C
3E78
1FF0
07E0
ENDCHAR
STARTCHAR 00A8
ENCODING 168
SWIDTH 371 0
DWIDTH 13 0
BBX 7 4 3 21
BITMAP
C6
C6
C6
C6
ENDCHAR
STARTCHAR 00A9
ENCODING 169
SWIDTH 742 0
DWIDTH 26 0
BBX 24 25 1 0
BITMAP
007F00
03C3C0
060070
080018
10000C
207F04
61FFC6
4380E2
C70063
860001
860001
8C0001
8C0001
8C0001
8E0001
860001
C70073
4380E2
61FFC2
207F04
10000C
1C0018
060060
03C3C0
007E00
ENDCHAR
STARTCHAR 00AA
ENCODING 170
SWIDTH 371 0
DWIDTH 13 0
BBX 11 15 1 11
BITMAP
1E60
3FE0
61E0
C0E0
C060
C060
C060
60E0
71E0
3F60
0C00
0000
0000
FFE0
FFE0
ENDCHAR
STARTCHAR 00AB
ENCODING 171
SWIDTH 428 0
DWIDTH 15 0
BBX 11 14 2 3
BITMAP
1040
3860
38E0
71C0
71C0
E380
C300
C300
E380
71C0
71C0
38E0
3860
1040
ENDCHAR
STARTCHAR 00AC
ENCODING 172
SWIDTH 600 0
DWIDTH 21 0
BBX 17 7 2 6
BITMAP
FFFF80
FFFF80
FFFF80
000380
000380
000380
000380
ENDCHAR
STARTCHAR 00AD
ENCODING 173
SWIDTH 342 0
DWIDTH 12 0
BBX 10 2 1 8
BITMAP
FFC0
FFC0
ENDCHAR
STARTCHAR 00AE
ENCODING 174
SWIDTH 742 0
DWIDTH 26 0
BBX 24 25 1 0
BITMAP
007F00
03C3C0
060070
080018
10000C
21FC04
61FF06
418382
C18183
818181
818181
818181
818381
81BF01
819801
819C01
C18E03
418702
618302
218184
10000C
1C0018
060060
03C3C0
007E00
ENDCHAR
STARTCHAR 00AF
ENCODING 175
SWIDTH 485 0
DWIDTH 17 0
BBX 11 2 3 22
BITMAP
FFE0
FFE0
ENDCHAR
STARTCHAR 00B0
ENCODING 176
SWIDTH 400 0
DWIDTH 14 0
BBX 10 11 2 13
BITMAP
1E00
7F80
6180
C0C0
C0C0
C0C0
C0C0
C0C0
6180
7F80
1E00
ENDCHAR
STARTCHAR 00B1
ENCODING 177
SWIDTH 600 0
DWIDTH 21 0
BBX 17 19 2 0
BITMAP
01C000
01C000
01C000
01C000
01C000
01C000
01C000
FFFF80
FFFF80
FFFF80
01C000
01C000
01C000
01C000
000000
000000
FFFF80
FFFF80
FFFF80
ENDCHAR
STARTCHAR 00B2
ENCODING 178
SWIDTH 342 0
DWIDTH 12 0
BBX 11 16 0 10
BITMAP
0F00
3FC0
70E0
6060
6060
6060
0060
00C0
01C0
0380
0E00
1C00
3800
7000
FFE0
FFE0
ENDCHAR
STARTCHAR 00B3
ENCODING 179
SWIDTH 342 0
DWIDTH 12 0
BBX 11 16 0 10
BITMAP
0F00
1F80
31C0
30C0
30C0
01C0
0F80
0F80
00C0
0060
E060
6060
6060
70C0
3FC0
1F00
ENDCHAR
STARTCHAR 00B4
ENCODING 180
SWIDTH 371 0
DWIDTH 13 0
BBX 8 6 4 21
BITMAP
02
0F
1E
78
F0
40
ENDCHAR
STARTCHAR 00B5
ENCODING 181
SWIDTH 600 0
DWIDTH 21 0
BBX 17 25 2 -6
BITMAP
E00380
E00380
E00380
E00380
E00380
E00380
E00380
E00380
E00380
E00380
E00380
E00380
E00380
E00380
F00380
F80780
FC0F80
EFFB80
E3E380
E00000
E00000
E00000
E00000
E00000
E00000
ENDCHAR
STARTCHAR 00B6
ENCODING 182
SWIDTH 571 0
DWIDTH 20 0
BBX 16 31 1 -5
BITMAP
07FF
1FFF
3FC3
7FC3
7FC3
FFC3
FFC3
FFC3
7FC3
7FC3
7FC3
3FC3
1FC3
03C3
01C3
01C3
01C3
01C3
01C3
01C3
01C3
01C3
01C3
01C3
01C3
01C3
01C3
01C3
01C3
01C3
01C3
ENDCHAR
STARTCHAR 00B7
ENCODING 183
SWIDTH 285 0
DWIDTH 10 0
BBX 4 4 3 7
BITMAP
60
F0
F0
F0
ENDCHAR
STARTCHAR 00B8
ENCODING 184
SWIDTH 314 0
DWIDTH 11 0
BBX 7 9 3 -9
BITMAP
20
60
7C
4E
06
06
CE
FC
78
ENDCHAR
STARTCHAR 00B9
ENCODING 185
SWIDTH 342 0
DWIDTH 12 0
BBX 5 16 3 10
BITMAP
F8
F8
18
18
18
18
18
18
18
18
18
18
18
18
18
18
ENDCHAR
STARTCHAR 00BA
ENCODING 186
SWIDTH 371 0
DWIDTH 13 0
BBX 11 15 1 11
BITMAP
1F00
3F80
60C0
C0C0
C060
C060
C060
60C0
71C0
3F80
0C00
0000
0000
FFE0
FFE0
ENDCHAR
STARTCHAR 00BB
ENCODING 187
SWIDTH 428 0
DWIDTH 15 0
BBX 11 14 2 3
BITMAP
4100
C300
E380
61C0
71C0
38E0
38E0
38E0
38E0
71C0
6180
E380
C300
4100
ENDCHAR
STARTCHAR 00BC
ENCODING 188
SWIDTH 828 0
DWIDTH 29 0
BBX 24 26 4 0
BITMAP
F00180
F00180
300300
300300
300600
300600
300C00
300C00
301800
301800
30300E
30301E
30201E
306036
306076
30C0E6
00C0C6
0181C6
018386
030306
030606
060FFF
060FFF
040006
0C0006
0C0006
ENDCHAR
STARTCHAR 00BD
ENCODING 189
SWIDTH 828 0
DWIDTH 29 0
BBX 25 26 3 0
BITMAP
F800C000
F8018000
18018000
18010000
18030000
18030000
18060000
18060000
180C0000
180C0000
18183E00
1818FF00
1830C380
18318180
18618180
18618180
00400180
00C00380
00C00700
01800E00
01801C00
03003800
03007000
0601C000
0601FF80
0C01FF80
ENDCHAR
STARTCHAR 00BE
ENCODING 190
SWIDTH 828 0
DWIDTH 29 0
BBX 28 26 0 0
BITMAP
0F000C00
1F800C00
31C01800
30C01800
30C03000
01C03000
0F806000
0F806000
00C0C000
0060C000
E06080E0
606181E0
606181E0
70C30360
3FC30760
1F060660
00060C60
000C1C60
000C3860
00183060
00186060
0030FFF0
0030FFF0
00200060
00600060
00400060
ENDCHAR
STARTCHAR 00BF
ENCODING 191
SWIDTH 600 0
DWIDTH 21 0
BBX 16 26 2 -7
BITMAP
01C0
01C0
01C0
01C0
0000
0000
0000
0180
0180
0380
0380
0700
0E00
1C00
3800
7000
6000
E000
E003
E003
E003
7007
700E
3C1E
1FFC
0FF0
ENDCHAR
STARTCHAR 00C0
ENCODING 192
SWIDTH 742 0
DWIDTH 26 0
BBX 24 33 1 0
BITMAP
008000
01C000
01F000
007C00
001C00
000400
000000
003C00
003C00
007C00
007E00
006600
00E700
00C700
01C380
01C380
038180
0381C0
0301C0
0700E0
0600E0
0E0070
0FFFF0
1FFFF0
1C0038
180038
38001C
38001C
70000E
70000E
E00006
E00007
C00007
ENDCHAR
STARTCHAR 00C1
ENCODING 193
SWIDTH 742 0
DWIDTH 26 0
BBX 24 33 1 0
BITMAP
000100
000380
000F00
003E00
003800
002000
000000
003C00
003C00
007C00
007E00
006600
00E700
00C700
01C380
01C380
038180
0381C0
0301C0
0700E0
0600E0
0E0070
0FFFF0
1FFFF0
1C0038
180038
38001C
38001C
70000E
70000E
E00006
E00007
C00007
ENDCHAR
STARTCHAR 00C2
ENCODING 194
SWIDTH 742 0
DWIDTH 26 0
BBX 24 32 1 0
BITMAP
003C00
007E00
00E700
03C3C0
000000
000000
003C00
003C00
007C00
007E00
006600
00E700
00C700
01C380
01C380
038180
0381C0
0301C0
0700E0
0600E0
0E0070
0FFFF0
1FFFF0
1C0038
180038
38001C
38001C
70000E
70000E
E00006
E00007
C00007
ENDCHAR
STARTCHAR 00C3
ENCODING 195
SWIDTH 742 0
DWIDTH 26 0
BBX 24 32 1 0
BITMAP
00F100
01FD80
019F80
010700
000000
000000
003C00
003C00
007C00
007E00
006600
00E700
00C700
01C380
01C380
038180
0381C0
0301C0
0700E0
0600E0
0E0070
0FFFF0
1FFFF0
1C0038
180038
38001C
38001C
70000E
70000E
E00006
E00007
C00007
ENDCHAR
STARTCHAR 00C4
ENCODING 196
SWIDTH 742 0
DWIDTH 26 0
BBX 24 32 1 0
BITMAP
00E700
00E700
00E700
00E700
000000
000000
003C00
003C00
007C00
007E00
006600
00E700
00C700
01C380
01C380
038180
0381C0
0301C0
0700E0
0600E0
0E0070
0FFFF0
1FFFF0
1C0038
180038
38001C
38001C
70000E
70000E
E00006
E00007
C00007
ENDCHAR
STARTCHAR 00C5
ENCODING 197
SWIDTH 742 0
DWIDTH 26 0
BBX 24 34 1 0
BITMAP
001800
007E00
004600
00C200
00C200
006600
003C00
000000
003C00
003C00
007C00
007E00
006600
00E700
00C700
01C380
01C380
038180
0381C0
0301C0
0700E0
0600E0
0E0070
0FFFF0
1FFFF0
1C0038
180038
38001C
38001C
70000E
70000E
E00006
E00007
C00007
ENDCHAR
STARTCHAR 00C6
ENCODING 198
SWIDTH 1000 0
DWIDTH 35 0
BBX 32 26 1 0
BITMAP
00007FFF
0000FFFF
0000F800
0001F800
0003B800
0007B800
00073800
000E3800
001E3800
001C3800
00383800
00783800
00703FFE
00E03FFE
01E03800
01FFF800
03FFF800
07003800
07003800
0E003800
1C003800
3C003800
38003800
70003800
E0003FFF
E0003FFF
ENDCHAR
STARTCHAR 00C7
ENCODING 199
SWIDTH 800 0
DWIDTH 28 0
BBX 25 34 2 -8
BITMAP
007F8000
01FFF000
07F3F800
0F003C00
1C000E00
38000700
70000380
70000000
E0000000
E0000000
C0000000
C0000000
C0000000
C0000000
C0000000
E0000000
E0000000
E0000000
70000000
78000380
38000700
1E000E00
0F003C00
07F3F800
01FFF000
007F8000
00080000
001F0000
001F8000
00018000
0001C000
00318000
001F8000
000F0000
ENDCHAR
STARTCHAR 00C8
ENCODING 200
SWIDTH 542 0
DWIDTH 19 0
BBX 14 33 3 0
BITMAP
2000
3800
3E00
0F00
0380
0180
0000
FFFC
FFFC
C000
C000
C000
C000
C000
C000
C000
C000
C000
C000
FFF8
FFF8
C000
C000
C000
C000
C000
C000
C000
C000
C000
C000
FFFC
FFFC
ENDCHAR
STARTCHAR 00C9
ENCODING 201
SWIDTH 542 0
DWIDTH 19 0
BBX 14 33 3 0
BITMAP
0020
00F0
01E0
07C0
0F00
0400
0000
FFFC
FFFC
C000
C000
C000
C000
C000
C000
C000
C000
C000
C000
FFF8
FFF8
C000
C000
C000
C000
C000
C000
C000
C000
C000
C000
FFFC
FFFC
ENDCHAR
STARTCHAR 00CA
ENCODING 202
SWIDTH 542 0
DWIDTH 19 0
BBX 14 32 3 0
BITMAP
0780
0FC0
3CE0
7070
0000
0000
FFFC
FFFC
C000
C000
C000
C000
C000
C000
C000
C000
C000
C000
FFF8
FFF8
C000
C000
C000
C000
C000
C000
C000
C000
C000
C000
FFFC
FFFC
ENDCHAR
STARTCHAR 00CB
ENCODING 203
SWIDTH 542 0
DWIDTH 19 0
BBX 14 32 3 0
BITMAP
18E0
18E0
18E0
18E0
0000
0000
FFFC
FFFC
C000
C000
C000
C000
C000
C000
C000
C000
C000
C000
FFF8
FFF8
C000
C000
C000
C000
C000
C000
C000
C000
C000
C000
FFFC
FFFC
ENDCHAR
STARTCHAR 00CC
ENCODING 204
SWIDTH 228 0
DWIDTH 8 0
BBX 7 33 -1 0
BITMAP
C0
E0
F8
3E
0E
06
00
0C
0C
0C
0C
0C
0C
0C
0C
0C
0C
0C
0C
0C
0C
0C
0C
0C
0C
0C
0C
0C
0C
0C
0C
0C
0C
ENDCHAR
STARTCHAR 00CD
ENCODING 205
SWIDTH 228 0
DWIDTH 8 0
BBX 7 33 2 0
BITMAP
06
0E
3E
F8
E0
C0
00
60
60
60
60
60
60
60
60
60
60
60
60
60
60
60
60
60
60
60
60
60
60
60
60
60
60
ENDCHAR
STARTCHAR 00CE
ENCODING 206
SWIDTH 228 0
DWIDTH 8 0
BBX 12 32 -2 0
BITMAP
0F00
1F80
39C0
F0F0
0000
0000
0600
0600
0600
0600
0600
0600
0600
0600
0600
0600
0600
0600
0600
0600
0600
0600
0600
0600
0600
0600
0600
0600
0600
0600
0600
0600
ENDCHAR
STARTCHAR 00CF
ENCODING 207
SWIDTH 228 0
DWIDTH 8 0
BBX 8 32 0 0
BITMAP
E7
E7
E7
E7
00
00
18
18
18
18
18
18
18
18
18
18
18
18
18
18
18
18
18
18
18
18
18
18
18
18
18
18
ENDCHAR
STARTCHAR 00D0
ENCODING 208
SWIDTH 800 0
DWIDTH 28 0
BBX 25 26 1 0
BITMAP
1FFE0000
1FFFC000
1C1FF000
1C007800
1C003C00
1C000E00
1C000F00
1C000700
1C000300
1C000380
1C000380
1C000380
FFF80380
FFF80380
1C000380
1C000380
1C000380
1C000380
1C000700
1C000700
1C000E00
1C001C00
1C007800
1C07F000
1FFFC000
1FFE0000
ENDCHAR
STARTCHAR 00D1
ENCODING 209
SWIDTH 742 0
DWIDTH 26 0
BBX 20 32 3 0
BITMAP
03C400
07F600
067E00
021C00
000000
000000
F00030
F00030
F80030
FC0030
DC0030
CE0030
CF0030
C70030
C38030
C1C030
C1C030
C0E030
C07030
C07030
C03830
C01C30
C01C30
C00E30
C00730
C00730
C003B0
C001F0
C001F0
C000F0
C00070
C00070
ENDCHAR
STARTCHAR 00D2
ENCODING 210
SWIDTH 857 0
DWIDTH 30 0
BBX 27 33 2 0
BITMAP
00400000
00F00000
00780000
003E0000
000F0000
00020000
00000000
003F8000
01FFF000
07F3F800
0F003E00
1E000F00
38000700
78000380
700001C0
E00001C0
E00000C0
E00000E0
C00000E0
C00000E0
C00000E0
C00000E0
E00000E0
E00000C0
E00001C0
700001C0
78000380
38000700
1E000E00
0F003C00
07F1F800
01FFF000
007F8000
ENDCHAR
STARTCHAR 00D3
ENCODING 211
SWIDTH 857 0
DWIDTH 30 0
BBX 27 33 2 0
BITMAP
0000C000
0001C000
0007C000
001F0000
001C0000
00180000
00000000
003F8000
01FFF000
07F3F800
0F003E00
1E000F00
38000700
78000380
700001C0
E00001C0
E00000C0
E00000E0
C00000E0
C00000E0
C00000E0
C00000E0
E00000E0
E00000C0
E00001C0
700001C0
78000380
38000700
1E000E00
0F003C00
07F1F800
01FFF000
007F8000
ENDCHAR
STARTCHAR 00D4
ENCODING 212
SWIDTH 857 0
DWIDTH 30 0
BBX 27 32 2 0
BITMAP
000E0000
001F0000
003B8000
0071C000
00E0E000
00000000
003F8000
01FFF000
07F3F800
0F003E00
1E000F00
38000700
78000380
700001C0
E00001C0
E00000C0
E00000E0
C00000E0
C00000E0
C00000E0
C00000E0
E00000E0
E00000C0
E00001C0
700001C0
78000380
38000700
1E000E00
0F003C00
07F1F800
01FFF000
007F8000
ENDCHAR
STARTCHAR 00D5
ENCODING 213
SWIDTH 857 0
DWIDTH 30 0
BBX 27 31 2 0
BITMAP
007CC000
00FFC000
00478000
00000000
00000000
003F8000
01FFF000
07F3F800
0F003E00
1E000F00
38000700
78000380
700001C0
E00001C0
E00000C0
E00000E0
C00000E0
C00000E0
C00000E0
C00000E0
E00000E0
E00000C0
E00001C0
700001C0
78000380
38000700
1E000E00
0F003C00
07F1F800
01FFF000
007F8000
ENDCHAR
STARTCHAR 00D6
ENCODING 214
SWIDTH 857 0
DWIDTH 30 0
BBX 27 32 2 0
BITMAP
00718000
00718000
00718000
00718000
00000000
00000000
003F8000
01FFF000
07F3F800
0F003E00
1E000F00
38000700
78000380
700001C0
E00001C0
E00000C0
E00000E0
C00000E0
C00000E0
C00000E0
C00000E0
E00000E0
E00000C0
E00001C0
700001C0
78000380
38000700
1E000E00
0F003C00
07F1F800
01FFF000
007F8000
ENDCHAR
STARTCHAR 00D7
ENCODING 215
SWIDTH 600 0
DWIDTH 21 0
BBX 13 14 4 2
BITMAP
4010
E038
F078
78F0
3DE0
1FC0
0F80
0F80
1FC0
3DE0
78F0
F078
E038
4010
ENDCHAR
STARTCHAR 00D8
ENCODING 216
SWIDTH 857 0
DWIDTH 30 0
BBX 27 30 2 -2
BITMAP
00000100
00000380
007F8700
01FFF700
07F3FE00
0F003C00
1C003F00
38003F00
70007380
7000E1C0
E001C1C0
E00380C0
E00380E0
C00700E0
C00E00E0
C01C00E0
C01C00E0
C03800E0
E07000C0
E0E001C0
71C001C0
71C00380
3B800700
1F000F00
0F003E00
0FF1F800
1DFFF000
387F8000
70000000
20000000
ENDCHAR
STARTCHAR 00D9
ENCODING 217
SWIDTH 657 0
DWIDTH 23 0
BBX 17 33 3 0
BITMAP
080000
1E0000
0F8000
03C000
01E000
004000
000000
C00180
C00180
C00180
C00180
C00180
C00180
C00180
C00180
C00180
C00180
C00180
C00180
C00180
C00180
C00180
C00180
C00180
C00180
E00380
E00380
E00380
700700
780F00
3F7E00
1FFC00
07F000
ENDCHAR
STARTCHAR 00DA
ENCODING 218
SWIDTH 657 0
DWIDTH 23 0
BBX 17 33 3 0
BITMAP
000800
003800
00F800
01E000
03C000
010000
000000
C00180
C00180
C00180
C00180
C00180
C00180
C00180
C00180
C00180
C00180
C00180
C00180
C00180
C00180
C00180
C00180
C00180
C00180
E00380
E00380
E00380
700700
780F00
3F7E00
1FFC00
07F000
ENDCHAR
STARTCHAR 00DB
ENCODING 219
SWIDTH 657 0
DWIDTH 23 0
BBX 17 32 3 0
BITMAP
01C000
07F000
0E3800
1C1C00
000000
000000
C00180
C00180
C00180
C00180
C00180
C00180
C00180
C00180
C00180
C00180
C00180
C00180
C00180
C00180
C00180
C00180
C00180
C00180
E00380
E00380
E00380
700700
780F00
3F7E00
1FFC00
07F000
ENDCHAR
STARTCHAR 00DC
ENCODING 220
SWIDTH 657 0
DWIDTH 23 0
BBX 17 32 3 0
BITMAP
063000
063000
063000
063000
000000
000000
C00180
C00180
C00180
C00180
C00180
C00180
C00180
C00180
C00180
C00180
C00180
C00180
C00180
C00180
C00180
C00180
C00180
C00180
E00380
E00380
E00380
700700
780F00
3F7E00
1FFC00
07F000
ENDCHAR
STARTCHAR 00DD
ENCODING 221
SWIDTH 600 0
DWIDTH 21 0
BBX 20 33 0 0
BITMAP
000200
000E00
003E00
007800
00E000
004000
000000
E00030
700070
700060
3800E0
3801C0
1C01C0
1C0380
0E0380
0E0700
070700
070E00
038E00
019C00
01DC00
00F800
00F800
007000
007000
007000
007000
007000
007000
007000
007000
007000
007000
ENDCHAR
STARTCHAR 00DE
ENCODING 222
SWIDTH 600 0
DWIDTH 21 0
BBX 17 26 3 0
BITMAP
C00000
C00000
C00000
C00000
C00000
FFF800
FFFC00
C01E00
C00700
C00300
C00380
C00380
C00380
C00380
C00380
C00700
C00F00
C07E00
FFFC00
FFF000
C00000
C00000
C00000
C00000
C00000
C00000
ENDCHAR
STARTCHAR 00DF
ENCODING 223
SWIDTH 542 0
DWIDTH 19 0
BBX 16 26 2 0
BITMAP
0FC0
1FF0
3EF8
703C
601C
E00C
E00E
E00E
E00C
E01C
E03C
E0F8
E3F0
E3FC
E03E
E00F
E007
E003
E003
F803
F807
F807
FC0E
EFBE
E7FC
E3F0
ENDCHAR
STARTCHAR 00E0
ENCODING 224
SWIDTH 685 0
DWIDTH 24 0
BBX 21 26 1 0
BITMAP
020000
038000
03E000
00F000
007800
001000
000000
01FC38
07FF38
0F8FB8
1E01F8
3800F8
700078
700078
600038
600038
E00038
600038
600038
700038
700078
3800F8
1C01F8
0F03B8
07FF38
01FC38
ENDCHAR
STARTCHAR 00E1
ENCODING 225
SWIDTH 685 0
DWIDTH 24 0
BBX 21 26 1 0
BITMAP
000200
000F00
003E00
007800
00F000
004000
000000
01FC38
07FF38
0F8FB8
1E01F8
3800F8
700078
700078
600038
600038
E00038
600038
600038
700038
700078
3800F8
1C01F8
0F03B8
07FF38
01FC38
ENDCHAR
STARTCHAR 00E2
ENCODING 226
SWIDTH 685 0
DWIDTH 24 0
BBX 21 25 1 0
BITMAP
007000
00FC00
03CE00
070700
000000
000000
01FC38
07FF38
0F8FB8
1E01F8
3800F8
700078
700078
600038
600038
E00038
600038
600038
700038
700078
3800F8
1C01F8
0F03B8
07FF38
01FC38
ENDCHAR
STARTCHAR 00E3
ENCODING 227
SWIDTH 685 0
DWIDTH 24 0
BBX 21 24 1 0
BITMAP
01E200
07FE00
023C00
000000
000000
01FC38
07FF38
0F8FB8
1E01F8
3800F8
700078
700078
600038
600038
E00038
600038
600038
700038
700078
3800F8
1C01F8
0F03B8
07FF38
01FC38
ENDCHAR
STARTCHAR 00E4
ENCODING 228
SWIDTH 685 0
DWIDTH 24 0
BBX 21 25 1 0
BITMAP
018C00
018C00
018C00
018C00
000000
000000
01FC38
07FF38
0F8FB8
1E01F8
3800F8
700078
700078
600038
600038
E00038
600038
600038
700038
700078
3800F8
1C01F8
0F03B8
07FF38
01FC38
ENDCHAR
STARTCHAR 00E5
ENCODING 229
SWIDTH 685 0
DWIDTH 24 0
BBX 21 27 1 0
BITMAP
002000
00F800
018C00
018C00
018C00
018C00
00F800
002000
01FC38
07FF38
0F8FB8
1E01F8
3800F8
700078
700078
600038
600038
E00038
600038
600038
700038
700078
3800F8
1C01F8
0F03B8
07FF38
01FC38
ENDCHAR
STARTCHAR 00E6
ENCODING 230
SWIDTH 1171 0
DWIDTH 41 0
BBX 38 19 1 0
BITMAP
01FC387F00
07FF39FFC0
0F03BB81E0
1C01FF0070
3800FC0038
70007C0018
7000380018
600038001C
60003FFFFC
E0003FFFFC
6000387FFC
6000380000
7000380000
70007C0018
3800FE0038
1E01FF00F0
0F8FBFF7E0
07FF39FFC0
01FC387E00
ENDCHAR
STARTCHAR 00E7
ENCODING 231
SWIDTH 657 0
DWIDTH 23 0
BBX 20 27 1 -8
BITMAP
00FC00
07FF00
0F8FC0
1E01E0
3800E0
700070
700000
600000
600000
E00000
600000
600000
700000
700070
3800E0
1E01E0
0FCFC0
07FF00
01FC00
002000
007C00
007E00
000600
000600
00C600
007E00
003800
ENDCHAR
STARTCHAR 00E8
ENCODING 232
SWIDTH 657 0
DWIDTH 23 0
BBX 20 26 1 0
BITMAP
020000
078000
03C000
00F000
007800
001000
000000
01FC00
07FF00
0FDF80
1C01C0
3800E0
700060
700070
600030
7FFFF0
FFFFF0
600000
600000
700000
700070
3800E0
1C01C0
0F8F80
07FF00
01FC00
ENDCHAR
STARTCHAR 00E9
ENCODING 233
SWIDTH 657 0
DWIDTH 23 0
BBX 20 26 1 0
BITMAP
000200
000E00
003E00
007800
00E000
004000
000000
01FC00
07FF00
0FDF80
1C01C0
3800E0
700060
700070
600030
7FFFF0
FFFFF0
600000
600000
700000
700070
3800E0
1C01C0
0F8F80
07FF00
01FC00
ENDCHAR
STARTCHAR 00EA
ENCODING 234
SWIDTH 657 0
DWIDTH 23 0
BBX 20 25 1 0
BITMAP
007000
01F800
038E00
070700
000000
000000
01FC00
07FF00
0FDF80
1C01C0
3800E0
700060
700070
600030
7FFFF0
FFFFF0
600000
600000
700000
700070
3800E0
1C01C0
0F8F80
07FF00
01FC00
ENDCHAR
STARTCHAR 00EB
ENCODING 235
SWIDTH 657 0
DWIDTH 23 0
BBX 20 25 1 0
BITMAP
018C00
018C00
018C00
018C00
000000
000000
01FC00
07FF00
0FDF80
1C01C0
3800E0
700060
700070
600030
7FFFF0
FFFFF0
600000
600000
700000
700070
3800E0
1C01C0
0F8F80
07FF00
01FC00
ENDCHAR
STARTCHAR 00EC
ENCODING 236
SWIDTH 200 0
DWIDTH 7 0
BBX 8 27 -2 0
BITMAP
40
F0
78
1E
0F
02
00
00
0E
0E
0E
0E
0E
0E
0E
0E
0E
0E
0E
0E
0E
0E
0E
0E
0E
0E
0E
ENDCHAR
STARTCHAR 00ED
ENCODING 237
SWIDTH 200 0
DWIDTH 7 0
BBX 8 27 1 0
BITMAP
02
0F
1E
78
F0
40
00
00
70
70
70
70
70
70
70
70
70
70
70
70
70
70
70
70
70
70
70
ENDCHAR
STARTCHAR 00EE
ENCODING 238
SWIDTH 200 0
DWIDTH 7 0
BBX 11 26 -2 0
BITMAP
0E00
1F00
3B80
71C0
E0E0
0000
0000
0E00
0E00
0E00
0E00
0E00
0E00
0E00
0E00
0E00
0E00
0E00
0E00
0E00
0E00
0E00
0E00
0E00
0E00
0E00
ENDCHAR
STARTCHAR 00EF
ENCODING 239
SWIDTH 200 0
DWIDTH 7 0
BBX 7 25 0 0
BITMAP
C6
C6
C6
C6
00
00
38
38
38
38
38
38
38
38
38
38
38
38
38
38
38
38
38
38
38
ENDCHAR
STARTCHAR 00F0
ENCODING 240
SWIDTH 657 0
DWIDTH 23 0
BBX 20 26 1 0
BITMAP
018000
01CE00
00FC00
01F000
03FC00
011E00
000F00
01FF80
07FF80
0F8FC0
1C01E0
3800E0
700070
700070
600030
600030
E00030
600030
600030
700070
700070
3800E0
1E01C0
0F8F80
07FF00
01FC00
ENDCHAR
STARTCHAR 00F1
ENCODING 241
SWIDTH 600 0
DWIDTH 21 0
BBX 17 25 2 -1
BITMAP
078800
0FFC00
0CF800
000000
000000
000000
E3F000
EFFC00
FC1E00
F00700
F00300
E00380
E00380
E00380
E00180
E00180
E00180
E00180
E00180
E00180
E00180
E00180
E00180
E00180
E00180
ENDCHAR
STARTCHAR 00F2
ENCODING 242
SWIDTH 657 0
DWIDTH 23 0
BBX 20 26 1 0
BITMAP
020000
038000
03E000
00F000
007800
001000
000000
01FC00
07FF00
0F8F80
1C03C0
3800E0
700070
700070
600030
600030
E00030
600030
600030
700070
700070
3800E0
1C01C0
0F8F80
07FF00
01FC00
ENDCHAR
STARTCHAR 00F3
ENCODING 243
SWIDTH 657 0
DWIDTH 23 0
BBX 20 26 1 0
BITMAP
000200
000E00
003E00
007800
00F000
004000
000000
01FC00
07FF00
0F8F80
1C03C0
3800E0
700070
700070
600030
600030
E00030
600030
600030
700070
700070
3800E0
1C01C0
0F8F80
07FF00
01FC00
ENDCHAR
STARTCHAR 00F4
ENCODING 244
SWIDTH 657 0
DWIDTH 23 0
BBX 20 25 1 0
BITMAP
007000
01FC00
038E00
070700
000000
000000
01FC00
07FF00
0F8F80
1C03C0
3800E0
700070
700070
600030
600030
E00030
600030
600030
700070
700070
3800E0
1C01C0
0F8F80
07FF00
01FC00
ENDCHAR
STARTCHAR 00F5
ENCODING 245
SWIDTH 657 0
DWIDTH 23 0
BBX 20 24 1 0
BITMAP
01E600
07FE00
023C00
000000
000000
01FC00
07FF00
0F8F80
1C03C0
3800E0
700070
700070
600030
600030
E00030
600030
600030
700070
700070
3800E0
1C01C0
0F8F80
07FF00
01FC00
ENDCHAR
STARTCHAR 00F6
ENCODING 246
SWIDTH 657 0
DWIDTH 23 0
BBX 20 25 1 0
BITMAP
018C00
018C00
018C00
018C00
000000
000000
01FC00
07FF00
0F8F80
1C03C0
3800E0
700070
700070
600030
600030
E00030
600030
600030
700070
700070
3800E0
1C01C0
0F8F80
07FF00
01FC00
ENDCHAR
STARTCHAR 00F7
ENCODING 247
SWIDTH 600 0
DWIDTH 21 0
BBX 17 17 2 0
BITMAP
01C000
03E000
01E000
01C000
000000
000000
000000
FFFF80
FFFF80
FFFF80
000000
000000
000000
01C000
03E000
01E000
01C000
ENDCHAR
STARTCHAR 00F8
ENCODING 248
SWIDTH 657 0
DWIDTH 23 0
BBX 20 21 1 -1
BITMAP
000040
01FCE0
07FFE0
0F9FC0
1E03C0
3807E0
700E70
701C70
601C30
603830
E07030
60E030
61C070
738070
738060
3F00E0
1E01C0
1F8F80
3FFF00
39FC00
100000
ENDCHAR
STARTCHAR 00F9
ENCODING 249
SWIDTH 600 0
DWIDTH 21 0
BBX 17 27 2 0
BITMAP
080000
0E0000
0F8000
03C000
00E000
004000
000000
000000
E00380
E00380
E00380
E00380
E00380
E00380
E00380
E00380
E00380
E00380
E00380
E00380
E00380
600380
700780
700780
3C1F80
1FFB80
07E380
ENDCHAR
STARTCHAR 00FA
ENCODING 250
SWIDTH 600 0
DWIDTH 21 0
BBX 17 27 2 0
BITMAP
000800
003C00
007800
01E000
03C000
010000
000000
000000
E00380
E00380
E00380
E00380
E00380
E00380
E00380
E00380
E00380
E00380
E00380
E00380
E00380
600380
700780
700780
3C1F80
1FFB80
07E380
ENDCHAR
STARTCHAR 00FB
ENCODING 251
SWIDTH 600 0
DWIDTH 21 0
BBX 17 26 2 0
BITMAP
01C000
03E000
077000
0E3800
1C1C00
000000
000000
E00380
E00380
E00380
E00380
E00380
E00380
E00380
E00380
E00380
E00380
E00380
E00380
E00380
600380
700780
700780
3C1F80
1FFB80
07E380
ENDCHAR
STARTCHAR 00FC
ENCODING 252
SWIDTH 600 0
DWIDTH 21 0
BBX 17 25 2 0
BITMAP
063000
063000
063000
063000
000000
000000
E00380
E00380
E00380
E00380
E00380
E00380
E00380
E00380
E00380
E00380
E00380
E00380
E00380
600380
700780
700780
3C1F80
1FFB80
07E380
ENDCHAR
STARTCHAR 00FD
ENCODING 253
SWIDTH 542 0
DWIDTH 19 0
BBX 17 34 1 -7
BITMAP
000800
003800
00F800
01E000
038000
010000
000000
000000
C00380
E00380
E00300
700700
700700
700E00
380E00
380C00
1C1C00
1C1800
1C3800
0E3800
0E7000
067000
076000
07E000
03C000
03C000
01C000
038000
038000
030000
070000
060000
0E0000
0E0000
ENDCHAR
STARTCHAR 00FE
ENCODING 254
SWIDTH 685 0
DWIDTH 24 0
BBX 20 32 2 -6
BITMAP
E00000
E00000
E00000
E00000
E00000
E00000
E00000
E1FC00
E7FF00
EF9F80
FC03C0
F801E0
F000F0
E00070
E00070
E00030
E00030
E00030
E00030
E00070
E00060
F000E0
F803C0
EE0F80
E7FF00
E1FC00
E00000
E00000
E00000
E00000
E00000
E00000
ENDCHAR
STARTCHAR 00FF
ENCODING 255
SWIDTH 542 0
DWIDTH 19 0
BBX 17 32 1 -7
BITMAP
063000
063000
063000
063000
000000
000000
C00380
E00380
E00300
700700
700700
700E00
380E00
380C00
1C1C00
1C1800
1C3800
0E3800
0E7000
067000
076000
07E000
03C000
03C000
01C000
038000
038000
030000
070000
060000
0E0000
0E0000
ENDCHAR
STARTCHAR 0100
ENCODING 256
SWIDTH 742 0
DWIDTH 26 0
BBX 24 31 1 0
BITMAP
03FFC0
03FFC0
000000
000000
000000
003C00
003C00
007C00
007E00
006600
00E700
00C700
01C380
01C380
038180
0381C0
0301C0
0700E0
0600E0
0E0070
0FFFF0
1FFFF0
1C0038
180038
38001C
38001C
70000E
70000E
E00006
E00007
C00007
ENDCHAR
STARTCHAR 0101
ENCODING 257
SWIDTH 685 0
DWIDTH 24 0
BBX 21 24 1 0
BITMAP
07FF00
07FF00
000000
000000
000000
01FC38
07FF38
0F8FB8
1E01F8
3800F8
700078
700078
600038
600038
E00038
600038
600038
700038
700078
3800F8
1C01F8
0F03B8
07FF38
01FC38
ENDCHAR
STARTCHAR 0102
ENCODING 258
SWIDTH 742 0
DWIDTH 26 0
BBX 24 32 1 0
BITMAP
018180
01C380
00FF00
007E00
000000
000000
003C00
003C00
007C00
007E00
006600
00E700
00C700
01C380
01C380
038180
0381C0
0301C0
0700E0
0600E0
0E0070
0FFFF0
1FFFF0
1C0038
180038
38001C
38001C
70000E
70000E
E00006
E00007
C00007
ENDCHAR
STARTCHAR 0103
ENCODING 259
SWIDTH 685 0
DWIDTH 24 0
BBX 21 25 1 0
BITMAP
070700
030600
03FE00
00F800
000000
000000
01FC38
07FF38
0F8FB8
1E01F8
3800F8
700078
700078
600038
600038
E00038
600038
600038
700038
700078
3800F8
1C01F8
0F03B8
07FF38
01FC38
ENDCHAR
STARTCHAR 0104
ENCODING 260
SWIDTH 742 0
DWIDTH 26 0
BBX 25 35 1 -9
BITMAP
003C0000
003C0000
007C0000
007E0000
00660000
00E70000
00C70000
01C38000
01C38000
03818000
0381C000
0301C000
0700E000
0600E000
0E007000
0FFFF000
1FFFF000
1C003800
18003800
38001C00
38001C00
70000E00
70000E00
E0000600
E0000700
C0000700
00000700
00000E00
00001C00
00001C00
00001C00
00001C00
00000F80
00000F80
00000100
ENDCHAR
STARTCHAR 0105
ENCODING 261
SWIDTH 685 0
DWIDTH 24 0
BBX 21 28 1 -9
BITMAP
01FC38
07FF38
0F8FB8
1E01F8
3800F8
700078
700078
600038
600038
E00038
600038
600038
700038
700078
3800F8
1C01F8
0F03B8
07FF38
01FC38
000070
0000E0
0000C0
0001C0
0001C0
0001C0
0000F8
000078
000018
ENDCHAR
STARTCHAR 0106
ENCODING 262
SWIDTH 800 0
DWIDTH 28 0
BBX 25 33 2 0
BITMAP
00008000
0001C000
00078000
001F0000
001C0000
00100000
00000000
007F8000
01FFF000
07F3F800
0F003C00
1C000E00
38000700
70000380
70000000
E0000000
E0000000
C0000000
C0000000
C0000000
C0000000
C0000000
E0000000
E0000000
E0000000
70000000
78000380
38000700
1E000E00
0F003C00
07F3F800
01FFE000
007F8000
ENDCHAR
STARTCHAR 0107
ENCODING 263
SWIDTH 657 0
DWIDTH 23 0
BBX 20 26 1 0
BITMAP
000200
000F00
001E00
007800
00F000
004000
000000
00FC00
07FF00
0F8FC0
1E01E0
3800E0
700070
700000
600000
600000
E00000
600000
600000
700000
700070
3800E0
1E01E0
0FCFC0
07FF00
01FC00
ENDCHAR
STARTCHAR 0108
ENCODING 264
SWIDTH 800 0
DWIDTH 28 0
BBX 25 32 2 0
BITMAP
001E0000
003F0000
007F8000
00F3C000
01C1E000
00000000
007F8000
01FFF000
07F3F800
0F003C00
1C000E00
38000700
70000380
70000000
E0000000
E0000000
C0000000
C0000000
C0000000
C0000000
C0000000
E0000000
E0000000
E0000000
70000000
78000380
38000700
1E000E00
0F003C00
07F3F800
01FFE000
007F8000
ENDCHAR
STARTCHAR 0109
ENCODING 265
SWIDTH 657 0
DWIDTH 23 0
BBX 20 25 1 0
BITMAP
007800
00FC00
03CE00
070700
000000
000000
00FC00
07FF00
0F8FC0
1E01E0
3800E0
700070
700000
600000
600000
E00000
600000
600000
700000
700070
3800E0
1E01E0
0FCFC0
07FF00
01FC00
ENDCHAR
STARTCHAR 010A
ENCODING 266
SWIDTH 800 0
DWIDTH 28 0
BBX 25 32 2 0
BITMAP
000C0000
000C0000
000C0000
000C0000
00000000
00000000
007F8000
01FFF000
07F3F800
0F003C00
1C000E00
38000700
70000380
70000000
E0000000
E0000000
C0000000
C0000000
C0000000
C0000000
C0000000
E0000000
E0000000
E0000000
70000000
78000380
38000700
1E000E00
0F003C00
07F3F800
01FFE000
007F8000
ENDCHAR
STARTCHAR 010B
ENCODING 267
SWIDTH 657 0
DWIDTH 23 0
BBX 20 25 1 0
BITMAP
007000
007000
007000
007000
000000
000000
00FC00
07FF00
0F8FC0
1E01E0
3800E0
700070
700000
600000
600000
E00000
600000
600000
700000
700070
3800E0
1E01E0
0FCFC0
07FF00
01FC00
ENDCHAR
STARTCHAR 010C
ENCODING 268
SWIDTH 800 0
DWIDTH 28 0
BBX 25 32 2 0
BITMAP
01C1E000
00E3C000
00778000
003F0000
001E0000
00000000
007F8000
01FFF000
07F3F800
0F003C00
1C000E00
38000700
70000380
70000000
E0000000
E0000000
C0000000
C0000000
C0000000
C0000000
C0000000
E0000000
E0000000
E0000000
70000000
78000380
38000700
1E000E00
0F003C00
07F3F800
01FFE000
007F8000
ENDCHAR
STARTCHAR 010D
ENCODING 269
SWIDTH 657 0
DWIDTH 23 0
BBX 20 25 1 0
BITMAP
070700
03CE00
00FC00
007000
000000
000000
00FC00
07FF00
0F8FC0
1E01E0
3800E0
700070
700000
600000
600000
E00000
600000
600000
700000
700070
3800E0
1E01E0
0FCFC0
07FF00
01FC00
ENDCHAR
STARTCHAR 010E
ENCODING 270
SWIDTH 742 0
DWIDTH 26 0
BBX 22 32 3 0
BITMAP
0F0F00
039C00
01F800
00F000
000000
000000
FFF000
FFFE00
C0FF00
C007C0
C001E0
C000E0
C00070
C00030
C00038
C00038
C00018
C00018
C0001C
C0001C
C00018
C00018
C00038
C00038
C00038
C00070
C000E0
C001E0
C007C0
C07F00
FFFE00
FFE000
ENDCHAR
STARTCHAR 010F
ENCODING 271
SWIDTH 685 0
DWIDTH 24 0
BBX 27 26 1 0
BITMAP
00003860
000038E0
000038E0
000038C0
000039C0
000039C0
00003800
01FC3800
07FF3800
0F87B800
1E01F800
38007800
70007800
70003800
60003800
60003800
E0003800
60003800
60003800
70003800
70007800
38007800
1C01F800
0F03B800
07FF3800
01FC3800
ENDCHAR
STARTCHAR 0110
ENCODING 272
SWIDTH 800 0
DWIDTH 28 0
BBX 25 26 1 0
BITMAP
1FFE0000
1FFFC000
1C1FF000
1C007800
1C003C00
1C000E00
1C000F00
1C000700
1C000300
1C000380
1C000380
1C000380
FFF80380
FFF80380
1C000380
1C000380
1C000380
1C000380
1C000700
1C000700
1C000E00
1C001C00
1C007800
1C07F000
1FFFC000
1FFE0000
ENDCHAR
STARTCHAR 0111
ENCODING 273
SWIDTH 685 0
DWIDTH 24 0
BBX 23 26 1 0
BITMAP
000038
000038
000038
0007FE
0007FE
000038
000038
01FC38
07FF38
0F8FB8
1E01F8
3800F8
700078
700038
600038
600038
E00038
600038
600038
700038
700078
3800F8
1E01F8
0FCFB8
07FF38
01FC38
ENDCHAR
STARTCHAR 0112
ENCODING 274
SWIDTH 542 0
DWIDTH 19 0
BBX 14 31 3 0
BITMAP
7FF8
7FF8
0000
0000
0000
FFFC
FFFC
C000
C000
C000
C000
C000
C000
C000
C000
C000
C000
FFF8
FFF8
C000
C000
C000
C000
C000
C000
C000
C000
C000
C000
FFFC
FFFC
ENDCHAR
STARTCHAR 0113
ENCODING 275
SWIDTH 657 0
DWIDTH 23 0
BBX 20 24 1 0
BITMAP
0FFF00
0FFF00
000000
000000
000000
01FC00
07FF00
0FDF80
1C01C0
3800E0
700060
700070
600030
7FFFF0
FFFFF0
600000
600000
700000
700070
3800E0
1C01C0
0F8F80
07FF00
01FC00
ENDCHAR
STARTCHAR 0114
ENCODING 276
SWIDTH 542 0
DWIDTH 19 0
BBX 14 32 3 0
BITMAP
3030
3870
1FE0
0FC0
0000
0000
FFFC
FFFC
C000
C000
C000
C000
C000
C000
C000
C000
C000
C000
FFF8
FFF8
C000
C000
C000
C000
C000
C000
C000
C000
C000
C000
FFFC
FFFC
ENDCHAR
STARTCHAR 0115
ENCODING 277
SWIDTH 657 0
DWIDTH 23 0
BBX 20 25 1 0
BITMAP
060700
030600
03FE00
00F800
000000
000000
01FC00
07FF00
0FDF80
1C01C0
3800E0
700060
700070
600030
7FFFF0
FFFFF0
600000
600000
700000
700070
3800E0
1C01C0
0F8F80
07FF00
01FC00
ENDCHAR
STARTCHAR 0116
ENCODING 278
SWIDTH 542 0
DWIDTH 19 0
BBX 14 32 3 0
BITMAP
0700
0700
0700
0700
0000
0000
FFFC
FFFC
C000
C000
C000
C000
C000
C000
C000
C000
C000
C000
FFF8
FFF8
C000
C000
C000
C000
C000
C000
C000
C000
C000
C000
FFFC
FFFC
ENDCHAR
STARTCHAR 0117
ENCODING 279
SWIDTH 657 0
DWIDTH 23 0
BBX 20 25 1 0
BITMAP
007000
007000
007000
007000
000000
000000
01FC00
07FF00
0FDF80
1C01C0
3800E0
700060
700070
600030
7FFFF0
FFFFF0
600000
600000
700000
700070
3800E0
1C01C0
0F8F80
07FF00
01FC00
ENDCHAR
STARTCHAR 0118
ENCODING 280
SWIDTH 542 0
DWIDTH 19 0
BBX 14 35 3 -9
BITMAP
FFFC
FFFC
C000
C000
C000
C000
C000
C000
C000
C000
C000
C000
FFF8
FFF8
C000
C000
C000
C000
C000
C000
C000
C000
C000
C000
FFFC
FFFC
0018
0030
0060
00E0
00E0
00E0
007C
003C
000C
ENDCHAR
STARTCHAR 0119
ENCODING 281
SWIDTH 657 0
DWIDTH 23 0
BBX 20 28 1 -9
BITMAP
01FC00
07FF00
0FDF80
1C01C0
3800E0
700060
700070
600030
7FFFF0
FFFFF0
600000
600000
700000
700070
3800E0
1C01C0
0F8F80
07FF00
01FC00
003800
007000
006000
006000
006000
007000
007E00
003E00
000C00
ENDCHAR
STARTCHAR 011A
ENCODING 282
SWIDTH 542 0
DWIDTH 19 0
BBX 14 32 3 0
BITMAP
7070
3CE0
0FC0
0700
0000
0000
FFFC
FFFC
C000
C000
C000
C000
C000
C000
C000
C000
C000
C000
FFF8
FFF8
C000
C000
C000
C000
C000
C000
C000
C000
C000
C000
FFFC
FFFC
ENDCHAR
STARTCHAR 011B
ENCODING 283
SWIDTH 657 0
DWIDTH 23 0
BBX 20 25 1 0
BITMAP
070700
039E00
01F800
007000
000000
000000
01FC00
07FF00
0FDF80
1C01C0
3800E0
700060
700070
600030
7FFFF0
FFFFF0
600000
600000
700000
700070
3800E0
1C01C0
0F8F80
07FF00
01FC00
ENDCHAR
STARTCHAR 011C
ENCODING 284
SWIDTH 885 0
DWIDTH 31 0
BBX 27 32 2 0
BITMAP
000E0000
001F0000
003B8000
0071C000
00E0E000
00000000
003F8000
01FFF000
07F3FC00
0F003E00
1E000F00
38000780
70000380
70000000
E0000000
E0000000
C0000000
C0000000
C0000000
C0000000
C03FFFE0
E03FFFE0
E00000E0
E00000C0
700001C0
78000380
38000780
1E000F00
0F001E00
07F1FC00
01FFF000
003F8000
ENDCHAR
STARTCHAR 011D
ENCODING 285
SWIDTH 685 0
DWIDTH 24 0
BBX 20 32 1 -7
BITMAP
00F000
01F800
039E00
070700
000000
000000
01FC30
07FF30
0F9FB0
1C03F0
3800F0
700070
700070
600030
600030
E00030
600030
600070
700070
700070
3800F0
1E03B0
0F8FB0
07FE30
01FC30
700070
380070
3800E0
1E01E0
0FCFC0
07FF00
01FC00
ENDCHAR
STARTCHAR 011E
ENCODING 286
SWIDTH 885 0
DWIDTH 31 0
BBX 27 32 2 0
BITMAP
00C0E000
00E0C000
0071C000
007F8000
001F0000
00000000
003F8000
01FFF000
07F3FC00
0F003E00
1E000F00
38000780
70000380
70000000
E0000000
E0000000
C0000000
C0000000
C0000000
C0000000
C03FFFE0
E03FFFE0
E00000E0
E00000C0
700001C0
78000380
38000780
1E000F00
0F001E00
07F1FC00
01FFF000
003F8000
ENDCHAR
STARTCHAR 011F
ENCODING 287
SWIDTH 685 0
DWIDTH 24 0
BBX 20 32 1 -7
BITMAP
060600
070E00
03FC00
01F800
000000
000000
01FC30
07FF30
0F9FB0
1C03F0
3800F0
700070
700070
600030
600030
E00030
600030
600070
700070
700070
3800F0
1E03B0
0F8FB0
07FE30
01FC30
700070
380070
3800E0
1E01E0
0FCFC0
07FF00
01FC00
ENDCHAR
STARTCHAR 0120
ENCODING 288
SWIDTH 885 0
DWIDTH 31 0
BBX 27 32 2 0
BITMAP
000E0000
000E0000
000E0000
000E0000
00000000
00000000
003F8000
01FFF000
07F3FC00
0F003E00
1E000F00
38000780
70000380
70000000
E0000000
E0000000
C0000000
C0000000
C0000000
C0000000
C03FFFE0
E03FFFE0
E00000E0
E00000C0
700001C0
78000380
38000780
1E000F00
0F001E00
07F1FC00
01FFF000
003F8000
ENDCHAR
STARTCHAR 0121
ENCODING 289
SWIDTH 685 0
DWIDTH 24 0
BBX 20 32 1 -7
BITMAP
007000
007000
007000
007000
000000
000000
01FC30
07FF30
0F9FB0
1C03F0
3800F0
700070
700070
600030
600030
E00030
600030
600070
700070
700070
3800F0
1E03B0
0F8FB0
07FE30
01FC30
700070
380070
3800E0
1E01E0
0FCFC0
07FF00
01FC00
ENDCHAR
STARTCHAR 0122
ENCODING 290
SWIDTH 885 0
DWIDTH 31 0
BBX 27 33 2 -7
BITMAP
003F8000
01FFF000
07F3FC00
0F003E00
1E000F00
38000780
70000380
70000000
E0000000
E0000000
C0000000
C0000000
C0000000
C0000000
C03FFFE0
E03FFFE0
E00000E0
E00000C0
700001C0
78000380
38000780
1E000F00
0F001E00
07F1FC00
01FFF000
003F8000
00000000
000E0000
000E0000
000C0000
001C0000
001C0000
00180000
ENDCHAR
STARTCHAR 0123
ENCODING 291
SWIDTH 685 0
DWIDTH 24 0
BBX 20 34 1 -7
BITMAP
003000
007000
007000
006000
006000
00E000
000000
000000
01FC30
07FF30
0F9FB0
1C03F0
3800F0
700070
700070
600030
600030
E00030
600030
600070
700070
700070
3800F0
1E03B0
0F8FB0
07FE30
01FC30
700070
380070
3800E0
1E01E0
0FCFC0
07FF00
01FC00
ENDCHAR
STARTCHAR 0124
ENCODING 292
SWIDTH 685 0
DWIDTH 24 0
BBX 18 32 3 0
BITMAP
01E000
03F000
073800
1E1E00
000000
000000
C000C0
C000C0
C000C0
C000C0
C000C0
C000C0
C000C0
C000C0
C000C0
C000C0
C000C0
C000C0
FFFFC0
FFFFC0
C000C0
C000C0
C000C0
C000C0
C000C0
C000C0
C000C0
C000C0
C000C0
C000C0
C000C0
C000C0
ENDCHAR
STARTCHAR 0125
ENCODING 293
SWIDTH 600 0
DWIDTH 21 0
BBX 17 32 2 0
BITMAP
01C000
03F000
0F3800
1C1C00
000000
000000
E00000
E00000
E00000
E00000
E00000
E00000
E00000
E3F000
EFFC00
FF7E00
F80F00
F00700
E00380
E00380
E00380
E00180
E00180
E00180
E00180
E00180
E00180
E00180
E00180
E00180
E00180
E00180
ENDCHAR
STARTCHAR 0126
ENCODING 294
SWIDTH 685 0
DWIDTH 24 0
BBX 24 26 0 0
BITMAP
180018
180018
180018
180018
FFFFFF
FFFFFF
180018
180018
180018
180018
180018
180018
1FFFF8
1FFFF8
180018
180018
180018
180018
180018
180018
180018
180018
180018
180018
180018
180018
ENDCHAR
STARTCHAR 0127
ENCODING 295
SWIDTH 600 0
DWIDTH 21 0
BBX 19 26 0 0
BITMAP
380000
380000
380000
FF0000
FF0000
380000
380000
38FC00
3BFF00
3FCF80
3E03C0
3C01C0
3800E0
3800E0
3800E0
380060
380060
380060
380060
380060
380060
380060
380060
380060
380060
380060
ENDCHAR
STARTCHAR 0128
ENCODING 296
SWIDTH 228 0
DWIDTH 8 0
BBX 10 32 -1 0
BITMAP
7880
FEC0
CFC0
4380
0000
0000
0C00
0C00
0C00
0C00
0C00
0C00
0C00
0C00
0C00
0C00
0C00
0C00
0C00
0C00
0C00
0C00
0C00
0C00
0C00
0C00
0C00
0C00
0C00
0C00
0C00
0C00
ENDCHAR
STARTCHAR 0129
ENCODING 297
SWIDTH 200 0
DWIDTH 7 0
BBX 9 25 -1 0
BITMAP
7080
FF80
CF80
0000
0000
0000
1C00
1C00
1C00
1C00
1C00
1C00
1C00
1C00
1C00
1C00
1C00
1C00
1C00
1C00
1C00
1C00
1C00
1C00
1C00
ENDCHAR
STARTCHAR 012A
ENCODING 298
SWIDTH 228 0
DWIDTH 8 0
BBX 12 31 -2 0
BITMAP
FFF0
FFF0
0000
0000
0000
0600
0600
0600
0600
0600
0600
0600
0600
0600
0600
0600
0600
0600
0600
0600
0600
0600
0600
0600
0600
0600
0600
0600
0600
0600
0600
ENDCHAR
STARTCHAR 012B
ENCODING 299
SWIDTH 200 0
DWIDTH 7 0
BBX 11 24 -2 0
BITMAP
FFE0
FFE0
0000
0000
0000
0E00
0E00
0E00
0E00
0E00
0E00
0E00
0E00
0E00
0E00
0E00
0E00
0E00
0E00
0E00
0E00
0E00
0E00
0E00
ENDCHAR
STARTCHAR 012C
ENCODING 300
SWIDTH 228 0
DWIDTH 8 0
BBX 10 32 -1 0
BITMAP
C0C0
E1C0
7F80
3F00
0000
0000
0C00
0C00
0C00
0C00
0C00
0C00
0C00
0C00
0C00
0C00
0C00
0C00
0C00
0C00
0C00
0C00
0C00
0C00
0C00
0C00
0C00
0C00
0C00
0C00
0C00
0C00
ENDCHAR
STARTCHAR 012D
ENCODING 301
SWIDTH 200 0
DWIDTH 7 0
BBX 11 25 -2 0
BITMAP
E0E0
60C0
7FC0
1F00
0000
0000
0E00
0E00
0E00
0E00
0E00
0E00
0E00
0E00
0E00
0E00
0E00
0E00
0E00
0E00
0E00
0E00
0E00
0E00
0E00
ENDCHAR
STARTCHAR 012E
ENCODING 302
SWIDTH 228 0
DWIDTH 8 0
BBX 6 35 0 -9
BITMAP
18
18
18
18
18
18
18
18
18
18
18
18
18
18
18
18
18
18
18
18
18
18
18
18
18
18
30
60
E0
C0
C0
E0
FC
7C
18
ENDCHAR
STARTCHAR 012F
ENCODING 303
SWIDTH 200 0
DWIDTH 7 0
BBX 6 34 -1 -9
BITMAP
1C
1C
1C
1C
00
00
1C
1C
1C
1C
1C
1C
1C
1C
1C
1C
1C
1C
1C
1C
1C
1C
1C
1C
1C
18
30
60
E0
E0
E0
7C
3C
0C
ENDCHAR
STARTCHAR 0130
ENCODING 304
SWIDTH 228 0
DWIDTH 8 0
BBX 2 32 3 0
BITMAP
C0
C0
C0
C0
00
00
C0
C0
C0
C0
C0
C0
C0
C0
C0
C0
C0
C0
C0
C0
C0
C0
C0
C0
C0
C0
C0
C0
C0
C0
C0
C0
ENDCHAR
STARTCHAR 0131
ENCODING 305
SWIDTH 200 0
DWIDTH 7 0
BBX 3 19 2 0
BITMAP
E0
E0
E0
E0
E0
E0
E0
E0
E0
E0
E0
E0
E0
E0
E0
E0
E0
E0
E0
ENDCHAR
STARTCHAR 0132
ENCODING 306
SWIDTH 657 0
DWIDTH 23 0
BBX 19 26 2 0
BITMAP
E00060
E00060
E00060
E00060
E00060
E00060
E00060
E00060
E00060
E00060
E00060
E00060
E00060
E00060
E00060
E00060
E00060
E00060
E00060
E70060
E300E0
E380E0
E381C0
E1F7C0
E0FF80
E07E00
ENDCHAR
STARTCHAR 0133
ENCODING 307
SWIDTH 400 0
DWIDTH 14 0
BBX 10 32 2 -7
BITMAP
E1C0
E1C0
E1C0
E1C0
0000
0000
E1C0
E1C0
E1C0
E1C0
E1C0
E1C0
E1C0
E1C0
E1C0
E1C0
E1C0
E1C0
E1C0
E1C0
E1C0
E1C0
E1C0
E1C0
E1C0
01C0
01C0
0180
0380
1F00
1E00
1800
ENDCHAR
STARTCHAR 0134
ENCODING 308
SWIDTH 485 0
DWIDTH 17 0
BBX 18 32 0 0
BITMAP
001E00
003F00
007380
01E1C0
000000
000000
000C00
000C00
000C00
000C00
000C00
000C00
000C00
000C00
000C00
000C00
000C00
000C00
000C00
000C00
000C00
000C00
000C00
000C00
000C00
E00C00
601C00
701C00
703800
3EF800
1FF000
0FC000
ENDCHAR
STARTCHAR 0135
ENCODING 309
SWIDTH 200 0
DWIDTH 7 0
BBX 11 33 -2 -7
BITMAP
0E00
1F00
3B80
71C0
E0E0
0000
0000
0E00
0E00
0E00
0E00
0E00
0E00
0E00
0E00
0E00
0E00
0E00
0E00
0E00
0E00
0E00
0E00
0E00
0E00
0E00
0E00
0E00
0C00
1C00
FC00
F800
E000
ENDCHAR
STARTCHAR 0136
ENCODING 310
SWIDTH 600 0
DWIDTH 21 0
BBX 17 34 3 -8
BITMAP
C00380
C00700
C00E00
C01E00
C01C00
C03800
C07000
C0E000
C1E000
C1C000
C38000
C70000
CE0000
DF0000
DF8000
FB8000
F1C000
E0E000
E0F000
C07000
C03800
C01C00
C00E00
C00F00
C00700
C00380
000000
000000
01C000
018000
018000
038000
038000
030000
ENDCHAR
STARTCHAR 0137
ENCODING 311
SWIDTH 514 0
DWIDTH 18 0
BBX 15 34 2 -8
BITMAP
E000
E000
E000
E000
E000
E000
E000
E01E
E01C
E038
E070
E0E0
E1E0
E1C0
E380
E700
EE00
EF00
FF80
F9C0
F0E0
E0F0
E070
E038
E01C
E00E
0000
0000
0380
0380
0300
0300
0700
0700
ENDCHAR
STARTCHAR 0139
ENCODING 313
SWIDTH 457 0
DWIDTH 16 0
BBX 14 33 2 0
BITMAP
0600
0E00
3E00
F800
E000
C000
0000
6000
6000
6000
6000
6000
6000
6000
6000
6000
6000
6000
6000
6000
6000
6000
6000
6000
6000
6000
6000
6000
6000
6000
6000
7FFC
7FFC
ENDCHAR
STARTCHAR 013A
ENCODING 314
SWIDTH 200 0
DWIDTH 7 0
BBX 8 33 1 0
BITMAP
02
0F
1E
78
F0
40
00
70
70
70
70
70
70
70
70
70
70
70
70
70
70
70
70
70
70
70
70
70
70
70
70
70
70
ENDCHAR
STARTCHAR 013B
ENCODING 315
SWIDTH 457 0
DWIDTH 16 0
BBX 13 34 3 -8
BITMAP
C000
C000
C000
C000
C000
C000
C000
C000
C000
C000
C000
C000
C000
C000
C000
C000
C000
C000
C000
C000
C000
C000
C000
C000
FFF8
FFF8
0000
0000
0700
0700
0600
0E00
0E00
0C00
ENDCHAR
STARTCHAR 013C
ENCODING 316
SWIDTH 200 0
DWIDTH 7 0
BBX 4 34 1 -8
BITMAP
70
70
70
70
70
70
70
70
70
70
70
70
70
70
70
70
70
70
70
70
70
70
70
70
70
70
00
00
70
70
60
60
E0
E0
ENDCHAR
STARTCHAR 013D
ENCODING 317
SWIDTH 457 0
DWIDTH 16 0
BBX 13 26 3 0
BITMAP
C380
C300
C700
C700
C600
C600
C000
C000
C000
C000
C000
C000
C000
C000
C000
C000
C000
C000
C000
C000
C000
C000
C000
C000
FFF8
FFF8
ENDCHAR
STARTCHAR 013E
ENCODING 318
SWIDTH 200 0
DWIDTH 7 0
BBX 9 26 2 0
BITMAP
E180
E380
E380
E300
E700
E700
E000
E000
E000
E000
E000
E000
E000
E000
E000
E000
E000
E000
E000
E000
E000
E000
E000
E000
E000
E000
ENDCHAR
STARTCHAR 013F
ENCODING 319
SWIDTH 457 0
DWIDTH 16 0
BBX 13 26 3 0
BITMAP
C000
C000
C000
C000
C000
C000
C000
C000
C000
C000
C000
C0C0
C0C0
C0C0
C0C0
C000
C000
C000
C000
C000
C000
C000
C000
C000
FFF8
FFF8
ENDCHAR
STARTCHAR 0140
ENCODING 320
SWIDTH 285 0
DWIDTH 10 0
BBX 8 26 2 0
BITMAP
E0
E0
E0
E0
E0
E0
E0
E0
E0
E0
E0
E7
E7
E7
E7
E0
E0
E0
E0
E0
E0
E0
E0
E0
E0
E0
ENDCHAR
STARTCHAR 0141
ENCODING 321
SWIDTH 514 0
DWIDTH 18 0
BBX 17 26 1 0
BITMAP
1C0000
1C0000
1C0000
1C0000
1C0000
1C0000
1C2000
1C2000
1CE000
1DE000
1FC000
1F0000
1E0000
3C0000
7C0000
FC0000
DC0000
9C0000
1C0000
1C0000
1C0000
1C0000
1C0000
1C0000
1FFF80
1FFF80
ENDCHAR
STARTCHAR 0142
ENCODING 322
SWIDTH 314 0
DWIDTH 11 0
BBX 8 26 1 0
BITMAP
1C
1C
1C
1C
1C
1C
1C
1C
1C
1D
1F
1E
7C
FC
DC
9C
1C
1C
1C
1C
1C
1C
1C
1C
1C
1C
ENDCHAR
STARTCHAR 0143
ENCODING 323
SWIDTH 742 0
DWIDTH 26 0
BBX 20 33 3 0
BITMAP
000400
000E00
003C00
00F800
00E000
008000
000000
F00030
F00030
F80030
FC0030
DC0030
CE0030
CF0030
C70030
C38030
C1C030
C1C030
C0E030
C07030
C07030
C03830
C01C30
C01C30
C00E30
C00730
C00730
C003B0
C001F0
C001F0
C000F0
C00070
C00070
ENDCHAR
STARTCHAR 0144
ENCODING 324
SWIDTH 600 0
DWIDTH 21 0
BBX 17 27 2 -1
BITMAP
000800
003C00
007800
01E000
03C000
010000
000000
000000
E3F000
EFFC00
FC1E00
F00700
F00300
E00380
E00380
E00380
E00180
E00180
E00180
E00180
E00180
E00180
E00180
E00180
E00180
E00180
E00180
ENDCHAR
STARTCHAR 0145
ENCODING 325
SWIDTH 742 0
DWIDTH 26 0
BBX 20 34 3 -8
BITMAP
F00030
F00030
F80030
FC0030
DC0030
CE0030
CF0030
C70030
C38030
C1C030
C1C030
C0E030
C07030
C07030
C03830
C01C30
C01C30
C00E30
C00730
C00730
C003B0
C001F0
C001F0
C000F0
C00070
C00070
000000
000000
006000
006000
00E000
00E000
00C000
01C000
ENDCHAR
STARTCHAR 0146
ENCODING 326
SWIDTH 600 0
DWIDTH 21 0
BBX 17 27 2 -8
BITMAP
E3F000
EFFC00
FC1E00
F00700
F00300
E00380
E00380
E00380
E00180
E00180
E00180
E00180
E00180
E00180
E00180
E00180
E00180
E00180
E00180
000000
000000
00C000
01C000
01C000
018000
018000
038000
ENDCHAR
STARTCHAR 0147
ENCODING 327
SWIDTH 742 0
DWIDTH 26 0
BBX 20 32 3 0
BITMAP
0F0F00
039C00
01F800
00F000
000000
000000
F00030
F00030
F80030
FC0030
DC0030
CE0030
CF0030
C70030
C38030
C1C030
C1C030
C0E030
C07030
C07030
C03830
C01C30
C01C30
C00E30
C00730
C00730
C003B0
C001F0
C001F0
C000F0
C00070
C00070
ENDCHAR
STARTCHAR 0148
ENCODING 328
SWIDTH 600 0
DWIDTH 21 0
BBX 17 26 2 -1
BITMAP
1C1C00
0E3800
077000
03E000
01C000
000000
000000
E3F000
EFFC00
FC1E00
F00700
F00300
E00380
E00380
E00380
E00180
E00180
E00180
E00180
E00180
E00180
E00180
E00180
E00180
E00180
E00180
ENDCHAR
STARTCHAR 014A
ENCODING 330
SWIDTH 742 0
DWIDTH 26 0
BBX 20 35 3 -9
BITMAP
F00030
F00030
F80030
FC0030
DC0030
CE0030
CF0030
C70030
C38030
C1C030
C1C030
C0E030
C07030
C07030
C03830
C01C30
C01C30
C00E30
C00730
C00730
C003B0
C001F0
C001F0
C000F0
C00070
C00070
000030
000030
038030
018070
01C070
01C0E0
00FBE0
007FC0
003F00
ENDCHAR
STARTCHAR 014B
ENCODING 331
SWIDTH 600 0
DWIDTH 21 0
BBX 17 26 2 -7
BITMAP
E3F000
EFFC00
FC1E00
F00700
F00300
E00380
E00380
E00380
E00180
E00180
E00180
E00180
E00180
E00180
E00180
E00180
E00180
E00180
E00180
000180
000380
000380
000700
001F00
001E00
001800
ENDCHAR
STARTCHAR 014C
ENCODING 332
SWIDTH 857 0
DWIDTH 30 0
BBX 27 31 2 0
BITMAP
01FFE000
01FFE000
00000000
00000000
00000000
003F8000
01FFF000
07F3F800
0F003E00
1E000F00
38000700
78000380
700001C0
E00001C0
E00000C0
E00000E0
C00000E0
C00000E0
C00000E0
C00000E0
E00000E0
E00000C0
E00001C0
700001C0
78000380
38000700
1E000E00
0F003C00
07F1F800
01FFF000
007F8000
ENDCHAR
STARTCHAR 014D
ENCODING 333
SWIDTH 657 0
DWIDTH 23 0
BBX 20 24 1 0
BITMAP
07FF00
07FF00
000000
000000
000000
01FC00
07FF00
0F8F80
1C03C0
3800E0
700070
700070
600030
600030
E00030
600030
600030
700070
700070
3800E0
1C01C0
0F8F80
07FF00
01FC00
ENDCHAR
STARTCHAR 014E
ENCODING 334
SWIDTH 857 0
DWIDTH 30 0
BBX 27 32 2 0
BITMAP
00C0C000
00E0C000
0071C000
007F8000
001F0000
00000000
003F8000
01FFF000
07F3F800
0F003E00
1E000F00
38000700
78000380
700001C0
E00001C0
E00000C0
E00000E0
C00000E0
C00000E0
C00000E0
C00000E0
E00000E0
E00000C0
E00001C0
700001C0
78000380
38000700
1E000E00
0F003C00
07F1F800
01FFF000
007F8000
ENDCHAR
STARTCHAR 014F
ENCODING 335
SWIDTH 657 0
DWIDTH 23 0
BBX 20 25 1 0
BITMAP
070700
030600
03FE00
00F800
000000
000000
01FC00
07FF00
0F8F80
1C03C0
3800E0
700070
700070
600030
600030
E00030
600030
600030
700070
700070
3800E0
1C01C0
0F8F80
07FF00
01FC00
ENDCHAR
STARTCHAR 0150
ENCODING 336
SWIDTH 857 0
DWIDTH 30 0
BBX 27 33 2 0
BITMAP
00020400
00071E00
001E3C00
00387000
0070E000
00608000
00000000
003F8000
01FFF000
07F3F800
0F003E00
1E000F00
38000700
78000380
700001C0
E00001C0
E00000C0
E00000E0
C00000E0
C00000E0
C00000E0
C00000E0
E00000E0
E00000C0
E00001C0
700001C0
78000380
38000700
1E000E00
0F003C00
07F1F800
01FFF000
007F8000
ENDCHAR
STARTCHAR 0151
ENCODING 337
SWIDTH 657 0
DWIDTH 23 0
BBX 20 26 1 0
BITMAP
001020
003870
00F1E0
01E3C0
038700
010200
000000
01FC00
07FF00
0F8F80
1C03C0
3800E0
700070
700070
600030
600030
E00030
600030
600030
700070
700070
3800E0
1C01C0
0F8F80
07FF00
01FC00
ENDCHAR
STARTCHAR 0152
ENCODING 338
SWIDTH 1200 0
DWIDTH 42 0
BBX 38 26 2 0
BITMAP
007F80FFFC
01FFF0FFFC
07F3FCE000
0F003EE000
1C000FE000
380007E000
700003E000
700001E000
E00001E000
E00000E000
C00000E000
C00000E000
C00000FFF8
C00000FFF8
C00000E000
C00000E000
E00000E000
E00001E000
700001E000
700003E000
380003E000
1C0006E000
0E001CE000
07C078E000
01FFF0FFFC
007F80FFFC
ENDCHAR
STARTCHAR 0153
ENCODING 339
SWIDTH 1142 0
DWIDTH 40 0
BBX 37 19 1 0
BITMAP
01FC00FE00
07FF03FF80
0F8F87EFC0
1C03CE00E0
3800FC0070
7000780038
7000780038
6000700018
60003FFFF8
E0003FFFF8
6000300000
6000380000
7000780000
70007C0038
3800FC0070
1E01CF00E0
0F8F87E7C0
07FF03FF80
01FC007E00
ENDCHAR
STARTCHAR 0154
ENCODING 340
SWIDTH 600 0
DWIDTH 21 0
BBX 17 33 3 0
BITMAP
001000
007800
00F000
03C000
078000
020000
000000
FFE000
FFFC00
C0FE00
C00F00
C00780
C00380
C00380
C00180
C00180
C00180
C00380
C00380
C00700
C01F00
C7FE00
C3F800
C1C000
C1C000
C0E000
C07000
C07800
C03800
C01C00
C00E00
C00F00
C00700
ENDCHAR
STARTCHAR 0155
ENCODING 341
SWIDTH 314 0
DWIDTH 11 0
BBX 8 26 2 0
BITMAP
02
0F
1E
7C
F0
40
00
E3
EF
FC
F0
F0
E0
E0
E0
E0
E0
E0
E0
E0
E0
E0
E0
E0
E0
E0
ENDCHAR
STARTCHAR 0156
ENCODING 342
SWIDTH 600 0
DWIDTH 21 0
BBX 17 34 3 -8
BITMAP
FFE000
FFFC00
C0FE00
C00F00
C00780
C00380
C00380
C00180
C00180
C00180
C00380
C00380
C00700
C01F00
C7FE00
C3F800
C1C000
C1C000
C0E000
C07000
C07800
C03800
C01C00
C00E00
C00F00
C00700
000000
000000
018000
038000
038000
030000
070000
070000
ENDCHAR
STARTCHAR 0157
ENCODING 343
SWIDTH 314 0
DWIDTH 11 0
BBX 9 27 1 -8
BITMAP
7180
7780
7E00
7800
7800
7000
7000
7000
7000
7000
7000
7000
7000
7000
7000
7000
7000
7000
7000
0000
0000
7000
7000
6000
6000
E000
E000
ENDCHAR
STARTCHAR 0158
ENCODING 344
SWIDTH 600 0
DWIDTH 21 0
BBX 17 32 3 0
BITMAP
383800
1C7000
07E000
038000
000000
000000
FFE000
FFFC00
C0FE00
C00F00
C00780
C00380
C00380
C00180
C00180
C00180
C00380
C00380
C00700
C01F00
C7FE00
C3F800
C1C000
C1C000
C0E000
C07000
C07800
C03800
C01C00
C00E00
C00F00
C00700
ENDCHAR
STARTCHAR 0159
ENCODING 345
SWIDTH 314 0
DWIDTH 11 0
BBX 11 25 -1 0
BITMAP
E0E0
79C0
1F80
0F00
0000
0000
1C60
1DE0
1F80
1E00
1E00
1C00
1C00
1C00
1C00
1C00
1C00
1C00
1C00
1C00
1C00
1C00
1C00
1C00
1C00
ENDCHAR
STARTCHAR 015A
ENCODING 346
SWIDTH 485 0
DWIDTH 17 0
BBX 16 33 1 0
BITMAP
0010
0078
00F0
03E0
0780
0200
0000
07E0
1FF8
3EFC
381C
700E
600E
600E
6000
7000
7000
3800
3F00
0FE0
03F8
003C
000E
0006
0007
E007
E007
E006
F00E
781E
3E7C
1FF8
07E0
ENDCHAR
STARTCHAR 015B
ENCODING 347
SWIDTH 400 0
DWIDTH 14 0
BBX 12 26 1 0
BITMAP
0040
01E0
03C0
0F80
1E00
0800
0000
1F00
3FC0
7BE0
70E0
E0E0
E000
E000
7000
7E00
1F80
07C0
00E0
0060
C070
C060
E0E0
7BE0
7FC0
1F00
ENDCHAR
STARTCHAR 015C
ENCODING 348
SWIDTH 485 0
DWIDTH 17 0
BBX 16 32 1 0
BITMAP
0380
07C0
0EE0
1C70
3838
0000
07E0
1FF8
3EFC
381C
700E
600E
600E
6000
7000
7000
3800
3F00
0FE0
03F8
003C
000E
0006
0007
E007
E007
E006
F00E
781E
3E7C
1FF8
07E0
ENDCHAR
STARTCHAR 015D
ENCODING 349
SWIDTH 400 0
DWIDTH 14 0
BBX 12 25 1 0
BITMAP
0F00
1F80
79C0
E0E0
0000
0000
1F00
3FC0
7BE0
70E0
E0E0
E000
E000
7000
7E00
1F80
07C0
00E0
0060
C070
C060
E0E0
7BE0
7FC0
1F00
ENDCHAR
STARTCHAR 015E
ENCODING 350
SWIDTH 485 0
DWIDTH 17 0
BBX 16 34 1 -8
BITMAP
07E0
1FF8
3EFC
381C
700E
600E
600E
6000
7000
7000
3800
3F00
0FE0
03F8
003C
000E
0006
0007
E007
E007
E006
F00E
781E
3E7C
1FF8
07E0
0300
03E0
03F0
0030
0030
0630
03E0
03C0
ENDCHAR
STARTCHAR 015F
ENCODING 351
SWIDTH 400 0
DWIDTH 14 0
BBX 12 27 1 -8
BITMAP
1F00
3FC0
7BE0
70E0
E0E0
E000
E000
7000
7E00
1F80
07C0
00E0
0060
C070
C070
E0E0
7BE0
7FC0
1F80
0C00
0F80
0FC0
00C0
00C0
18C0
0FC0
0700
ENDCHAR
STARTCHAR 0160
ENCODING 352
SWIDTH 485 0
DWIDTH 17 0
BBX 16 32 1 0
BITMAP
3838
1C70
0EE0
07C0
0380
0000
07E0
1FF8
3EFC
381C
700E
600E
600E
6000
7000
7000
3800
3F00
0FE0
03F8
003C
000E
0006
0007
E007
E007
E006
F00E
781E
3E7C
1FF8
07E0
ENDCHAR
STARTCHAR 0161
ENCODING 353
SWIDTH 400 0
DWIDTH 14 0
BBX 12 25 1 0
BITMAP
E0E0
79C0
1F80
0F00
0000
0000
1F00
3FC0
7BE0
70E0
E0E0
E000
E000
7000
7E00
1F80
07C0
00E0
0060
C070
C060
E0E0
7BE0
7FC0
1F00
ENDCHAR
STARTCHAR 0162
ENCODING 354
SWIDTH 428 0
DWIDTH 15 0
BBX 15 35 0 -9
BITMAP
FFFE
FFFE
0380
0380
0380
0380
0380
0380
0380
0380
0380
0380
0380
0380
0380
0380
0380
0380
0380
0380
0380
0380
0380
0380
0380
0380
0100
0300
03E0
0270
0030
0030
0670
03E0
03C0
ENDCHAR
STARTCHAR 0163
ENCODING 355
SWIDTH 342 0
DWIDTH 12 0
BBX 11 35 0 -9
BITMAP
0600
0600
0600
0600
0600
0600
0600
FFE0
FFE0
0600
0600
0600
0600
0600
0600
0600
0600
0600
0600
0600
0600
0600
0600
0600
0600
0600
0600
0400
0FC0
04E0
0060
0060
0CE0
0FC0
0780
ENDCHAR
STARTCHAR 0164
ENCODING 356
SWIDTH 428 0
DWIDTH 15 0
BBX 15 32 0 0
BITMAP
3838
1CF0
0FC0
0380
0000
0000
FFFE
FFFE
0380
0380
0380
0380
0380
0380
0380
0380
0380
0380
0380
0380
0380
0380
0380
0380
0380
0380
0380
0380
0380
0380
0380
0380
ENDCHAR
STARTCHAR 0165
ENCODING 357
SWIDTH 342 0
DWIDTH 12 0
BBX 12 26 0 0
BITMAP
0630
0630
0670
0670
0660
06E0
0600
FFE0
FFE0
0600
0600
0600
0600
0600
0600
0600
0600
0600
0600
0600
0600
0600
0600
0600
0600
0600
ENDCHAR
STARTCHAR 0168
ENCODING 360
SWIDTH 657 0
DWIDTH 23 0
BBX 17 32 3 0
BITMAP
070800
0FD800
0CF800
087000
000000
000000
C00180
C00180
C00180
C00180
C00180
C00180
C00180
C00180
C00180
C00180
C00180
C00180
C00180
C00180
C00180
C00180
C00180
C00180
E00380
E00380
E00380
700700
780F00
3F7E00
1FFC00
07F000
ENDCHAR
STARTCHAR 0169
ENCODING 361
SWIDTH 600 0
DWIDTH 21 0
BBX 17 25 2 0
BITMAP
078800
0FFC00
0CF800
000000
000000
000000
E00380
E00380
E00380
E00380
E00380
E00380
E00380
E00380
E00380
E00380
E00380
E00380
E00380
600380
700780
700780
3C1F80
1FFB80
07E380
ENDCHAR
STARTCHAR 016A
ENCODING 362
SWIDTH 657 0
DWIDTH 23 0
BBX 17 31 3 0
BITMAP
1FFC00
1FFC00
000000
000000
000000
C00180
C00180
C00180
C00180
C00180
C00180
C00180
C00180
C00180
C00180
C00180
C00180
C00180
C00180
C00180
C00180
C00180
C00180
E00380
E00380
E00380
700700
780F00
3F7E00
1FFC00
07F000
ENDCHAR
STARTCHAR 016B
ENCODING 363
SWIDTH 600 0
DWIDTH 21 0
BBX 17 24 2 0
BITMAP
1FFE00
1FFE00
000000
000000
000000
E00380
E00380
E00380
E00380
E00380
E00380
E00380
E00380
E00380
E00380
E00380
E00380
E00380
600380
700780
700780
3C1F80
1FFB80
07E380
ENDCHAR
STARTCHAR 016C
ENCODING 364
SWIDTH 657 0
DWIDTH 23 0
BBX 17 32 3 0
BITMAP
1C1C00
0C1800
0FF800
03E000
000000
000000
C00180
C00180
C00180
C00180
C00180
C00180
C00180
C00180
C00180
C00180
C00180
C00180
C00180
C00180
C00180
C00180
C00180
C00180
E00380
E00380
E00380
700700
780F00
3F7E00
1FFC00
07F000
ENDCHAR
STARTCHAR 016D
ENCODING 365
SWIDTH 600 0
DWIDTH 21 0
BBX 17 25 2 0
BITMAP
1C0C00
0E1800
0FF800
03E000
000000
000000
E00380
E00380
E00380
E00380
E00380
E00380
E00380
E00380
E00380
E00380
E00380
E00380
E00380
600380
700780
700780
3C1F80
1FFB80
07E380
ENDCHAR
STARTCHAR 016E
ENCODING 366
SWIDTH 657 0
DWIDTH 23 0
BBX 17 34 3 0
BITMAP
01C000
03E000
063000
063000
063000
077000
03E000
000000
C00180
C00180
C00180
C00180
C00180
C00180
C00180
C00180
C00180
C00180
C00180
C00180
C00180
C00180
C00180
C00180
C00180
C00180
E00380
E00380
E00380
700700
780F00
3F7E00
1FFC00
07F000
ENDCHAR
STARTCHAR 016F
ENCODING 367
SWIDTH 600 0
DWIDTH 21 0
BBX 17 27 2 0
BITMAP
01E000
03F000
063000
061000
063000
03F000
01C000
000000
E00380
E00380
E00380
E00380
E00380
E00380
E00380
E00380
E00380
E00380
E00380
E00380
E00380
600380
700780
700780
3C1F80
1FFB80
07E380
ENDCHAR
STARTCHAR 0170
ENCODING 368
SWIDTH 657 0
DWIDTH 23 0
BBX 18 33 3 0
BITMAP
004080
00E1C0
03C780
078F00
0E1C00
040800
000000
C00180
C00180
C00180
C00180
C00180
C00180
C00180
C00180
C00180
C00180
C00180
C00180
C00180
C00180
C00180
C00180
C00180
C00180
E00380
E00380
E00380
700700
780F00
3F7E00
1FFC00
07F000
ENDCHAR
STARTCHAR 0171
ENCODING 369
SWIDTH 600 0
DWIDTH 21 0
BBX 18 26 2 0
BITMAP
004080
00E1C0
01C780
078F00
0E1C00
040800
000000
E00380
E00380
E00380
E00380
E00380
E00380
E00380
E00380
E00380
E00380
E00380
E00380
E00380
600380
700780
700780
3C1F80
1FFB80
07E380
ENDCHAR
STARTCHAR 0172
ENCODING 370
SWIDTH 657 0
DWIDTH 23 0
BBX 17 35 3 -9
BITMAP
C00180
C00180
C00180
C00180
C00180
C00180
C00180
C00180
C00180
C00180
C00180
C00180
C00180
C00180
C00180
C00180
C00180
C00180
E00380
E00380
E00380
700700
780F00
3F7E00
1FFC00
07F000
00E000
01C000
018000
018000
018000
01C000
01F800
00F800
003000
ENDCHAR
STARTCHAR 0173
ENCODING 371
SWIDTH 600 0
DWIDTH 21 0
BBX 18 28 2 -9
BITMAP
E00380
E00380
E00380
E00380
E00380
E00380
E00380
E00380
E00380
E00380
E00380
E00380
E00380
600380
700780
700780
3C1F80
1FFB80
07E380
000300
000600
000E00
000C00
000C00
000E00
000FC0
0007C0
000180
ENDCHAR
STARTCHAR 0174
ENCODING 372
SWIDTH 971 0
DWIDTH 34 0
BBX 33 32 0 0
BITMAP
0001E00000
0003F00000
000F380000
001C1C0000
0000000000
0000000000
E001C00380
6001C00380
7001E00380
7001E00300
3003E00700
3803F00700
3803700600
3803300E00
1807300E00
1C06380E00
1C06380C00
0C0E181C00
0E0E181C00
0E0C1C1800
0E0C1C1800
061C0C3800
071C0E3800
07180E3000
03380E7000
03B8067000
03B8076000
03B0076000
01F003E000
01F003E000
01F003C000
00E003C000
ENDCHAR
STARTCHAR 0175
ENCODING 373
SWIDTH 828 0
DWIDTH 29 0
BBX 29 26 0 0
BITMAP
00070000
000F8000
001DC000
0038E000
00707000
00000000
00000000
E0000038
60000030
70070070
30070060
38070060
380F80E0
180D80C0
1C0D81C0
1C1DC1C0
0C19C180
0E18C380
0638E300
0730E700
07306700
03707600
03E07E00
01E03C00
01E03C00
01E03C00
ENDCHAR
STARTCHAR 0176
ENCODING 374
SWIDTH 600 0
DWIDTH 21 0
BBX 20 32 0 0
BITMAP
007000
01F800
039E00
070700
000000
000000
E00030
700070
700060
3800E0
3801C0
1C01C0
1C0380
0E0380
0E0700
070700
070E00
038E00
019C00
01DC00
00F800
00F800
007000
007000
007000
007000
007000
007000
007000
007000
007000
007000
ENDCHAR
STARTCHAR 0177
ENCODING 375
SWIDTH 542 0
DWIDTH 19 0
BBX 17 33 1 -7
BITMAP
01C000
03E000
077000
0E3800
1C1C00
000000
000000
C00380
E00380
E00300
700700
700700
700E00
380E00
380C00
1C1C00
1C1800
1C3800
0E3800
0E7000
067000
076000
07E000
03C000
03C000
01C000
038000
038000
030000
070000
060000
0E0000
0E0000
ENDCHAR
STARTCHAR 0178
ENCODING 376
SWIDTH 600 0
DWIDTH 21 0
BBX 20 32 0 0
BITMAP
038C00
038C00
038C00
038C00
000000
000000
E00030
700070
700060
3800E0
3801C0
1C01C0
1C0380
0E0380
0E0700
070700
070E00
038E00
019C00
01DC00
00F800
00F800
007000
007000
007000
007000
007000
007000
007000
007000
007000
007000
ENDCHAR
STARTCHAR 0179
ENCODING 377
SWIDTH 485 0
DWIDTH 17 0
BBX 16 33 1 0
BITMAP
0010
0078
00F0
03C0
0780
0200
0000
FFFE
FFFE
000E
000E
001C
0038
0038
0070
0070
00E0
01C0
01C0
0380
0380
0700
0E00
0E00
1C00
1C00
3800
7000
7000
E000
E000
FFFF
FFFF
ENDCHAR
STARTCHAR 017A
ENCODING 378
SWIDTH 428 0
DWIDTH 15 0
BBX 15 27 0 0
BITMAP
0010
0070
01F0
03C0
0700
0600
0000
0000
7FFC
7FFC
001C
0038
0070
0060
00E0
01C0
0380
0380
0700
0E00
1C00
1C00
3800
7000
F000
FFFE
FFFE
ENDCHAR
STARTCHAR 017B
ENCODING 379
SWIDTH 485 0
DWIDTH 17 0
BBX 16 32 1 0
BITMAP
0380
0380
0380
0380
0000
0000
FFFE
FFFE
000E
000E
001C
0038
0038
0070
0070
00E0
01C0
01C0
0380
0380
0700
0E00
0E00
1C00
1C00
3800
7000
7000
E000
E000
FFFF
FFFF
ENDCHAR
STARTCHAR 017C
ENCODING 380
SWIDTH 428 0
DWIDTH 15 0
BBX 15 25 0 0
BITMAP
0380
0380
0380
0380
0000
0000
7FFC
7FFC
001C
0038
0070
0060
00E0
01C0
0380
0380
0700
0E00
1C00
1C00
3800
7000
F000
FFFE
FFFE
ENDCHAR
STARTCHAR 017D
ENCODING 381
SWIDTH 485 0
DWIDTH 17 0
BBX 16 32 1 0
BITMAP
3838
1C70
07E0
0380
0000
0000
FFFE
FFFE
000E
000E
001C
0038
0038
0070
0070
00E0
01C0
01C0
0380
0380
0700
0E00
0E00
1C00
1C00
3800
7000
7000
E000
E000
FFFF
FFFF
ENDCHAR
STARTCHAR 017E
ENCODING 382
SWIDTH 428 0
DWIDTH 15 0
BBX 15 26 0 0
BITMAP
3838
1C70
0EE0
07C0
0380
0000
0000
7FFC
7FFC
001C
0038
0070
0060
00E0
01C0
0380
0380
0700
0E00
1C00
1C00
3800
7000
F000
FFFE
FFFE
ENDCHAR
STARTCHAR 017F
ENCODING 383
SWIDTH 314 0
DWIDTH 11 0
BBX 10 26 1 0
BITMAP
01C0
07C0
0F80
1C00
1800
1800
1800
F800
F800
1800
1800
1800
1800
1800
1800
1800
1800
1800
1800
1800
1800
1800
1800
1800
1800
1800
ENDCHAR
STARTCHAR 018E
ENCODING 398
SWIDTH 542 0
DWIDTH 19 0
BBX 14 26 3 0
BITMAP
FFFC
FFFC
001C
001C
001C
001C
001C
001C
001C
001C
001C
001C
FFFC
FFFC
001C
001C
001C
001C
001C
001C
001C
001C
001C
001C
FFFC
FFFC
ENDCHAR
STARTCHAR 0192
ENCODING 402
SWIDTH 542 0
DWIDTH 19 0
BBX 18 33 1 -5
BITMAP
0003C0
0007C0
000E00
000C00
001C00
001800
001800
003800
03FF00
03FF00
003000
003000
007000
007000
006000
006000
006000
00E000
00E000
00E000
00C000
00C000
00C000
01C000
01C000
018000
018000
038000
038000
070000
0F0000
FE0000
F80000
ENDCHAR
STARTCHAR 01A0
ENCODING 416
SWIDTH 857 0
DWIDTH 30 0
BBX 27 26 2 0
BITMAP
003F8060
01FFF0E0
07F3F8E0
0F003DC0
1E000FC0
38000780
78000380
700001C0
E00001C0
E00000C0
E00000E0
C00000E0
C00000E0
C00000E0
C00000E0
E00000E0
E00000C0
E00001C0
700001C0
78000380
38000700
1E000E00
0F003C00
07F1F800
01FFF000
007F8000
ENDCHAR
STARTCHAR 01A1
ENCODING 417
SWIDTH 685 0
DWIDTH 24 0
BBX 22 19 1 0
BITMAP
01FC0C
07FF0C
0F879C
1C01D8
3800F8
700070
700070
600030
600030
E00030
600030
600030
700070
700070
3800E0
1C01E0
0F8FC0
07FF80
01FE00
ENDCHAR
STARTCHAR 01AF
ENCODING 431
SWIDTH 714 0
DWIDTH 25 0
BBX 21 26 3 0
BITMAP
C00198
C00198
C001B8
C001F0
C001F0
C001E0
C00180
C00180
C00180
C00180
C00180
C00180
C00180
C00180
C00180
C00180
C00180
C00180
C00180
E00380
E00380
700700
780F00
3E3E00
1FFC00
07E000
ENDCHAR
STARTCHAR 01B0
ENCODING 432
SWIDTH 685 0
DWIDTH 24 0
BBX 21 19 2 0
BITMAP
E00398
E00398
E003B8
E003F0
E003E0
E003C0
E00380
E00380
E00380
E00380
E00380
E00380
E00380
600380
700780
780F80
3E3F80
1FFB80
07E380
ENDCHAR
STARTCHAR 01DD
ENCODING 477
SWIDTH 657 0
DWIDTH 23 0
BBX 19 19 2 0
BITMAP
03F800
0FFE00
1F3F00
380780
7001C0
E000C0
0000E0
000060
000060
FFFFE0
FFFFE0
C00060
E000E0
E000C0
7001C0
380380
1FBF00
0FFE00
03F800
ENDCHAR
STARTCHAR 01E6
ENCODING 486
SWIDTH 885 0
DWIDTH 31 0
BBX 27 32 2 0
BITMAP
00E0E000
0071C000
003B8000
001F0000
000E0000
00000000
003F8000
01FFF000
07F3FC00
0F003E00
1E000F00
38000780
70000380
70000000
E0000000
E0000000
C0000000
C0000000
C0000000
C0000000
C03FFFE0
E03FFFE0
E00000E0
E00000C0
700001C0
78000380
38000780
1E000F00
0F001E00
07F1FC00
01FFF000
003F8000
ENDCHAR
STARTCHAR 01E7
ENCODING 487
SWIDTH 685 0
DWIDTH 24 0
BBX 20 32 1 -7
BITMAP
070700
039E00
01F800
00F000
000000
000000
01FC30
07FF30
0F9FB0
1C03F0
3800F0
700070
700070
600030
600030
E00030
600030
600070
700070
700070
3800F0
1E03B0
0F8FB0
07FE30
01FC30
700070
380070
3800E0
1E01E0
0FCFC0
07FF00
01FC00
ENDCHAR
STARTCHAR 01EA
ENCODING 490
SWIDTH 857 0
DWIDTH 30 0
BBX 27 35 2 -9
BITMAP
003F8000
01FFF000
07F3F800
0F003E00
1E000F00
38000700
78000380
700001C0
E00001C0
E00000C0
E00000E0
C00000E0
C00000E0
C00000E0
C00000E0
E00000E0
E00000C0
E00001C0
700001C0
78000380
38000700
1E000E00
0F003C00
07F1F800
01FFE000
007F8000
00070000
000E0000
000C0000
000C0000
001C0000
000E0000
000F8000
00078000
00018000
ENDCHAR
STARTCHAR 01EB
ENCODING 491
SWIDTH 657 0
DWIDTH 23 0
BBX 20 28 1 -9
BITMAP
01FC00
07FF00
0F8F80
1C03C0
3800E0
700070
700070
600030
600030
E00030
600030
600030
700070
700070
3800E0
1C01C0
0F8F80
07FF00
01FE00
001800
003000
007000
007000
007000
007000
003E00
003E00
000400
ENDCHAR
STARTCHAR 01F4
ENCODING 500
SWIDTH 885 0
DWIDTH 31 0
BBX 27 33 2 0
BITMAP
00004000
0001C000
0007C000
000F0000
001C0000
00180000
00000000
003F8000
01FFF000
07F3FC00
0F003E00
1E000F00
38000780
70000380
70000000
E0000000
E0000000
C0000000
C0000000
C0000000
C0000000
C03FFFE0
E03FFFE0
E00000E0
E00000C0
700001C0
78000380
38000780
1E000F00
0F001E00
07F1FC00
01FFF000
003F8000
ENDCHAR
STARTCHAR 01F5
ENCODING 501
SWIDTH 685 0
DWIDTH 24 0
BBX 20 33 1 -7
BITMAP
000200
000E00
003E00
007800
00E000
00C000
000000
01FC30
07FF30
0F9FB0
1C03F0
3800F0
700070
700070
600030
600030
E00030
600030
600070
700070
700070
3800F0
1E03B0
0F8FB0
07FE30
01FC30
700070
380070
3800E0
1E01E0
0FCFC0
07FF00
01FC00
ENDCHAR
STARTCHAR 01FA
ENCODING 506
SWIDTH 742 0
DWIDTH 26 0
BBX 24 41 1 0
BITMAP
000100
000380
000F00
003E00
003800
002000
000000
003C00
006600
004200
00C200
004600
007E00
001800
000000
003C00
003C00
007C00
007E00
006600
00E700
00C700
01C380
01C380
038180
0381C0
0301C0
0700E0
0600E0
0E0070
0FFFF0
1FFFF0
1C0038
180038
38001C
38001C
70000E
70000E
E00006
E00007
C00007
ENDCHAR
STARTCHAR 01FB
ENCODING 507
SWIDTH 685 0
DWIDTH 24 0
BBX 21 33 1 0
BITMAP
000200
000F00
003E00
007800
00F000
004000
000000
00F800
00DC00
018C00
018C00
018C00
00F800
007000
01FC38
07FF38
0F8FB8
1E01F8
3800F8
700078
700078
600038
600038
E00038
600038
600038
700038
700078
3800F8
1C01F8
0F03B8
07FF38
01FC38
ENDCHAR
STARTCHAR 01FC
ENCODING 508
SWIDTH 1000 0
DWIDTH 35 0
BBX 32 33 1 0
BITMAP
00000100
00000700
00001F00
00003C00
00007000
00002000
00000000
00007FFF
0000FFFF
0000F800
0001F800
0003B800
0007B800
00073800
000E3800
001E3800
001C3800
00383800
00783800
00703FFE
00E03FFE
01E03800
01FFF800
03FFF800
07003800
07003800
0E003800
1C003800
3C003800
38003800
70003800
E0003FFF
E0003FFF
ENDCHAR
STARTCHAR 01FD
ENCODING 509
SWIDTH 1171 0
DWIDTH 41 0
BBX 38 27 1 0
BITMAP
0000010000
0000070000
00001F0000
00003C0000
0000700000
0000600000
0000000000
0000000000
01FC387F00
07FF39FFC0
0F03BB81E0
1C01FF0070
3800FC0038
70007C0018
7000380018
600038001C
60003FFFFC
E0003FFFFC
6000387FFC
6000380000
7000380000
70007C0018
3800FE0038
1E01FF00F0
0F8FBFF7E0
07FF39FFC0
01FC387E00
ENDCHAR
STARTCHAR 01FE
ENCODING 510
SWIDTH 857 0
DWIDTH 30 0
BBX 27 35 2 -2
BITMAP
0000C000
0001C000
0007C000
001F0000
001C0000
00180100
00000380
007F8700
01FFF700
07F3FE00
0F003C00
1C003F00
38003F00
70007380
7000E1C0
E001C1C0
E00380C0
E00380E0
C00700E0
C00E00E0
C01C00E0
C01C00E0
C03800E0
E07000C0
E0E001C0
71C001C0
71C00380
3B800700
1F000F00
0F003E00
0FF1F800
1DFFF000
387F8000
70000000
20000000
ENDCHAR
STARTCHAR 01FF
ENCODING 511
SWIDTH 657 0
DWIDTH 23 0
BBX 20 27 1 -1
BITMAP
000200
000E00
003E00
007800
00F000
004000
000040
01FCE0
07FFE0
0F9FC0
1E03C0
3807E0
700E70
701C70
601C30
603830
E07030
60E030
61C070
738070
738060
3F00E0
1E01C0
1F8F80
3FFF00
39FC00
100000
ENDCHAR
STARTCHAR 0200
ENCODING 512
SWIDTH 742 0
DWIDTH 26 0
BBX 24 33 1 0
BITMAP
102000
1C7800
1E3C00
078E00
03C700
008100
000000
003C00
003C00
007C00
007E00
006600
00E700
00C700
01C380
01C380
038180
0381C0
0301C0
0700E0
0600E0
0E0070
0FFFF0
1FFFF0
1C0038
180038
38001C
38001C
70000E
70000E
E00006
E00007
C00007
ENDCHAR
STARTCHAR 0201
ENCODING 513
SWIDTH 685 0
DWIDTH 24 0
BBX 21 26 1 0
BITMAP
204000
70E000
3C7800
1E3C00
070E00
020400
000000
01FC38
07FF38
0F8FB8
1E01F8
3800F8
700078
700078
600038
600038
E00038
600038
600038
700038
700078
3800F8
1C01F8
0F03B8
07FF38
01FC38
ENDCHAR
STARTCHAR 0204
ENCODING 516
SWIDTH 542 0
DWIDTH 19 0
BBX 17 33 0 0
BITMAP
408000
F1C000
78F000
1C3800
0E1C00
020C00
000000
1FFF80
1FFF80
180000
180000
180000
180000
180000
180000
180000
180000
180000
180000
1FFF00
1FFF00
180000
180000
180000
180000
180000
180000
180000
180000
180000
180000
1FFF80
1FFF80
ENDCHAR
STARTCHAR 0205
ENCODING 517
SWIDTH 657 0
DWIDTH 23 0
BBX 20 26 1 0
BITMAP
204000
70E000
3C7000
1E3C00
070E00
020400
000000
01FC00
07FF00
0FDF80
1C01C0
3800E0
700060
700070
600030
7FFFF0
FFFFF0
600000
600000
700000
700070
3800E0
1C01C0
0F8F80
07FF00
01FC00
ENDCHAR
STARTCHAR 0208
ENCODING 520
SWIDTH 228 0
DWIDTH 8 0
BBX 13 33 -5 0
BITMAP
8100
E3C0
F1E0
3C70
1E38
0408
0000
00C0
00C0
00C0
00C0
00C0
00C0
00C0
00C0
00C0
00C0
00C0
00C0
00C0
00C0
00C0
00C0
00C0
00C0
00C0
00C0
00C0
00C0
00C0
00C0
00C0
00C0
ENDCHAR
STARTCHAR 0209
ENCODING 521
SWIDTH 200 0
DWIDTH 7 0
BBX 14 26 -6 0
BITMAP
4080
E1C0
78F0
3C78
0E1C
0408
0000
00E0
00E0
00E0
00E0
00E0
00E0
00E0
00E0
00E0
00E0
00E0
00E0
00E0
00E0
00E0
00E0
00E0
00E0
00E0
ENDCHAR
STARTCHAR 020C
ENCODING 524
SWIDTH 857 0
DWIDTH 30 0
BBX 27 33 2 0
BITMAP
04180000
0E1C0000
070E0000
03C78000
00E3C000
00408000
00000000
003F8000
01FFF000
07F3F800
0F003E00
1E000F00
38000700
78000380
700001C0
E00001C0
E00000C0
E00000E0
C00000E0
C00000E0
C00000E0
C00000E0
E00000E0
E00000C0
E00001C0
700001C0
78000380
38000700
1E000E00
0F003C00
07F1F800
01FFF000
007F8000
ENDCHAR
STARTCHAR 020D
ENCODING 525
SWIDTH 657 0
DWIDTH 23 0
BBX 20 26 1 0
BITMAP
204000
70E000
3C7800
1E3C00
070E00
020400
000000
01FC00
07FF00
0F8F80
1C03C0
3800E0
700070
700070
600030
600030
E00030
600030
600030
700070
700070
3800E0
1C01C0
0F8F80
07FF00
01FC00
ENDCHAR
STARTCHAR 0210
ENCODING 528
SWIDTH 600 0
DWIDTH 21 0
BBX 19 33 1 0
BITMAP
408000
E1C000
78F000
1C7800
0E1C00
060800
000000
3FF800
3FFF00
303F80
3003C0
3001E0
3000E0
3000E0
300060
300060
300060
3000E0
3000E0
3001C0
3007C0
31FF80
30FE00
307000
307000
303800
301C00
301E00
300E00
300700
300380
3003C0
3001C0
ENDCHAR
STARTCHAR 0211
ENCODING 529
SWIDTH 314 0
DWIDTH 11 0
BBX 15 26 -5 0
BITMAP
4080
F1E0
78F0
1C38
0E1C
020C
0000
01C6
01DE
01F8
01E0
01E0
01C0
01C0
01C0
01C0
01C0
01C0
01C0
01C0
01C0
01C0
01C0
01C0
01C0
01C0
ENDCHAR
STARTCHAR 0214
ENCODING 532
SWIDTH 657 0
DWIDTH 23 0
BBX 18 33 2 0
BITMAP
408000
E1C000
78F000
3C7800
0E1C00
040800
000000
6000C0
6000C0
6000C0
6000C0
6000C0
6000C0
6000C0
6000C0
6000C0
6000C0
6000C0
6000C0
6000C0
6000C0
6000C0
6000C0
6000C0
6000C0
7001C0
7001C0
7001C0
380380
3C0780
1FBF00
0FFE00
03F800
ENDCHAR
STARTCHAR 0215
ENCODING 533
SWIDTH 600 0
DWIDTH 21 0
BBX 18 26 1 0
BITMAP
408000
E1C000
78F000
1C7800
0E1C00
060800
000000
7001C0
7001C0
7001C0
7001C0
7001C0
7001C0
7001C0
7001C0
7001C0
7001C0
7001C0
7001C0
7001C0
3001C0
3803C0
3803C0
1E0FC0
0FFDC0
03F1C0
ENDCHAR
STARTCHAR 0218
ENCODING 536
SWIDTH 485 0
DWIDTH 17 0
BBX 16 33 1 -7
BITMAP
07E0
1FF8
3EFC
381C
700E
600E
600E
6000
7000
7000
3800
3F00
0FE0
03F8
003C
000E
0006
0007
E007
E007
E006
F00E
781E
3E7C
1FF8
07E0
0000
0180
0380
0380
0300
0300
0700
ENDCHAR
STARTCHAR 0219
ENCODING 537
SWIDTH 400 0
DWIDTH 14 0
BBX 12 26 1 -7
BITMAP
1F00
3FC0
7BE0
70E0
E0E0
E000
E000
7000
7E00
1F80
07C0
00E0
0060
C070
C060
E0E0
7BE0
7FC0
1F00
0000
0600
0E00
0E00
0C00
0C00
1C00
ENDCHAR
STARTCHAR 021A
ENCODING 538
SWIDTH 428 0
DWIDTH 15 0
BBX 15 34 0 -8
BITMAP
FFFE
FFFE
0380
0380
0380
0380
0380
0380
0380
0380
0380
0380
0380
0380
0380
0380
0380
0380
0380
0380
0380
0380
0380
0380
0380
0380
0000
0000
0380
0380
0300
0300
0700
0700
ENDCHAR
STARTCHAR 021B
ENCODING 539
SWIDTH 342 0
DWIDTH 12 0
BBX 11 34 0 -8
BITMAP
0600
0600
0600
0600
0600
0600
0600
FFE0
FFE0
0600
0600
0600
0600
0600
0600
0600
0600
0600
0600
0600
0600
0600
0600
0600
0600
0600
0000
0000
0600
0600
0E00
0E00
0C00
1C00
ENDCHAR
STARTCHAR 0258
ENCODING 600
SWIDTH 657 0
DWIDTH 23 0
BBX 19 19 2 0
BITMAP
03F800
0FFE00
1FBF00
380380
7001C0
6000E0
E000E0
C00060
FFFFE0
FFFFE0
000060
000060
0000E0
E000C0
7001C0
380380
1F3F00
0FFE00
03F000
ENDCHAR
STARTCHAR 0259
ENCODING 601
SWIDTH 657 0
DWIDTH 23 0
BBX 19 19 2 0
BITMAP
03F800
0FFE00
1F3F00
380780
7001C0
E000C0
0000E0
000060
000060
FFFFE0
FFFFE0
C00060
E000E0
E000C0
7001C0
380380
1FBF00
0FFE00
03F800
ENDCHAR
STARTCHAR 02BE
ENCODING 702
SWIDTH 514 0
DWIDTH 18 0
BBX 14 14 2 11
BITMAP
0F80
3FE0
78F0
7038
E01C
001C
000C
000C
001C
E01C
7038
7870
3FE0
0F80
ENDCHAR
STARTCHAR 02BF
ENCODING 703
SWIDTH 514 0
DWIDTH 18 0
BBX 14 14 2 11
BITMAP
07C0
1FF0
3C78
701C
601C
E000
E000
E000
E000
601C
701C
3C78
1FF0
07C0
ENDCHAR
STARTCHAR 02C6
ENCODING 710
SWIDTH 514 0
DWIDTH 18 0
BBX 11 5 3 21
BITMAP
0E00
1F00
3B80
71C0
E0E0
ENDCHAR
STARTCHAR 02C7
ENCODING 711
SWIDTH 514 0
DWIDTH 18 0
BBX 11 5 3 21
BITMAP
E0E0
71C0
3B80
1F00
0E00
ENDCHAR
STARTCHAR 02D8
ENCODING 728
SWIDTH 457 0
DWIDTH 16 0
BBX 10 5 3 21
BITMAP
C0C0
C0C0
E1C0
7F80
3F00
ENDCHAR
STARTCHAR 02D9
ENCODING 729
SWIDTH 228 0
DWIDTH 8 0
BBX 2 4 3 21
BITMAP
C0
C0
C0
C0
ENDCHAR
STARTCHAR 02DA
ENCODING 730
SWIDTH 342 0
DWIDTH 12 0
BBX 7 7 2 21
BITMAP
7C
66
C2
C2
66
7C
10
ENDCHAR
STARTCHAR 02DB
ENCODING 731
SWIDTH 314 0
DWIDTH 11 0
BBX 6 9 2 -9
BITMAP
38
70
60
E0
E0
E0
7C
3C
0C
ENDCHAR
STARTCHAR 02DC
ENCODING 732
SWIDTH 428 0
DWIDTH 15 0
BBX 10 3 3 22
BITMAP
7880
FFC0
C780
ENDCHAR
STARTCHAR 02DD
ENCODING 733
SWIDTH 542 0
DWIDTH 19 0
BBX 14 6 5 20
BITMAP
0408
0E1C
1C78
78F0
E1C0
4080
ENDCHAR
STARTCHAR 0300
ENCODING 768
SWIDTH 0 0
DWIDTH 0 0
BBX 7 6 -17 21
BITMAP
40
E0
78
3E
0E
02
ENDCHAR
STARTCHAR 0301
ENCODING 769
SWIDTH 0 0
DWIDTH 0 0
BBX 7 6 -14 21
BITMAP
04
0E
3E
F8
E0
80
ENDCHAR
STARTCHAR 0302
ENCODING 770
SWIDTH 0 0
DWIDTH 0 0
BBX 12 5 -18 21
BITMAP
0F00
1F80
3DC0
78E0
F070
ENDCHAR
STARTCHAR 0303
ENCODING 771
SWIDTH 0 0
DWIDTH 0 0
BBX 10 3 -17 22
BITMAP
7880
FFC0
4780
ENDCHAR
STARTCHAR 0304
ENCODING 772
SWIDTH 0 0
DWIDTH 0 0
BBX 12 2 -18 22
BITMAP
FFF0
FFF0
ENDCHAR
STARTCHAR 0306
ENCODING 774
SWIDTH 0 0
DWIDTH 0 0
BBX 10 5 -17 21
BITMAP
C0C0
C0C0
E1C0
7F80
3F00
ENDCHAR
STARTCHAR 0307
ENCODING 775
SWIDTH 0 0
DWIDTH 0 0
BBX 2 4 -13 21
BITMAP
C0
C0
C0
C0
ENDCHAR
STARTCHAR 0308
ENCODING 776
SWIDTH 0 0
DWIDTH 0 0
BBX 8 4 -16 21
BITMAP
E7
E7
E7
E7
ENDCHAR
STARTCHAR 0309
ENCODING 777
SWIDTH 0 0
DWIDTH 0 0
BBX 7 7 -15 21
BITMAP
38
FC
CE
8E
1C
18
30
ENDCHAR
STARTCHAR 030A
ENCODING 778
SWIDTH 0 0
DWIDTH 0 0
BBX 7 6 -15 21
BITMAP
7C
CC
86
86
CC
FC
ENDCHAR
STARTCHAR 030B
ENCODING 779
SWIDTH 0 0
DWIDTH 0 0
BBX 13 6 -16 20
BITMAP
0408
1E38
3C78
71E0
E3C0
8100
ENDCHAR
STARTCHAR 030C
ENCODING 780
SWIDTH 0 0
DWIDTH 0 0
BBX 12 5 -18 21
BITMAP
E070
79E0
3FC0
1F80
0F00
ENDCHAR
STARTCHAR 030F
ENCODING 783
SWIDTH 0 0
DWIDTH 0 0
BBX 14 6 -21 20
BITMAP
C100
E1C0
71E0
3C78
1E3C
0408
ENDCHAR
STARTCHAR 0311
ENCODING 785
SWIDTH 0 0
DWIDTH 0 0
BBX 10 4 -17 22
BITMAP
3F00
7F80
E1C0
C0C0
ENDCHAR
STARTCHAR 0323
ENCODING 803
SWIDTH 0 0
DWIDTH 0 0
BBX 2 4 -13 -6
BITMAP
C0
C0
C0
C0
ENDCHAR
STARTCHAR 0326
ENCODING 806
SWIDTH 0 0
DWIDTH 0 0
BBX 4 6 -14 -8
BITMAP
70
60
E0
E0
C0
C0
ENDCHAR
STARTCHAR 032E
ENCODING 814
SWIDTH 0 0
DWIDTH 0 0
BBX 10 4 -17 -6
BITMAP
C0C0
E1C0
7F80
3F00
ENDCHAR
STARTCHAR 032F
ENCODING 815
SWIDTH 0 0
DWIDTH 0 0
BBX 10 4 -17 -6
BITMAP
3F00
7F80
E1C0
C0C0
ENDCHAR
STARTCHAR 0330
ENCODING 816
SWIDTH 0 0
DWIDTH 0 0
BBX 10 3 -17 -6
BITMAP
7C80
FFC0
4780
ENDCHAR
STARTCHAR 0331
ENCODING 817
SWIDTH 0 0
DWIDTH 0 0
BBX 12 2 -18 -5
BITMAP
FFF0
FFF0
ENDCHAR
STARTCHAR 0332
ENCODING 818
SWIDTH 0 0
DWIDTH 0 0
BBX 12 2 -18 -5
BITMAP
FFF0
FFF0
ENDCHAR
STARTCHAR 0391
ENCODING 913
SWIDTH 742 0
DWIDTH 26 0
BBX 24 26 1 0
BITMAP
003C00
003C00
007C00
007E00
006600
00E700
00C700
01C380
01C380
038180
0381C0
0301C0
0700E0
0600E0
0E0070
0FFFF0
1FFFF0
1C0038
180038
38001C
38001C
70000E
70000E
E00006
E00007
C00007
ENDCHAR
STARTCHAR 0392
ENCODING 914
SWIDTH 571 0
DWIDTH 20 0
BBX 16 26 3 0
BITMAP
FFC0
FFF0
C1F8
C01C
C00C
C00E
C00E
C00E
C00C
C01C
C038
FFF0
FFF8
C07C
C00E
C007
C007
C007
C007
C007
C007
C007
C00E
C0FC
FFF8
FFE0
ENDCHAR
STARTCHAR 0393
ENCODING 915
SWIDTH 485 0
DWIDTH 17 0
BBX 13 26 3 0
BITMAP
FFF8
FFF8
C000
C000
C000
C000
C000
C000
C000
C000
C000
C000
C000
C000
C000
C000
C000
C000
C000
C000
C000
C000
C000
C000
C000
C000
ENDCHAR
STARTCHAR 0394
ENCODING 916
SWIDTH 657 0
DWIDTH 23 0
BBX 22 24 0 0
BITMAP
003800
007800
007C00
007C00
00EC00
00EE00
01CE00
01C700
038700
038380
038380
070380
0701C0
0E01C0
0E00E0
0E00E0
1C00F0
1C0070
380070
380038
780038
7FFFFC
7FFFFC
FFFFFC
ENDCHAR
STARTCHAR 0395
ENCODING 917
SWIDTH 542 0
DWIDTH 19 0
BBX 14 26 3 0
BITMAP
FFFC
FFFC
C000
C000
C000
C000
C000
C000
C000
C000
C000
C000
FFF8
FFF8
C000
C000
C000
C000
C000
C000
C000
C000
C000
C000
FFFC
FFFC
ENDCHAR
STARTCHAR 0396
ENCODING 918
SWIDTH 485 0
DWIDTH 17 0
BBX 16 26 1 0
BITMAP
FFFE
FFFE
000E
000E
001C
0038
0038
0070
0070
00E0
01C0
01C0
0380
0380
0700
0E00
0E00
1C00
1C00
3800
7000
7000
E000
E000
FFFF
FFFF
ENDCHAR
STARTCHAR 0397
ENCODING 919
SWIDTH 685 0
DWIDTH 24 0
BBX 18 26 3 0
BITMAP
C000C0
C000C0
C000C0
C000C0
C000C0
C000C0
C000C0
C000C0
C000C0
C000C0
C000C0
C000C0
FFFFC0
FFFFC0
C000C0
C000C0
C000C0
C000C0
C000C0
C000C0
C000C0
C000C0
C000C0
C000C0
C000C0
C000C0
ENDCHAR
STARTCHAR 0398
ENCODING 920
SWIDTH 857 0
DWIDTH 30 0
BBX 27 26 2 0
BITMAP
003F8000
01FFF000
07F3F800
0F003E00
1E000F00
38000700
70000380
700001C0
E00001C0
E00000C0
C00000E0
C0FFC0E0
C0FFC0E0
C0FFC0E0
C00000E0
E00000E0
E00000C0
E00001C0
700001C0
78000380
3C000700
1E000E00
0F003C00
07F1F800
01FFE000
007F8000
ENDCHAR
STARTCHAR 0399
ENCODING 921
SWIDTH 228 0
DWIDTH 8 0
BBX 2 26 3 0
BITMAP
C0
C0
C0
C0
C0
C0
C0
C0
C0
C0
C0
C0
C0
C0
C0
C0
C0
C0
C0
C0
C0
C0
C0
C0
C0
C0
ENDCHAR
STARTCHAR 039A
ENCODING 922
SWIDTH 600 0
DWIDTH 21 0
BBX 17 26 3 0
BITMAP
C00380
C00700
C00E00
C01E00
C01C00
C03800
C07000
C0E000
C1E000
C1C000
C38000
C70000
CE0000
DF0000
DF8000
FB8000
F1C000
E0E000
E0F000
C07000
C03800
C01C00
C00E00
C00F00
C00700
C00380
ENDCHAR
STARTCHAR 039B
ENCODING 923
SWIDTH 742 0
DWIDTH 26 0
BBX 24 26 1 0
BITMAP
003C00
003C00
007C00
007E00
006600
00E700
00C700
01C380
01C380
038180
0381C0
0300C0
0700E0
0600E0
0E0070
0E0070
1C0030
1C0038
180038
38001C
30001C
70000E
70000E
E00006
E00007
C00007
ENDCHAR
STARTCHAR 039C
ENCODING 924
SWIDTH 914 0
DWIDTH 32 0
BBX 27 26 3 0
BITMAP
F00003E0
F00003E0
F80007E0
D80007E0
DC0006E0
DC000EE0
CC000CE0
CE001CE0
C6001CE0
C70038E0
C70038E0
C38030E0
C38070E0
C18060E0
C1C0E0E0
C0C0E0E0
C0E1C0E0
C0E1C0E0
C07180E0
C07380E0
C03300E0
C03F00E0
C03F00E0
C01E00E0
C01E00E0
C00C00E0
ENDCHAR
STARTCHAR 039D
ENCODING 925
SWIDTH 742 0
DWIDTH 26 0
BBX 20 26 3 0
BITMAP
F00030
F00030
F80030
FC0030
DC0030
CE0030
CF0030
C70030
C38030
C1C030
C1C030
C0E030
C07030
C07030
C03830
C01C30
C01C30
C00E30
C00730
C00730
C003B0
C001F0
C001F0
C000F0
C00070
C00070
ENDCHAR
STARTCHAR 039E
ENCODING 926
SWIDTH 685 0
DWIDTH 24 0
BBX 22 26 1 0
BITMAP
FFFFFC
FFFFFC
FFFFFC
000000
000000
000000
000000
000000
000000
000000
000000
1FFFE0
1FFFE0
1FFFE0
000000
000000
000000
000000
000000
000000
000000
000000
000000
FFFFFC
FFFFFC
FFFFFC
ENDCHAR
STARTCHAR 039F
ENCODING 927
SWIDTH 857 0
DWIDTH 30 0
BBX 27 26 2 0
BITMAP
003F8000
01FFF000
07F3F800
0F003E00
1E000F00
38000700
78000380
700001C0
E00001C0
E00000C0
E00000E0
C00000E0
C00000E0
C00000E0
C00000E0
E00000E0
E00000C0
E00001C0
700001C0
78000380
38000700
1E000E00
0F003C00
07F1F800
01FFF000
007F8000
ENDCHAR
STARTCHAR 03A0
ENCODING 928
SWIDTH 628 0
DWIDTH 22 0
BBX 19 24 2 0
BITMAP
FFFFE0
FFFFE0
FFFFE0
E000E0
E000E0
E000E0
E000E0
E000E0
E000E0
E000E0
E000E0
E000E0
E000E0
E000E0
E000E0
E000E0
E000E0
E000E0
E000E0
E000E0
E000E0
E000E0
E000E0
E000E0
ENDCHAR
STARTCHAR 03A1
ENCODING 929
SWIDTH 600 0
DWIDTH 21 0
BBX 17 26 3 0
BITMAP
FFF000
FFFC00
C07E00
C00F00
C00700
C00380
C00380
C00380
C00380
C00380
C00300
C00700
C01E00
FFFE00
FFF800
C00000
C00000
C00000
C00000
C00000
C00000
C00000
C00000
C00000
C00000
C00000
ENDCHAR
STARTCHAR 03A3
ENCODING 931
SWIDTH 457 0
DWIDTH 16 0
BBX 16 24 0 0
BITMAP
7FFE
7FFE
7FFE
7000
3800
3C00
1C00
0E00
0F00
0700
0780
0380
0380
0700
0700
0E00
1E00
1C00
3800
3800
7000
FFFF
FFFF
FFFF
ENDCHAR
STARTCHAR 03A4
ENCODING 932
SWIDTH 428 0
DWIDTH 15 0
BBX 15 26 0 0
BITMAP
FFFE
FFFE
0380
0380
0380
0380
0380
0380
0380
0380
0380
0380
0380
0380
0380
0380
0380
0380
0380
0380
0380
0380
0380
0380
0380
0380
ENDCHAR
STARTCHAR 03A5
ENCODING 933
SWIDTH 600 0
DWIDTH 21 0
BBX 20 26 0 0
BITMAP
E00030
700070
700060
3800E0
3801C0
1C01C0
1C0380
0E0380
0E0700
070700
070E00
038E00
019C00
01DC00
00F800
00F800
007000
007000
007000
007000
007000
007000
007000
007000
007000
007000
ENDCHAR
STARTCHAR 03A6
ENCODING 934
SWIDTH 800 0
DWIDTH 28 0
BBX 24 26 2 0
BITMAP
001800
001800
001800
001800
001800
007F00
07FFE0
1FFFF8
3E187C
78180E
701807
E01807
E01807
E01803
E01807
701807
78180E
3E183C
1FFFF8
07FFE0
007E00
001800
001800
001800
001800
001800
ENDCHAR
STARTCHAR 03A7
ENCODING 935
SWIDTH 600 0
DWIDTH 21 0
BBX 20 26 1 0
BITMAP
E000E0
7000E0
7001C0
380380
1C0380
1C0700
0E0E00
070E00
071C00
03B800
01F800
01F000
00E000
00F000
01F000
03B800
039C00
071C00
0E0E00
0E0700
1C0700
380380
3801C0
7001C0
E000E0
E00070
ENDCHAR
STARTCHAR 03A8
ENCODING 936
SWIDTH 800 0
DWIDTH 28 0
BBX 24 26 2 0
BITMAP
E01807
E01807
E01807
E01807
E01807
E01807
E01807
E01807
E01806
601806
70180E
70180C
38181C
1E1878
0F99F0
07FFE0
01FF80
003C00
001800
001800
001800
001800
001800
001800
001800
001800
ENDCHAR
STARTCHAR 03A9
ENCODING 937
SWIDTH 800 0
DWIDTH 28 0
BBX 26 24 1 0
BITMAP
003F8000
01FFE000
07FFF800
0F807C00
1E001E00
3C000F00
38000700
70000380
70000380
600001C0
E00001C0
E00001C0
E00001C0
E00001C0
E00001C0
70000380
70000380
78000780
3C000F00
1E001E00
0F003C00
3FC0FF00
3FC0FF00
3FC0FF00
ENDCHAR
STARTCHAR 03B1
ENCODING 945
SWIDTH 714 0
DWIDTH 25 0
BBX 21 19 2 0
BITMAP
01F038
07FC70
1FFE70
3C0E60
3807E0
7003E0
7003C0
6003C0
E001C0
E001C0
E00180
E003C0
6003C0
7003C0
3807C0
3C0EE0
1FFCF8
0FF878
03F038
ENDCHAR
STARTCHAR 03B2
ENCODING 946
SWIDTH 485 0
DWIDTH 17 0
BBX 14 33 1 -7
BITMAP
07C0
0FE0
1FF0
3838
3838
7018
7018
7018
7038
7078
70F0
77E0
77C0
73F0
7070
7038
7018
701C
701C
701C
701C
7038
7038
7FF0
7FE0
77C0
7000
7000
7000
7000
6000
6000
E000
ENDCHAR
STARTCHAR 03B3
ENCODING 947
SWIDTH 485 0
DWIDTH 17 0
BBX 19 25 0 -6
BITMAP
F000E0
7801C0
3801C0
1C0180
1E0380
0E0380
070700
070700
038E00
038E00
038C00
01DC00
01DC00
01F800
00F800
00F000
00F000
00E000
00E000
00E000
00E000
00E000
00E000
00E000
00E000
ENDCHAR
STARTCHAR 03B4
ENCODING 948
SWIDTH 685 0
DWIDTH 24 0
BBX 20 26 2 0
BITMAP
1FFF80
1FFF80
1E0000
078000
03E000
00F000
007C00
07FE00
0FFF80
1E03C0
3801E0
7000E0
700070
600070
E00070
E00030
E00030
E00070
600070
700070
7000E0
3800E0
3C03C0
1F8F80
07FF00
01FC00
ENDCHAR
STARTCHAR 03B5
ENCODING 949
SWIDTH 571 0
DWIDTH 20 0
BBX 17 21 2 -1
BITMAP
07F000
1FFF00
3FFF00
780300
700000
600000
600000
700000
3E1000
1FF000
3FF000
780000
E00000
E00000
E00000
E00000
700000
780100
3FFF80
0FFF00
03F800
ENDCHAR
STARTCHAR 03B6
ENCODING 950
SWIDTH 428 0
DWIDTH 15 0
BBX 11 32 2 -6
BITMAP
FFE0
FFE0
03C0
0700
0E00
0E00
1C00
3800
3800
3000
7000
6000
6000
E000
E000
E000
E000
E000
E000
E000
6000
6000
7000
3E00
1F80
0FC0
00C0
00C0
00C0
00C0
00C0
00C0
ENDCHAR
STARTCHAR 03B7
ENCODING 951
SWIDTH 542 0
DWIDTH 19 0
BBX 15 25 2 -6
BITMAP
E3E0
EFF0
FFF8
F81C
F00C
F00E
E00E
E00E
E00E
E00E
E00E
E00E
E00E
E00E
E00E
E00E
E00E
E00E
E00E
000E
000E
000E
000E
000E
000E
ENDCHAR
STARTCHAR 03B8
ENCODING 952
SWIDTH 542 0
DWIDTH 19 0
BBX 15 26 2 0
BITMAP
07C0
0FF0
1FF0
3838
3018
701C
600C
600C
600E
E00E
E00E
E00E
FFFE
FFFE
FFFE
E00E
E00E
600E
600C
600C
701C
3018
3838
1FF0
0FE0
07C0
ENDCHAR
STARTCHAR 03B9
ENCODING 953
SWIDTH 314 0
DWIDTH 11 0
BBX 5 19 4 0
BITMAP
E0
E0
E0
E0
E0
E0
E0
E0
E0
E0
E0
E0
E0
60
60
70
78
38
18
ENDCHAR
STARTCHAR 03BA
ENCODING 954
SWIDTH 514 0
DWIDTH 18 0
BBX 15 19 2 0
BITMAP
E01E
E01C
E038
E070
E0E0
E1E0
E1C0
E380
E700
EE00
EF00
FF80
F9C0
F0E0
E0F0
E070
E038
E01C
E00E
ENDCHAR
STARTCHAR 03BB
ENCODING 955
SWIDTH 600 0
DWIDTH 21 0
BBX 17 26 2 0
BITMAP
0C0000
0F0000
0F8000
038000
01C000
00C000
00E000
00E000
006000
00F000
00F000
01F000
01F800
03B800
039800
071C00
071C00
0E0C00
0E0E00
1C0E00
1C0600
380700
380700
700300
700380
E00380
ENDCHAR
STARTCHAR 03BC
ENCODING 956
SWIDTH 600 0
DWIDTH 21 0
BBX 17 25 2 -6
BITMAP
E00380
E00380
E00380
E00380
E00380
E00380
E00380
E00380
E00380
E00380
E00380
E00380
F00380
F00780
F80780
FC0F80
FE3F80
EFFB80
E3F380
E00000
E00000
E00000
E00000
E00000
E00000
ENDCHAR
STARTCHAR 03BD
ENCODING 957
SWIDTH 485 0
DWIDTH 17 0
BBX 14 19 1 0
BITMAP
E01C
E01C
601C
701C
701C
301C
381C
381C
381C
181C
1C18
1C38
0C38
0E70
0E70
06E0
07C0
0780
0300
ENDCHAR
STARTCHAR 03BE
ENCODING 958
SWIDTH 400 0
DWIDTH 14 0
BBX 10 32 2 -6
BITMAP
FFC0
FFC0
3800
7000
7000
6000
6000
7000
7000
3800
3F00
0F00
1F00
3C00
7000
7000
E000
E000
E000
E000
E000
6000
7000
7C00
3F00
1F80
0180
0180
0180
0180
0180
0180
ENDCHAR
STARTCHAR 03BF
ENCODING 959
SWIDTH 657 0
DWIDTH 23 0
BBX 20 19 1 0
BITMAP
01FC00
07FF00
0F8F80
1C03C0
3800E0
700070
700070
600030
600030
E00030
600030
600030
700070
700070
3800E0
1C01C0
0F8F80
07FF00
01FC00
ENDCHAR
STARTCHAR 03C0
ENCODING 960
SWIDTH 742 0
DWIDTH 26 0
BBX 22 19 2 0
BITMAP
0FFFFC
3FFFFC
7FFFFC
738380
638380
E38380
038380
038380
038380
038380
038380
038380
038380
038380
038380
038380
038380
038380
038380
ENDCHAR
STARTCHAR 03C1
ENCODING 961
SWIDTH 600 0
DWIDTH 21 0
BBX 17 25 2 -6
BITMAP
03E000
0FF800
1FFC00
3C0E00
380700
700700
600380
E00380
E00380
E00380
E00380
E00380
E00380
E00700
F00700
F80E00
FFFC00
EFF800
E3E000
E00000
E00000
E00000
E00000
E00000
E00000
ENDCHAR
STARTCHAR 03C2
ENCODING 962
SWIDTH 542 0
DWIDTH 19 0
BBX 15 25 2 -6
BITMAP
03E0
0FF0
1FF8
381C
700C
700E
6000
E000
E000
E000
E000
E000
6000
7000
7000
3800
1FC0
0FF8
07FC
001C
000E
000E
000E
000E
000E
ENDCHAR
STARTCHAR 03C3
ENCODING 963
SWIDTH 714 0
DWIDTH 25 0
BBX 22 20 2 0
BITMAP
00001C
01FFFC
07FFF8
1F9F80
3C03C0
3800E0
7000E0
600070
E00070
E00070
E00030
E00030
E00070
700070
7000E0
3800E0
3C03C0
1F8F80
07FF00
01FC00
ENDCHAR
STARTCHAR 03C4
ENCODING 964
SWIDTH 485 0
DWIDTH 17 0
BBX 13 19 2 0
BITMAP
FFF8
FFF8
FFF8
0700
0700
0700
0700
0700
0700
0700
0700
0700
0700
0700
0380
03C0
01F8
00F8
0038
ENDCHAR
STARTCHAR 03C5
ENCODING 965
SWIDTH 542 0
DWIDTH 19 0
BBX 15 19 2 0
BITMAP
E01C
E01C
E00C
E00C
E00E
E00E
E00E
E00E
E00E
E00E
E00E
E00E
E00C
E01C
601C
7038
3FF0
1FE0
0FC0
ENDCHAR
STARTCHAR 03C6
ENCODING 966
SWIDTH 714 0
DWIDTH 25 0
BBX 20 25 2 -6
BITMAP
000780
0C1FC0
1C1FE0
383860
783070
703030
607030
E07030
E07030
E07030
E07030
E07030
607070
707070
7870E0
3C71E0
1E77C0
0FFF80
03FE00
007000
007000
007000
007000
007000
007000
ENDCHAR
STARTCHAR 03C7
ENCODING 967
SWIDTH 571 0
DWIDTH 20 0
BBX 15 25 2 -6
BITMAP
E00E
700E
701C
381C
3838
1C38
1C70
0E70
0EE0
07E0
07C0
03C0
0380
03C0
07C0
07E0
0EE0
0E70
1C70
1C38
3838
381C
701C
700E
E00E
ENDCHAR
STARTCHAR 03C8
ENCODING 968
SWIDTH 714 0
DWIDTH 25 0
BBX 20 32 2 -6
BITMAP
007000
007000
007000
007000
007000
007000
007000
E07030
E07030
E07030
E07030
E07030
E07030
E07030
E07030
E07030
E07030
E07030
E07030
E07030
E07030
607070
7870F0
3E73E0
1FFFC0
07FF00
007000
007000
007000
007000
007000
007000
ENDCHAR
STARTCHAR 03C9
ENCODING 969
SWIDTH 714 0
DWIDTH 25 0
BBX 21 19 2 0
BITMAP
600030
600030
600030
600038
E00038
E00038
E07038
E07038
E07038
E07038
E07038
E07038
607038
607030
607830
70F870
3FDFE0
1F8FE0
0F0780
ENDCHAR
STARTCHAR 03D1
ENCODING 977
SWIDTH 571 0
DWIDTH 20 0
BBX 16 27 2 0
BITMAP
0FE0
1FF0
3838
701C
601C
600E
600E
700E
780E
3E0E
1FFF
03FF
000E
000E
E00E
E00E
E00E
E00E
E00E
E00E
E00E
600C
701C
7838
3FF8
1FF0
07C0
ENDCHAR
STARTCHAR 03D5
ENCODING 981
SWIDTH 657 0
DWIDTH 23 0
BBX 20 32 1 -6
BITMAP
007000
007000
007000
007000
007000
007000
007000
03FF00
0FFF80
1E73C0
3C71E0
3870E0
707070
707070
607030
607030
E07030
607030
607030
707070
707070
3870E0
3C71E0
1F73C0
0FFF80
03FE00
007000
007000
007000
007000
007000
007000
ENDCHAR
STARTCHAR 03D6
ENCODING 982
SWIDTH 714 0
DWIDTH 25 0
BBX 21 25 2 0
BITMAP
01FC00
1FFF00
0F8780
0001C0
0000E0
000060
600070
600070
600030
600030
E00038
E00038
E07038
E07038
E07038
E07038
E07038
E07038
607038
607030
607830
70F870
3FDFE0
1F8FE0
0F0780
ENDCHAR
STARTCHAR 03F5
ENCODING 1013
SWIDTH 657 0
DWIDTH 23 0
BBX 20 19 1 0
BITMAP
00FC00
07FF00
0FCFC0
1E01E0
3800E0
300000
700000
600000
600000
FFFC00
7FFC00
600000
700000
700000
3800F0
1E01E0
0FCFC0
07FF00
01FC00
ENDCHAR
STARTCHAR 0400
ENCODING 1024
SWIDTH 542 0
DWIDTH 19 0
BBX 14 34 3 0
BITMAP
E000
F000
7C00
1F00
0600
0000
0000
0000
FFFC
FFFC
C000
C000
C000
C000
C000
C000
C000
C000
C000
C000
FFF8
FFF8
C000
C000
C000
C000
C000
C000
C000
C000
C000
C000
FFFC
FFFC
ENDCHAR
STARTCHAR 0401
ENCODING 1025
SWIDTH 542 0
DWIDTH 19 0
BBX 14 32 3 0
BITMAP
18E0
18E0
18E0
18E0
0000
0000
FFFC
FFFC
C000
C000
C000
C000
C000
C000
C000
C000
C000
C000
FFF8
FFF8
C000
C000
C000
C000
C000
C000
C000
C000
C000
C000
FFFC
FFFC
ENDCHAR
STARTCHAR 0402
ENCODING 1026
SWIDTH 428 0
DWIDTH 15 0
BBX 23 32 0 -6
BITMAP
FFFFC0
FFFFC0
038000
038000
038000
038000
038000
038000
038000
038000
03FFC0
03FFF0
0381F8
03803C
03801E
03800E
03800E
038006
038006
038006
038006
038006
038006
038006
03800E
03800E
00000E
00000E
00001C
00003C
0003F8
0003F0
ENDCHAR
STARTCHAR 0403
ENCODING 1027
SWIDTH 485 0
DWIDTH 17 0
BBX 15 34 3 1
BITMAP
0018
0078
01F0
03C0
0300
0000
0000
0000
FFFE
FFFE
C000
C000
C000
C000
C000
C000
C000
C000
C000
C000
C000
C000
C000
C000
C000
C000
C000
C000
C000
C000
C000
C000
C000
C000
ENDCHAR
STARTCHAR 0404
ENCODING 1028
SWIDTH 800 0
DWIDTH 28 0
BBX 25 26 2 0
BITMAP
007F8000
01FFF000
07F3F800
0F003C00
1C000E00
38000700
70000380
70000000
E0000000
E0000000
C0000000
C0000000
FFFF8000
FFFF8000
C0000000
C0000000
E0000000
E0000000
70000000
70000380
38000700
1E000E00
0F003C00
07F1F800
01FFE000
007F8000
ENDCHAR
STARTCHAR 0405
ENCODING 1029
SWIDTH 485 0
DWIDTH 17 0
BBX 16 26 1 0
BITMAP
07E0
1FF8
3EFC
381C
700E
600E
600E
6000
7000
7000
3C00
1F80
0FF0
01F8
003C
000E
000E
0007
0007
E007
E006
F00E
781E
3E7C
1FF8
07E0
ENDCHAR
STARTCHAR 0406
ENCODING 1030
SWIDTH 228 0
DWIDTH 8 0
BBX 2 26 3 0
BITMAP
C0
C0
C0
C0
C0
C0
C0
C0
C0
C0
C0
C0
C0
C0
C0
C0
C0
C0
C0
C0
C0
C0
C0
C0
C0
C0
ENDCHAR
STARTCHAR 0407
ENCODING 1031
SWIDTH 228 0
DWIDTH 8 0
BBX 8 32 0 0
BITMAP
E7
E7
E7
E7
E7
00
18
18
18
18
18
18
18
18
18
18
18
18
18
18
18
18
18
18
18
18
18
18
18
18
18
18
ENDCHAR
STARTCHAR 0408
ENCODING 1032
SWIDTH 485 0
DWIDTH 17 0
BBX 14 26 0 0
BITMAP
000C
000C
000C
000C
000C
000C
000C
000C
000C
000C
000C
000C
000C
000C
000C
000C
000C
000C
000C
E00C
E01C
601C
7038
3EF8
1FF0
0FC0
ENDCHAR
STARTCHAR 0409
ENCODING 1033
SWIDTH 914 0
DWIDTH 32 0
BBX 34 26 1 0
BITMAP
0038000000
0078000000
0078000000
007C000000
00EC000000
00CE000000
00CE000000
01C6000000
0187000000
0383000000
0383000000
0303FFFC00
0701FFFE00
0701C00F00
0601C00380
0E00C00380
0C00E001C0
1C00E001C0
1C006001C0
18007001C0
38003001C0
3800380380
3000380780
7000183F00
70001FFE00
E0001FF800
ENDCHAR
STARTCHAR 040A
ENCODING 1034
SWIDTH 971 0
DWIDTH 34 0
BBX 29 26 3 0
BITMAP
C00E0000
C00E0000
C00E0000
C00E0000
C00E0000
C00E0000
C00E0000
C00E0000
C00E0000
C00E0000
C00E0000
FFFFFF80
FFFFFFE0
C00E01E0
C00E0070
C00E0030
C00E0038
C00E0038
C00E0038
C00E0038
C00E0038
C00E0070
C00E0070
C00E07E0
C00FFFC0
C00FFF00
ENDCHAR
STARTCHAR 040B
ENCODING 1035
SWIDTH 428 0
DWIDTH 15 0
BBX 23 26 0 0
BITMAP
FFFFC0
FFFFC0
038000
038000
038000
038000
038000
038000
038000
038000
038000
03FFF8
03FFFC
03801E
03800E
03800E
038006
038006
038006
038006
038006
038006
038006
038006
038006
038006
ENDCHAR
STARTCHAR 040C
ENCODING 1036
SWIDTH 600 0
DWIDTH 21 0
BBX 17 34 3 1
BITMAP
000C00
003E00
007800
01E000
00C000
000000
000000
000000
C00700
C00E00
C01E00
C03C00
C03800
C07000
C0E000
C1C000
C38000
C78000
C70000
CE0000
DC0000
DE0000
CF0000
C70000
C38000
C1C000
C0E000
C0F000
C07000
C03800
C01C00
C00E00
C00F00
C00780
ENDCHAR
STARTCHAR 040D
ENCODING 1037
SWIDTH 742 0
DWIDTH 26 0
BBX 18 34 3 0
BITMAP
300000
3C0000
1F0000
07C000
018000
000000
000000
000000
C003C0
C003C0
C007C0
C007C0
C00FC0
C00DC0
C01DC0
C019C0
C039C0
C031C0
C071C0
C061C0
C0E1C0
C1C1C0
C181C0
C381C0
C301C0
C701C0
C601C0
CE01C0
CC01C0
DC01C0
D801C0
F801C0
F001C0
F001C0
ENDCHAR
STARTCHAR 040E
ENCODING 1038
SWIDTH 600 0
DWIDTH 21 0
BBX 20 33 0 0
BITMAP
070700
030E00
03FE00
00F800
000000
000000
000000
E00030
700070
700060
3800E0
3800C0
1C01C0
1C0180
0E0380
0E0300
070700
070E00
038E00
039C00
01DC00
01F800
00F800
00F000
007000
00E000
00E000
01C000
018000
038000
030000
070000
060000
ENDCHAR
STARTCHAR 040F
ENCODING 1039
SWIDTH 685 0
DWIDTH 24 0
BBX 18 31 3 -5
BITMAP
C000C0
C000C0
C000C0
C000C0
C000C0
C000C0
C000C0
C000C0
C000C0
C000C0
C000C0
C000C0
C000C0
C000C0
C000C0
C000C0
C000C0
C000C0
C000C0
C000C0
C000C0
C000C0
C000C0
C000C0
FFFFC0
FFFFC0
00C000
00C000
00C000
00C000
00C000
ENDCHAR
STARTCHAR 0410
ENCODING 1040
SWIDTH 742 0
DWIDTH 26 0
BBX 24 26 1 0
BITMAP
003C00
003C00
007C00
007E00
006600
00E700
00C700
01C380
01C380
038180
0381C0
0301C0
0700E0
0600E0
0E0070
0FFFF0
1FFFF0
1C0038
180038
38001C
38001C
70000E
70000E
E00006
E00007
C00007
ENDCHAR
STARTCHAR 0411
ENCODING 1041
SWIDTH 571 0
DWIDTH 20 0
BBX 17 26 3 0
BITMAP
FFFF00
FFFF00
C00000
C00000
C00000
C00000
C00000
C00000
C00000
C00000
FFF000
FFFC00
C03F00
C00700
C00380
C00380
C00380
C00180
C00180
C00380
C00380
C00780
C00F00
C0FE00
FFFC00
FFE000
ENDCHAR
STARTCHAR 0412
ENCODING 1042
SWIDTH 571 0
DWIDTH 20 0
BBX 17 26 3 0
BITMAP
FFE000
FFF800
C0FC00
C00E00
C00E00
C00700
C00700
C00700
C00600
C00E00
C03E00
FFFC00
FFFC00
C07E00
C00700
C00380
C00380
C00380
C00380
C00380
C00380
C00380
C00700
C07E00
FFFC00
FFF000
ENDCHAR
STARTCHAR 0413
ENCODING 1043
SWIDTH 485 0
DWIDTH 17 0
BBX 15 26 3 0
BITMAP
FFFE
FFFE
C000
C000
C000
C000
C000
C000
C000
C000
C000
C000
C000
C000
C000
C000
C000
C000
C000
C000
C000
C000
C000
C000
C000
C000
ENDCHAR
STARTCHAR 0414
ENCODING 1044
SWIDTH 857 0
DWIDTH 30 0
BBX 25 30 1 -4
BITMAP
001C0000
001C0000
003E0000
00360000
00760000
00770000
00630000
00E30000
00E38000
00C18000
01C1C000
01C1C000
0180C000
0380E000
0300E000
07006000
07007000
06003000
0E003800
0E003800
0C001800
1C001C00
1C001C00
38000C00
FFFFFF80
FFFFFF80
E0000380
E0000380
E0000380
E0000380
ENDCHAR
STARTCHAR 0415
ENCODING 1045
SWIDTH 542 0
DWIDTH 19 0
BBX 14 26 3 0
BITMAP
FFFC
FFFC
C000
C000
C000
C000
C000
C000
C000
C000
C000
C000
FFF8
FFF8
C000
C000
C000
C000
C000
C000
C000
C000
C000
C000
FFFC
FFFC
ENDCHAR
STARTCHAR 0416
ENCODING 1046
SWIDTH 971 0
DWIDTH 34 0
BBX 30 26 2 0
BITMAP
F003801C
70038038
38038070
1C0380F0
1E0380E0
0E0381C0
07038380
03838700
01C38F00
01E38E00
00E39C00
0073B800
003BF800
0073B800
00F39C00
00E39E00
01C38E00
03838700
07838380
070383C0
0E0381C0
1C0380E0
3C038070
78038038
7003803C
E003801C
ENDCHAR
STARTCHAR 0417
ENCODING 1047
SWIDTH 657 0
DWIDTH 23 0
BBX 21 26 2 0
BITMAP
01FC00
07FF80
0FCFC0
1C01E0
3800F0
700070
700070
000070
000070
0000E0
0001E0
00FFC0
00FF80
0003E0
0000E0
000070
000030
000038
000038
E00038
F00030
780070
3C00E0
1F8FE0
07FF80
01FE00
ENDCHAR
STARTCHAR 0418
ENCODING 1048
SWIDTH 657 0
DWIDTH 23 0
BBX 18 26 3 0
BITMAP
C003C0
C003C0
C007C0
C007C0
C00FC0
C00DC0
C01DC0
C019C0
C039C0
C031C0
C071C0
C061C0
C0E1C0
C1C1C0
C181C0
C381C0
C301C0
C701C0
C601C0
CE01C0
CC01C0
DC01C0
D801C0
F801C0
F001C0
F001C0
ENDCHAR
STARTCHAR 0419
ENCODING 1049
SWIDTH 657 0
DWIDTH 23 0
BBX 18 32 3 0
BITMAP
1C0C00
0E1800
0FF800
03E000
000000
000000
C003C0
C003C0
C007C0
C007C0
C00FC0
C00DC0
C01DC0
C019C0
C039C0
C031C0
C071C0
C061C0
C0E1C0
C1C1C0
C181C0
C381C0
C301C0
C701C0
C601C0
CE01C0
CC01C0
DC01C0
D801C0
F801C0
F001C0
F001C0
ENDCHAR
STARTCHAR 041A
ENCODING 1050
SWIDTH 600 0
DWIDTH 21 0
BBX 17 26 3 0
BITMAP
C00700
C00E00
C01E00
C03C00
C03800
C07000
C0E000
C1C000
C38000
C78000
C70000
CE0000
DC0000
DE0000
CF0000
C70000
C38000
C1C000
C0E000
C0F000
C07000
C03800
C01C00
C00E00
C00F00
C00780
ENDCHAR
STARTCHAR 041B
ENCODING 1051
SWIDTH 714 0
DWIDTH 25 0
BBX 22 26 1 0
BITMAP
003800
007800
007800
007C00
00EC00
00CE00
00CE00
01C600
018700
038300
038300
030380
070180
0701C0
0601C0
0E00C0
0C00E0
1C00E0
1C0060
180070
380030
380038
300038
700018
70001C
E0001C
ENDCHAR
STARTCHAR 041C
ENCODING 1052
SWIDTH 914 0
DWIDTH 32 0
BBX 24 26 4 0
BITMAP
F0000F
F0000F
F8001F
D8001F
D8001B
DC003B
CC0033
CE0033
CE0073
C60063
C700E3
C300E3
C300C3
C381C3
C18183
C1C183
C1C383
C0C303
C0E703
C0E703
C06603
C07E03
C03C03
C03C03
C03C03
C01803
ENDCHAR
STARTCHAR 041D
ENCODING 1053
SWIDTH 685 0
DWIDTH 24 0
BBX 18 26 3 0
BITMAP
C000C0
C000C0
C000C0
C000C0
C000C0
C000C0
C000C0
C000C0
C000C0
C000C0
C000C0
C000C0
FFFFC0
FFFFC0
C000C0
C000C0
C000C0
C000C0
C000C0
C000C0
C000C0
C000C0
C000C0
C000C0
C000C0
C000C0
ENDCHAR
STARTCHAR 041E
ENCODING 1054
SWIDTH 857 0
DWIDTH 30 0
BBX 27 26 2 0
BITMAP
003F8000
01FFF000
07F3F800
0F003E00
1E000F00
38000700
78000380
700001C0
E00001C0
E00000C0
E00000E0
C00000E0
C00000E0
C00000E0
C00000E0
E00000E0
E00000C0
E00001C0
700001C0
78000380
38000700
1E000E00
0F003C00
07F1F800
01FFF000
007F8000
ENDCHAR
STARTCHAR 041F
ENCODING 1055
SWIDTH 685 0
DWIDTH 24 0
BBX 18 26 3 0
BITMAP
FFFFC0
FFFFC0
C000C0
C000C0
C000C0
C000C0
C000C0
C000C0
C000C0
C000C0
C000C0
C000C0
C000C0
C000C0
C000C0
C000C0
C000C0
C000C0
C000C0
C000C0
C000C0
C000C0
C000C0
C000C0
C000C0
C000C0
ENDCHAR
STARTCHAR 0420
ENCODING 1056
SWIDTH 600 0
DWIDTH 21 0
BBX 17 26 3 0
BITMAP
FFF000
FFFC00
C07E00
C00F00
C00700
C00380
C00380
C00380
C00380
C00380
C00300
C00700
C01E00
FFFC00
FFF800
C00000
C00000
C00000
C00000
C00000
C00000
C00000
C00000
C00000
C00000
C00000
ENDCHAR
STARTCHAR 0421
ENCODING 1057
SWIDTH 800 0
DWIDTH 28 0
BBX 25 26 2 0
BITMAP
007F8000
01FFF000
07F3F800
0F003C00
1C000E00
38000700
70000380
70000000
E0000000
E0000000
C0000000
C0000000
C0000000
C0000000
C0000000
E0000000
E0000000
E0000000
70000000
78000380
38000700
1E000E00
0F003C00
07F1F800
01FFE000
007F8000
ENDCHAR
STARTCHAR 0422
ENCODING 1058
SWIDTH 457 0
DWIDTH 16 0
BBX 18 26 0 0
BITMAP
FFFFC0
FFFFC0
00E000
00E000
00E000
00E000
00E000
00E000
00E000
00E000
00E000
00E000
00E000
00E000
00E000
00E000
00E000
00E000
00E000
00E000
00E000
00E000
00E000
00E000
00E000
00E000
ENDCHAR
STARTCHAR 0423
ENCODING 1059
SWIDTH 600 0
DWIDTH 21 0
BBX 20 26 0 0
BITMAP
E00030
700070
700060
3800E0
3800C0
1C01C0
1C0180
0E0380
0E0300
070700
070E00
038E00
039C00
01DC00
01F800
00F800
00F000
007000
00E000
00E000
01C000
018000
038000
030000
070000
060000
ENDCHAR
STARTCHAR 0424
ENCODING 1060
SWIDTH 828 0
DWIDTH 29 0
BBX 25 29 2 -1
BITMAP
001C0000
001C0000
001C0000
01FFC000
07FFF000
1FDDFC00
3C1C1E00
781C0F00
701C0700
E01C0380
E01C0380
E01C0180
C01C0180
C01C0180
C01C0180
C01C0180
E01C0180
E01C0380
E01C0380
701C0300
781C0700
3C1C0E00
1F1C7C00
0FFFF800
03FFE000
001C0000
001C0000
001C0000
001C0000
ENDCHAR
STARTCHAR 0425
ENCODING 1061
SWIDTH 600 0
DWIDTH 21 0
BBX 20 26 1 0
BITMAP
E000E0
7000E0
7001C0
380380
1C0380
1C0700
0E0E00
070E00
071C00
03B800
01F800
01F000
00E000
00F000
01F000
03B800
039C00
071C00
0E0E00
0E0700
1C0700
380380
3801C0
7001C0
E000E0
E00070
ENDCHAR
STARTCHAR 0426
ENCODING 1062
SWIDTH 714 0
DWIDTH 25 0
BBX 20 31 3 -5
BITMAP
C000C0
C000C0
C000C0
C000C0
C000C0
C000C0
C000C0
C000C0
C000C0
C000C0
C000C0
C000C0
C000C0
C000C0
C000C0
C000C0
C000C0
C000C0
C000C0
C000C0
C000C0
C000C0
C000C0
C000C0
FFFFF0
FFFFF0
000030
000030
000030
000030
000030
ENDCHAR
STARTCHAR 0427
ENCODING 1063
SWIDTH 628 0
DWIDTH 22 0
BBX 18 26 2 0
BITMAP
E001C0
E001C0
E001C0
E001C0
E001C0
E001C0
E001C0
E001C0
E001C0
E001C0
E001C0
6001C0
7001C0
3C01C0
3FFFC0
07FFC0
0001C0
0001C0
0001C0
0001C0
0001C0
0001C0
0001C0
0001C0
0001C0
0001C0
ENDCHAR
STARTCHAR 0428
ENCODING 1064
SWIDTH 971 0
DWIDTH 34 0
BBX 28 26 3 0
BITMAP
C0060070
C0060070
C0060070
C0060070
C0060070
C0060070
C0060070
C0060070
C0060070
C0060070
C0060070
C0060070
C0060070
C0060070
C0060070
C0060070
C0060070
C0060070
C0060070
C0060070
C0060070
C0060070
C0060070
C0060070
FFFFFFF0
FFFFFFF0
ENDCHAR
STARTCHAR 0429
ENCODING 1065
SWIDTH 971 0
DWIDTH 34 0
BBX 30 31 3 -5
BITMAP
C0060070
C0060070
C0060070
C0060070
C0060070
C0060070
C0060070
C0060070
C0060070
C0060070
C0060070
C0060070
C0060070
C0060070
C0060070
C0060070
C0060070
C0060070
C0060070
C0060070
C0060070
C0060070
C0060070
C0060070
FFFFFFFC
FFFFFFFC
0000000C
0000000C
0000000C
0000000C
0000000C
ENDCHAR
STARTCHAR 042A
ENCODING 1066
SWIDTH 714 0
DWIDTH 25 0
BBX 25 26 0 0
BITMAP
FFC00000
FFC00000
00C00000
00C00000
00C00000
00C00000
00C00000
00C00000
00C00000
00C00000
00FFF000
00FFFC00
00C03E00
00C00700
00C00380
00C00380
00C00380
00C00380
00C00380
00C00380
00C00380
00C00700
00C00F00
00C0FE00
00FFFC00
00FFE000
ENDCHAR
STARTCHAR 042B
ENCODING 1067
SWIDTH 742 0
DWIDTH 26 0
BBX 22 26 3 0
BITMAP
C0000C
C0000C
C0000C
C0000C
C0000C
C0000C
C0000C
C0000C
C0000C
C0000C
FFF00C
FFFC0C
C03F0C
C0070C
C0038C
C0038C
C0038C
C0018C
C0018C
C0038C
C0038C
C0078C
C00F0C
C0FE0C
FFFC0C
FFE00C
ENDCHAR
STARTCHAR 042C
ENCODING 1068
SWIDTH 571 0
DWIDTH 20 0
BBX 17 26 3 0
BITMAP
C00000
C00000
C00000
C00000
C00000
C00000
C00000
C00000
C00000
C00000
FFF000
FFFC00
C03F00
C00700
C00380
C00380
C00380
C00180
C00180
C00380
C00380
C00780
C00F00
C0FE00
FFFC00
FFE000
ENDCHAR
STARTCHAR 042D
ENCODING 1069
SWIDTH 800 0
DWIDTH 28 0
BBX 25 26 2 0
BITMAP
00FE0000
07FFC000
1FE7F000
3C00F800
78003C00
70001E00
E0000E00
00000700
00000700
00000300
00000380
00000380
01FFFF80
01FFFF80
00000380
00000380
00000380
00000700
00000700
E0000E00
F0001E00
78003C00
3C00F800
1FC7F000
07FFC000
01FE0000
ENDCHAR
STARTCHAR 042E
ENCODING 1070
SWIDTH 1085 0
DWIDTH 38 0
BBX 33 26 3 0
BITMAP
C000FE0000
C007FFC000
C00FC7F000
C03E00F800
C038003C00
C070001E00
C0E0000E00
C1C0000700
C1C0000300
C180000380
C380000380
C380000180
FF80000180
FF80000180
C380000180
C380000380
C180000380
C1C0000300
C1C0000700
C0E0000F00
C070000E00
C078003C00
C03E007800
C00FC7F000
C007FFC000
C000FE0000
ENDCHAR
STARTCHAR 042F
ENCODING 1071
SWIDTH 600 0
DWIDTH 21 0
BBX 17 26 1 0
BITMAP
03FF80
1FFF80
3F8180
780180
700180
E00180
E00180
E00180
E00180
E00180
E00180
E00180
700180
3C0180
1FF980
07F180
00F180
00E180
01C180
038180
070180
0E0180
1C0180
3C0180
380180
700180
ENDCHAR
STARTCHAR 0430
ENCODING 1072
SWIDTH 685 0
DWIDTH 24 0
BBX 21 19 1 0
BITMAP
01FC38
07FF38
0F8FB8
1E01F8
3800F8
700078
700078
600038
600038
E00038
600038
600038
700078
700078
3800F8
1E01F8
0FCFB8
07FF38
01FC38
ENDCHAR
STARTCHAR 0431
ENCODING 1073
SWIDTH 657 0
DWIDTH 23 0
BBX 20 27 2 0
BITMAP
000040
001FC0
03FFC0
0FFE00
1F0000
3C0000
380000
700000
63F800
EFFE00
DF1F80
FC03C0
F001C0
E000E0
E000E0
E00060
C00070
C00070
C00070
E00060
E000E0
7000E0
7001C0
3C03C0
1F1F80
0FFE00
03F800
ENDCHAR
STARTCHAR 0432
ENCODING 1074
SWIDTH 485 0
DWIDTH 17 0
BBX 15 19 2 0
BITMAP
FFC0
FFE0
E0F0
E030
E038
E038
E070
FFE0
FFF8
E07C
E00E
E00E
E006
E006
E00E
E00E
E07C
FFF8
FFE0
ENDCHAR
STARTCHAR 0433
ENCODING 1075
SWIDTH 371 0
DWIDTH 13 0
BBX 12 19 2 0
BITMAP
FFF0
FFF0
E000
E000
E000
E000
E000
E000
E000
E000
E000
E000
E000
E000
E000
E000
E000
E000
E000
ENDCHAR
STARTCHAR 0434
ENCODING 1076
SWIDTH 657 0
DWIDTH 23 0
BBX 21 23 1 -4
BITMAP
007000
007800
00F800
00DC00
01DC00
01CC00
018E00
038E00
030700
070700
060380
0E0380
0E0180
0C01C0
1C00C0
1800E0
3800E0
FFFFF8
FFFFF8
E00038
E00038
E00038
E00038
ENDCHAR
STARTCHAR 0435
ENCODING 1077
SWIDTH 657 0
DWIDTH 23 0
BBX 20 19 1 0
BITMAP
01FC00
07FF00
0FDF80
1C01C0
3800E0
700070
700070
600030
7FFFF0
FFFFF0
600000
600000
700000
700070
3800E0
1C01C0
0F8F80
07FF00
01FC00
ENDCHAR
STARTCHAR 0436
ENCODING 1078
SWIDTH 771 0
DWIDTH 27 0
BBX 27 19 1 0
BITMAP
E00C01C0
700C0380
380C0780
3C0C0700
1C0C0E00
0E0C1C00
070C3800
038C3800
03CC7000
01CCE000
03CC7000
038C3800
070C3C00
0E0C1C00
1C0C0E00
380C0700
780C0380
F00C01C0
E00C01E0
ENDCHAR
STARTCHAR 0437
ENCODING 1079
SWIDTH 457 0
DWIDTH 16 0
BBX 15 19 1 0
BITMAP
07E0
1FF0
3EF8
381C
701C
001C
0018
07F8
07E0
07F8
001C
000E
0006
C006
E00E
700E
3E7C
1FF8
07E0
ENDCHAR
STARTCHAR 0438
ENCODING 1080
SWIDTH 600 0
DWIDTH 21 0
BBX 17 19 2 0
BITMAP
E00380
E00780
E00780
E00F80
E01D80
E03980
E03180
E07180
E0E180
E1C180
E18180
E30180
E70180
EE0180
FC0180
F80180
F80180
F00180
E00180
ENDCHAR
STARTCHAR 0439
ENCODING 1081
SWIDTH 600 0
DWIDTH 21 0
BBX 17 25 2 0
BITMAP
0C0C00
0E1C00
07F800
03E000
000000
000000
E00380
E00780
E00780
E00F80
E01D80
E03980
E03180
E07180
E0E180
E1C180
E18180
E30180
E70180
EE0180
FC0180
F80180
F80180
F00180
E00180
ENDCHAR
STARTCHAR 043A
ENCODING 1082
SWIDTH 485 0
DWIDTH 17 0
BBX 15 19 2 0
BITMAP
E01E
E01C
E038
E070
E0E0
E1E0
E1C0
E380
E700
EE00
E700
E380
E1C0
E0E0
E0F0
E070
E038
E01C
E00E
ENDCHAR
STARTCHAR 043B
ENCODING 1083
SWIDTH 542 0
DWIDTH 19 0
BBX 19 19 0 0
BITMAP
00E000
00F000
01F000
01B800
03B800
039800
031C00
070C00
060E00
0E0E00
0C0700
1C0700
1C0300
180380
380180
3001C0
7001C0
7000C0
E000E0
ENDCHAR
STARTCHAR 043C
ENCODING 1084
SWIDTH 685 0
DWIDTH 24 0
BBX 21 19 2 0
BITMAP
F00078
F800F8
F800F8
F800F8
FC01F8
EC01B8
EE03B8
E603B8
E70338
E70738
E30638
E38E38
E18C38
E1CC38
E1DC38
E0D838
E0F838
E07038
E07038
ENDCHAR
STARTCHAR 043D
ENCODING 1085
SWIDTH 542 0
DWIDTH 19 0
BBX 16 19 2 0
BITMAP
E007
E007
E007
E007
E007
E007
E007
E007
FFFF
FFFF
E007
E007
E007
E007
E007
E007
E007
E007
E007
ENDCHAR
STARTCHAR 043E
ENCODING 1086
SWIDTH 657 0
DWIDTH 23 0
BBX 20 19 1 0
BITMAP
01FC00
07FF00
0F8F80
1C03C0
3800E0
700070
700070
600030
600030
E00030
600030
600030
700070
700070
3800E0
1C01C0
0F8F80
07FF00
01FC00
ENDCHAR
STARTCHAR 043F
ENCODING 1087
SWIDTH 542 0
DWIDTH 19 0
BBX 16 19 2 0
BITMAP
FFFF
FFFF
E007
E007
E007
E007
E007
E007
E007
E007
E007
E007
E007
E007
E007
E007
E007
E007
E007
ENDCHAR
STARTCHAR 0440
ENCODING 1088
SWIDTH 685 0
DWIDTH 24 0
BBX 20 25 2 -6
BITMAP
E1FC00
E7FF00
EF9F80
FC03C0
F800E0
F00070
E00070
E00070
E00030
E00030
E00030
E00030
E00070
F00060
F800E0
FC03C0
EF8F80
E7FF00
E1FC00
E00000
E00000
E00000
E00000
E00000
E00000
ENDCHAR
STARTCHAR 0441
ENCODING 1089
SWIDTH 657 0
DWIDTH 23 0
BBX 20 19 1 0
BITMAP
00FC00
07FF00
0F8FC0
1E01E0
3800E0
700070
700000
600000
600000
E00000
600000
600000
700000
700070
3800E0
1E01E0
0FCFC0
07FF00
01FC00
ENDCHAR
STARTCHAR 0442
ENCODING 1090
SWIDTH 371 0
DWIDTH 13 0
BBX 17 19 0 0
BITMAP
FFFF80
FFFF80
01C000
01C000
01C000
01C000
01C000
01C000
01C000
01C000
01C000
01C000
01C000
01C000
01C000
01C000
01C000
01C000
01C000
ENDCHAR
STARTCHAR 0443
ENCODING 1091
SWIDTH 542 0
DWIDTH 19 0
BBX 17 26 1 -7
BITMAP
C00380
E00380
E00300
700700
700700
300E00
380E00
381C00
1C1C00
1C1800
0C3800
0E3800
0E7000
077000
076000
03E000
03C000
03C000
01C000
038000
038000
070000
070000
060000
0E0000
0E0000
ENDCHAR
STARTCHAR 0444
ENCODING 1092
SWIDTH 714 0
DWIDTH 25 0
BBX 23 24 1 -3
BITMAP
001800
001800
01FF00
07FFE0
0F9BF0
1C1878
38183C
70181C
70180E
60180E
60180E
E0180E
60180E
60180E
70180E
70181C
38183C
1C1878
0F99F0
07FFE0
01FF00
001800
001800
001800
ENDCHAR
STARTCHAR 0445
ENCODING 1093
SWIDTH 485 0
DWIDTH 17 0
BBX 15 19 1 0
BITMAP
E00E
E01C
701C
3838
3870
1C70
0EE0
07C0
0780
0380
07C0
0FC0
0EE0
1C70
3870
3838
701C
E01C
E00E
ENDCHAR
STARTCHAR 0446
ENCODING 1094
SWIDTH 571 0
DWIDTH 20 0
BBX 17 24 2 -5
BITMAP
E00C00
E00C00
E00C00
E00C00
E00C00
E00C00
E00C00
E00C00
E00C00
E00C00
E00C00
E00C00
E00C00
E00C00
E00C00
E00C00
E00C00
FFFF80
FFFF80
000380
000380
000380
000380
000380
ENDCHAR
STARTCHAR 0447
ENCODING 1095
SWIDTH 514 0
DWIDTH 18 0
BBX 14 19 1 0
BITMAP
E00C
E00C
E00C
E00C
E00C
E00C
E00C
E00C
600C
780C
3FFC
1FFC
000C
000C
000C
000C
000C
000C
000C
ENDCHAR
STARTCHAR 0448
ENCODING 1096
SWIDTH 828 0
DWIDTH 29 0
BBX 25 19 2 0
BITMAP
E01C0380
E01C0380
E01C0380
E01C0380
E01C0380
E01C0380
E01C0380
E01C0380
E01C0380
E01C0380
E01C0380
E01C0380
E01C0380
E01C0380
E01C0380
E01C0380
E01C0380
FFFFFF80
FFFFFF80
ENDCHAR
STARTCHAR 0449
ENCODING 1097
SWIDTH 885 0
DWIDTH 31 0
BBX 27 24 2 -5
BITMAP
E01C0380
E01C0380
E01C0380
E01C0380
E01C0380
E01C0380
E01C0380
E01C0380
E01C0380
E01C0380
E01C0380
E01C0380
E01C0380
E01C0380
E01C0380
E01C0380
E01C0380
FFFFFFE0
FFFFFFE0
000000E0
000000E0
000000E0
000000E0
000000E0
ENDCHAR
STARTCHAR 044A
ENCODING 1098
SWIDTH 542 0
DWIDTH 19 0
BBX 20 19 0 0
BITMAP
FF0000
FF0000
FF0000
070000
070000
070000
07FF00
07FFC0
0703E0
0700F0
070070
070030
070030
070030
070070
0700F0
0703E0
07FFC0
07FF00
ENDCHAR
STARTCHAR 044B
ENCODING 1099
SWIDTH 628 0
DWIDTH 22 0
BBX 19 19 2 0
BITMAP
E00060
E00060
E00060
E00060
E00060
E00060
FFE060
FFF860
E0FC60
E01E60
E00E60
E00E60
E00660
E00660
E00E60
E01E60
E07C60
FFF860
FFE060
ENDCHAR
STARTCHAR 044C
ENCODING 1100
SWIDTH 457 0
DWIDTH 16 0
BBX 15 19 2 0
BITMAP
E000
E000
E000
E000
E000
E000
FFE0
FFF8
E0FC
E01E
E00E
E00E
E006
E006
E00E
E01E
E07C
FFF8
FFE0
ENDCHAR
STARTCHAR 044D
ENCODING 1101
SWIDTH 657 0
DWIDTH 23 0
BBX 19 19 2 0
BITMAP
03F000
0FFE00
3F3F00
780780
F003C0
E001C0
0000E0
0000E0
000060
07FFE0
07FFE0
0000E0
0000E0
E000C0
F001C0
780780
3F3F00
1FFE00
03F000
ENDCHAR
STARTCHAR 044E
ENCODING 1102
SWIDTH 857 0
DWIDTH 30 0
BBX 26 19 2 0
BITMAP
E007F000
E01FFC00
E03E3E00
E0700F00
E0E00380
E1C00380
E1C001C0
E18001C0
E38000C0
FF8000C0
FF8000C0
E18000C0
E1C001C0
E1C001C0
E0E00380
E0F00700
E07E7E00
E01FFC00
E007F000
ENDCHAR
STARTCHAR 044F
ENCODING 1103
SWIDTH 514 0
DWIDTH 18 0
BBX 15 19 2 0
BITMAP
07FE
1FFE
3E06
7006
6006
E006
E006
E006
6006
7006
3FC6
1FC6
0786
0706
0E06
1C06
3806
7806
F006
ENDCHAR
STARTCHAR 0450
ENCODING 1104
SWIDTH 657 0
DWIDTH 23 0
BBX 20 27 1 0
BITMAP
080000
0E0000
0F8000
03E000
00E000
002000
000000
000000
01FC00
07FF00
0FDF80
1C01C0
3800E0
700070
700070
600030
7FFFF0
FFFFF0
600000
600000
700000
700070
3800E0
1C01C0
0F8F80
07FF00
01FC00
ENDCHAR
STARTCHAR 0451
ENCODING 1105
SWIDTH 657 0
DWIDTH 23 0
BBX 20 26 1 0
BITMAP
018C00
018C00
018C00
018C00
018C00
000000
000000
01FC00
07FF00
0FDF80
1C01C0
3800E0
700070
700070
600030
7FFFF0
FFFFF0
600000
600000
700000
700070
3800E0
1C01C0
0F8F80
07FF00
01FC00
ENDCHAR
STARTCHAR 0452
ENCODING 1106
SWIDTH 600 0
DWIDTH 21 0
BBX 21 33 0 -7
BITMAP
0E0000
0E0000
0E0000
0E0000
FFFC00
FFFC00
0E0000
0E0000
0E0000
0E0000
0E0000
0FFF80
0FFFC0
0E01F0
0E0070
0E0038
0E0038
0E0018
0E0018
0E0018
0E0018
0E0018
0E0018
0E0018
0E0018
0E0018
000038
000038
000030
000070
0000E0
0007E0
000780
ENDCHAR
STARTCHAR 0453
ENCODING 1107
SWIDTH 371 0
DWIDTH 13 0
BBX 12 27 2 1
BITMAP
0070
00F0
03C0
0F80
0600
0000
0000
0000
FFF0
FFF0
E000
E000
E000
E000
E000
E000
E000
E000
E000
E000
E000
E000
E000
E000
E000
E000
E000
ENDCHAR
STARTCHAR 0454
ENCODING 1108
SWIDTH 657 0
DWIDTH 23 0
BBX 20 19 1 0
BITMAP
00FC00
07FF00
0FCFC0
1E01E0
3800E0
300070
700000
600000
600000
FFFC00
7FFC00
600000
700000
700070
3800F0
1E01E0
0FCFC0
07FF00
01FC00
ENDCHAR
STARTCHAR 0455
ENCODING 1109
SWIDTH 400 0
DWIDTH 14 0
BBX 12 19 1 0
BITMAP
1F00
3FC0
7BE0
60E0
E0E0
E000
7000
7800
3F00
0FC0
03E0
00E0
0070
C070
C070
E0E0
79E0
7FC0
1F00
ENDCHAR
STARTCHAR 0456
ENCODING 1110
SWIDTH 200 0
DWIDTH 7 0
BBX 3 26 2 0
BITMAP
E0
E0
E0
E0
E0
00
00
E0
E0
E0
E0
E0
E0
E0
E0
E0
E0
E0
E0
E0
E0
E0
E0
E0
E0
E0
ENDCHAR
STARTCHAR 0457
ENCODING 1111
SWIDTH 200 0
DWIDTH 7 0
BBX 7 26 0 0
BITMAP
C6
C6
C6
C6
00
00
00
38
38
38
38
38
38
38
38
38
38
38
38
38
38
38
38
38
38
38
ENDCHAR
STARTCHAR 0458
ENCODING 1112
SWIDTH 200 0
DWIDTH 7 0
BBX 7 33 -2 -7
BITMAP
0E
0E
0E
0E
0E
00
00
0E
0E
0E
0E
0E
0E
0E
0E
0E
0E
0E
0E
0E
0E
0E
0E
0E
0E
0E
0E
0E
0E
1C
FC
F8
E0
ENDCHAR
STARTCHAR 0459
ENCODING 1113
SWIDTH 685 0
DWIDTH 24 0
BBX 27 19 0 0
BITMAP
00E00000
00F00000
01F00000
01B80000
03B80000
03980000
031C0000
070FFF00
060FFFC0
0E0FFFC0
0C0700E0
1C070060
1C030060
18038060
38018060
3001C0E0
7001C3E0
7000FFC0
E000FF00
ENDCHAR
STARTCHAR 045A
ENCODING 1114
SWIDTH 685 0
DWIDTH 24 0
BBX 22 19 2 0
BITMAP
E07000
E07000
E07000
E07000
E07000
E07000
E07000
FFFFE0
FFFFF8
FFFFF8
E0701C
E0700C
E0700C
E0700C
E0700C
E0701C
E0707C
E07FF8
E07FE0
ENDCHAR
STARTCHAR 045B
ENCODING 1115
SWIDTH 600 0
DWIDTH 21 0
BBX 20 26 -1 0
BITMAP
1C0000
1C0000
1C0000
FFF000
FFF000
1C0000
1C0000
1C0000
1C0000
1C0000
1C0000
1FFF80
1FFFC0
1C01E0
1C0070
1C0070
1C0030
1C0030
1C0030
1C0030
1C0030
1C0030
1C0030
1C0030
1C0030
1C0030
ENDCHAR
STARTCHAR 045C
ENCODING 1116
SWIDTH 514 0
DWIDTH 18 0
BBX 15 27 2 1
BITMAP
001C
003C
00F8
03E0
0180
0000
0000
0000
E01E
E01C
E038
E070
E0E0
E1E0
E1C0
E380
E700
EE00
E700
E380
E1C0
E0E0
E0F0
E070
E038
E01C
E00E
ENDCHAR
STARTCHAR 045D
ENCODING 1117
SWIDTH 600 0
DWIDTH 21 0
BBX 17 27 2 0
BITMAP
300000
3C0000
1F0000
07C000
018000
000000
000000
000000
E00380
E00780
E00780
E00F80
E01D80
E03980
E03180
E07180
E0E180
E1C180
E18180
E30180
E70180
EE0180
FC0180
F80180
F80180
F00180
E00180
ENDCHAR
STARTCHAR 045E
ENCODING 1118
SWIDTH 542 0
DWIDTH 19 0
BBX 17 33 1 -7
BITMAP
181C00
0C1800
0FF800
03E000
000000
000000
000000
C00380
E00380
E00300
700700
700700
300E00
380E00
381C00
1C1C00
1C1800
0C3800
0E3800
0E7000
077000
076000
03E000
03C000
03C000
01C000
038000
038000
070000
070000
060000
0E0000
0E0000
ENDCHAR
STARTCHAR 045F
ENCODING 1119
SWIDTH 542 0
DWIDTH 19 0
BBX 14 24 2 -5
BITMAP
E00C
E00C
E00C
E00C
E00C
E00C
E00C
E00C
E00C
E00C
E00C
E00C
E00C
E00C
E00C
E00C
E00C
FFFC
FFFC
0380
0380
0380
0380
0380
ENDCHAR
STARTCHAR 048C
ENCODING 1164
SWIDTH 571 0
DWIDTH 20 0
BBX 19 26 0 0
BITMAP
180000
180000
180000
180000
FF0000
FF0000
180000
180000
180000
180000
180000
1FFC00
1FFF00
181F80
1801C0
1800E0
1800E0
1800E0
1800E0
1800E0
1800E0
1800E0
1801C0
181F80
1FFF00
1FFC00
ENDCHAR
STARTCHAR 048D
ENCODING 1165
SWIDTH 457 0
DWIDTH 16 0
BBX 15 19 0 0
BITMAP
3800
3800
FE00
FE00
FE00
3800
3800
3FF0
3FFC
3FFE
380E
3806
3806
3806
3806
380E
383E
3FFC
3FF0
ENDCHAR
STARTCHAR 048E
ENCODING 1166
SWIDTH 600 0
DWIDTH 21 0
BBX 17 26 3 0
BITMAP
FFF000
FFFC00
C07E00
C00F00
C00700
C00380
C00380
C00380
C00380
C18380
C1C300
C0E700
C07E00
FFFC00
FFFC00
C00E00
C00700
C00300
C00000
C00000
C00000
C00000
C00000
C00000
C00000
C00000
ENDCHAR
STARTCHAR 048F
ENCODING 1167
SWIDTH 685 0
DWIDTH 24 0
BBX 20 25 2 -6
BITMAP
E1FC00
E7FF00
EF9F80
FC03C0
F800E0
F00070
E00070
E00070
E00030
E00030
E00030
E01830
E01C70
F00E60
F807E0
FC03C0
EF9FC0
E7FFE0
E1F870
E00030
E00000
E00000
E00000
E00000
E00000
ENDCHAR
STARTCHAR 0490
ENCODING 1168
SWIDTH 485 0
DWIDTH 17 0
BBX 14 28 3 0
BITMAP
001C
001C
FFFC
FFFC
C000
C000
C000
C000
C000
C000
C000
C000
C000
C000
C000
C000
C000
C000
C000
C000
C000
C000
C000
C000
C000
C000
C000
C000
ENDCHAR
STARTCHAR 0491
ENCODING 1169
SWIDTH 371 0
DWIDTH 13 0
BBX 11 21 2 0
BITMAP
00E0
00E0
FFE0
FFE0
E000
E000
E000
E000
E000
E000
E000
E000
E000
E000
E000
E000
E000
E000
E000
E000
E000
ENDCHAR
STARTCHAR 0492
ENCODING 1170
SWIDTH 485 0
DWIDTH 17 0
BBX 17 26 0 0
BITMAP
1FFF80
1FFF80
180000
180000
180000
180000
180000
180000
180000
FF8000
FF8000
180000
180000
180000
180000
180000
180000
180000
180000
180000
180000
180000
180000
180000
180000
180000
ENDCHAR
STARTCHAR 0493
ENCODING 1171
SWIDTH 371 0
DWIDTH 13 0
BBX 13 19 0 0
BITMAP
3FF8
3FF8
3800
3800
3800
FF00
FF00
3800
3800
3800
3800
3800
3800
3800
3800
3800
3800
3800
3800
ENDCHAR
STARTCHAR 0494
ENCODING 1172
SWIDTH 485 0
DWIDTH 17 0
BBX 17 32 3 -6
BITMAP
FFFC00
FFFC00
C00000
C00000
C00000
C00000
C00000
C00000
C00000
C00000
FFF000
FFFC00
C07E00
C00F00
C00700
C00700
C00380
C00380
C00380
C00380
C00380
C00380
C00380
C00380
C00380
C00380
000300
000700
000700
000E00
01FC00
01F800
ENDCHAR
STARTCHAR 0495
ENCODING 1173
SWIDTH 371 0
DWIDTH 13 0
BBX 14 26 2 -7
BITMAP
FFE0
FFE0
E000
E000
E000
E000
E000
FF80
FFE0
E0F0
E038
E01C
E01C
E01C
E01C
E01C
E01C
E01C
E01C
001C
001C
0018
0038
0070
03E0
03C0
ENDCHAR
STARTCHAR 0496
ENCODING 1174
SWIDTH 971 0
DWIDTH 34 0
BBX 31 31 2 -5
BITMAP
F003801C
70038038
38038070
1C0380F0
1E0380E0
0E0381C0
07038380
03838700
01C38F00
01E38E00
00E39C00
0073B800
003BF800
0073B800
00F39C00
00E39E00
01C38E00
03838700
07838380
070383C0
0E0381C0
1C0380E0
3C038070
78038038
7003803E
E003801E
0000000E
0000000E
0000000E
0000000E
0000000E
ENDCHAR
STARTCHAR 0497
ENCODING 1175
SWIDTH 800 0
DWIDTH 28 0
BBX 27 24 1 -5
BITMAP
E00C01C0
700C0380
380C0780
3C0C0700
1C0C0E00
0E0C1C00
070C3800
038C3800
03CC7000
01CCE000
03CC7000
038C3800
070C3C00
0E0C1C00
1C0C0E00
380C0700
780C0380
F00C01E0
E00C01E0
00000060
00000060
00000060
00000060
00000060
ENDCHAR
STARTCHAR 0498
ENCODING 1176
SWIDTH 571 0
DWIDTH 20 0
BBX 21 33 2 -7
BITMAP
01FC00
07FF80
0FCFC0
1C01E0
3800F0
700070
700070
000070
000070
000070
0000E0
0003C0
00FF80
00FFC0
0000E0
000070
000030
000038
000038
E00038
E00030
700070
3C00F0
1F03E0
0FFFC0
03FF00
003000
001800
001800
001800
001800
00F000
004000
ENDCHAR
STARTCHAR 0499
ENCODING 1177
SWIDTH 400 0
DWIDTH 14 0
BBX 15 26 1 -7
BITMAP
07E0
0FF0
1EF8
3818
701C
001C
0018
0038
07F0
07F8
073C
000C
0006
0006
E006
700E
783C
3FF8
0FF0
0180
00C0
00C0
0040
00C0
07C0
0200
ENDCHAR
STARTCHAR 049A
ENCODING 1178
SWIDTH 600 0
DWIDTH 21 0
BBX 17 31 3 -5
BITMAP
C00700
C00E00
C01E00
C03C00
C03800
C07000
C0E000
C1C000
C38000
C78000
C70000
CE0000
DC0000
DE0000
CF0000
C70000
C38000
C1C000
C0E000
C0F000
C07000
C03800
C01C00
C00E00
C00F80
C00780
000180
000180
000180
000180
000180
ENDCHAR
STARTCHAR 049B
ENCODING 1179
SWIDTH 514 0
DWIDTH 18 0
BBX 16 24 2 -5
BITMAP
E01E
E01C
E038
E070
E0E0
E1E0
E1C0
E380
E700
EE00
E700
E380
E1C0
E0E0
E0F0
E070
E038
E01F
E00F
0007
0007
0007
0007
0007
ENDCHAR
STARTCHAR 049C
ENCODING 1180
SWIDTH 600 0
DWIDTH 21 0
BBX 17 26 3 0
BITMAP
C00700
C00E00
C01E00
C03C00
C03800
CC7000
CCE000
CDC000
CF8000
CF8000
CF0000
CE0000
DC0000
DE0000
CF0000
CF0000
CF8000
CDC000
CCE000
CCF000
C07000
C03800
C01C00
C00E00
C00F00
C00780
ENDCHAR
STARTCHAR 049D
ENCODING 1181
SWIDTH 514 0
DWIDTH 18 0
BBX 15 19 2 0
BITMAP
E01E
E01C
E038
E670
E6E0
E7E0
E7C0
E780
E700
EE00
E700
E780
E7C0
E6E0
E6F0
E670
E038
E01C
E00E
ENDCHAR
STARTCHAR 049E
ENCODING 1182
SWIDTH 600 0
DWIDTH 21 0
BBX 19 26 1 0
BITMAP
3800E0
3801C0
380380
FF0780
FF0F00
380E00
381C00
383800
387000
38F000
39E000
39C000
3B8000
3B8000
39C000
38E000
387000
387800
383C00
381C00
380E00
380700
380380
3803C0
3801E0
3800E0
ENDCHAR
STARTCHAR 049F
ENCODING 1183
SWIDTH 514 0
DWIDTH 18 0
BBX 17 19 0 0
BITMAP
380780
380700
FE0E00
FE1C00
383800
387800
387000
38E000
39C000
3BC000
39C000
38E000
387000
383800
383C00
381C00
380E00
380700
380380
ENDCHAR
STARTCHAR 04A0
ENCODING 1184
SWIDTH 600 0
DWIDTH 21 0
BBX 24 26 0 0
BITMAP
FFC007
FFC00E
00C01C
00C03C
00C078
00C070
00C0E0
00C1C0
00C380
00C780
00CF00
00CE00
00DC00
00DE00
00CE00
00C700
00C380
00C1C0
00C1E0
00C0F0
00C070
00C038
00C01C
00C01E
00C00F
00C007
ENDCHAR
STARTCHAR 04A1
ENCODING 1185
SWIDTH 514 0
DWIDTH 18 0
BBX 20 19 0 0
BITMAP
FF00F0
FF00E0
FF01C0
070380
070780
070700
070E00
071C00
073800
077800
073800
071C00
070E00
070700
070380
0703C0
0701C0
0700E0
070070
ENDCHAR
STARTCHAR 04A2
ENCODING 1186
SWIDTH 685 0
DWIDTH 24 0
BBX 20 31 3 -5
BITMAP
C000C0
C000C0
C000C0
C000C0
C000C0
C000C0
C000C0
C000C0
C000C0
C000C0
C000C0
C000C0
FFFFC0
FFFFC0
C000C0
C000C0
C000C0
C000C0
C000C0
C000C0
C000C0
C000C0
C000C0
C000C0
C000F0
C000F0
000030
000030
000030
000030
000030
ENDCHAR
STARTCHAR 04A3
ENCODING 1187
SWIDTH 542 0
DWIDTH 19 0
BBX 18 24 2 -5
BITMAP
E00700
E00700
E00700
E00700
E00700
E00700
E00700
E00700
FFFF00
FFFF00
E00700
E00700
E00700
E00700
E00700
E00700
E00700
E007C0
E007C0
0000C0
0000C0
0000C0
0000C0
0000C0
ENDCHAR
STARTCHAR 04A4
ENCODING 1188
SWIDTH 857 0
DWIDTH 30 0
BBX 31 26 3 0
BITMAP
C000FFFE
C000FFFE
C000C000
C000C000
C000C000
C000C000
C000C000
C000C000
C000C000
C000C000
C000C000
C000C000
FFFFC000
FFFFC000
C000C000
C000C000
C000C000
C000C000
C000C000
C000C000
C000C000
C000C000
C000C000
C000C000
C000C000
C000C000
ENDCHAR
STARTCHAR 04A5
ENCODING 1189
SWIDTH 542 0
DWIDTH 19 0
BBX 26 19 2 0
BITMAP
E007FFC0
E007FFC0
E0070000
E0070000
E0070000
E0070000
E0070000
E0070000
FFFF0000
FFFF0000
E0070000
E0070000
E0070000
E0070000
E0070000
E0070000
E0070000
E0070000
E0070000
ENDCHAR
STARTCHAR 04A6
ENCODING 1190
SWIDTH 685 0
DWIDTH 24 0
BBX 33 32 3 -6
BITMAP
FFFFC00000
FFFFC00000
C000C00000
C000C00000
C000C00000
C000C00000
C000C00000
C000C00000
C000C00000
C000C00000
C000FFF000
C000FFFC00
C000C07E00
C000C00F00
C000C00700
C000C00700
C000C00380
C000C00380
C000C00380
C000C00380
C000C00380
C000C00380
C000C00380
C000C00380
C000C00380
C000C00380
0000000300
0000000700
0000000700
0000000E00
000001FC00
000001F800
ENDCHAR
STARTCHAR 04A7
ENCODING 1191
SWIDTH 542 0
DWIDTH 19 0
BBX 26 26 2 -7
BITMAP
FFFC0000
FFFC0000
E00C0000
E00C0000
E00C0000
E00C0000
E00C0000
E00FF800
E00FFE00
E00C0F00
E00C0780
E00C0380
E00C0180
E00C01C0
E00C01C0
E00C01C0
E00C01C0
E00C0180
E00C0180
00000180
00000180
00000380
00000300
00000F00
00007E00
00007800
ENDCHAR
STARTCHAR 04A8
ENCODING 1192
SWIDTH 800 0
DWIDTH 28 0
BBX 25 26 2 0
BITMAP
007F8000
01FFF000
07F3F800
0F003C00
1C000E00
38000700
70000380
70000000
E0000000
E0000000
C0000000
C0000000
C0000000
C0000000
C0000000
E0000000
E0000000
E0000000
70000000
78000380
38000700
1E000E00
0F003C00
07F1F800
01FFE000
007F8000
ENDCHAR
STARTCHAR 04A9
ENCODING 1193
SWIDTH 657 0
DWIDTH 23 0
BBX 20 19 1 0
BITMAP
00FC00
07FF00
0F8FC0
1E01E0
3800E0
700070
700000
600000
600000
E00000
600000
600000
700000
700070
3800E0
1E01E0
0FCFC0
07FF00
01FC00
ENDCHAR
STARTCHAR 04AA
ENCODING 1194
SWIDTH 800 0
DWIDTH 28 0
BBX 25 33 2 -7
BITMAP
007F8000
01FFF000
07F3F800
0F003C00
1C000E00
38000700
70000380
70000000
E0000000
E0000000
E0000000
C0000000
C0000000
C0000000
C0000000
C0000000
E0000000
E0000000
70000000
70000380
38000700
3C000E00
1F001E00
0FC07C00
03FFF000
00FFC000
000C0000
00060000
00030000
00030000
00030000
003E0000
00080000
ENDCHAR
STARTCHAR 04AB
ENCODING 1195
SWIDTH 657 0
DWIDTH 23 0
BBX 20 26 1 -7
BITMAP
00FC00
07FF00
0F8FC0
1E01E0
3800E0
300070
700000
600000
600000
E00000
600000
600000
700000
700000
380070
3C00E0
1F03C0
0FFF80
03FE00
003000
001800
000C00
000C00
001C00
00F800
002000
ENDCHAR
STARTCHAR 04AC
ENCODING 1196
SWIDTH 428 0
DWIDTH 15 0
BBX 18 31 0 -5
BITMAP
FFFFC0
FFFFC0
00E000
00E000
00E000
00E000
00E000
00E000
00E000
00E000
00E000
00E000
00E000
00E000
00E000
00E000
00E000
00E000
00E000
00E000
00E000
00E000
00E000
00E000
00F800
00F800
003800
003800
003800
003800
003800
ENDCHAR
STARTCHAR 04AD
ENCODING 1197
SWIDTH 371 0
DWIDTH 13 0
BBX 17 24 0 -5
BITMAP
FFFF80
FFFF80
01C000
01C000
01C000
01C000
01C000
01C000
01C000
01C000
01C000
01C000
01C000
01C000
01C000
01C000
01C000
01F000
01F000
003000
003000
003000
003000
003000
ENDCHAR
STARTCHAR 04AE
ENCODING 1198
SWIDTH 600 0
DWIDTH 21 0
BBX 20 26 0 0
BITMAP
E00030
700070
700060
3800E0
3801C0
1C01C0
1C0380
0E0380
0E0700
070700
070E00
038E00
019C00
01DC00
00F800
00F800
007000
007000
007000
007000
007000
007000
007000
007000
007000
007000
ENDCHAR
STARTCHAR 04AF
ENCODING 1199
SWIDTH 542 0
DWIDTH 19 0
BBX 19 26 0 -7
BITMAP
E000E0
7000C0
7001C0
3001C0
380180
180380
1C0300
1C0700
0C0700
0E0E00
060E00
070C00
031C00
039800
03B800
01B800
01F000
00F000
00E000
00E000
00E000
00E000
00E000
00E000
00E000
00E000
ENDCHAR
STARTCHAR 04B0
ENCODING 1200
SWIDTH 600 0
DWIDTH 21 0
BBX 20 26 0 0
BITMAP
E00030
700070
7000E0
3800E0
3801C0
1C01C0
1C0380
0E0380
060700
070700
030E00
038E00
019C00
01D800
00F800
00F000
007000
0FFF00
0FFF00
007000
007000
007000
007000
007000
007000
007000
ENDCHAR
STARTCHAR 04B1
ENCODING 1201
SWIDTH 542 0
DWIDTH 19 0
BBX 19 26 0 -7
BITMAP
E000E0
7000C0
7001C0
3001C0
380180
180380
1C0300
1C0700
0C0700
0E0E00
060E00
070C00
031C00
039800
03B800
01B800
01F000
0FFF00
0FFF00
00E000
00E000
00E000
00E000
00E000
00E000
00E000
ENDCHAR
STARTCHAR 04B2
ENCODING 1202
SWIDTH 600 0
DWIDTH 21 0
BBX 21 31 1 -5
BITMAP
E000E0
7000E0
7001C0
380380
1C0380
1C0700
0E0E00
070E00
071C00
03B800
01F800
01F000
00E000
00F000
01F000
03B800
039C00
071C00
0E0E00
0E0700
1C0700
380380
3801C0
7001C0
E000F8
E00078
000038
000038
000038
000038
000038
ENDCHAR
STARTCHAR 04B3
ENCODING 1203
SWIDTH 485 0
DWIDTH 17 0
BBX 16 24 1 -5
BITMAP
E00E
E01C
701C
3838
3870
1C70
0EE0
07C0
0780
0380
07C0
0FC0
0EE0
1C70
3870
3838
701C
E01F
E00F
0003
0003
0003
0003
0003
ENDCHAR
STARTCHAR 04B4
ENCODING 1204
SWIDTH 742 0
DWIDTH 26 0
BBX 21 31 3 -5
BITMAP
C000C0
C000C0
C000C0
C000C0
C000C0
C000C0
C000C0
C000C0
C000C0
C000C0
C000C0
C000C0
C000C0
C000C0
C000C0
C000C0
C000C0
C000C0
C000C0
C000C0
C000C0
C000C0
C000C0
C000C0
FFFFF8
FFFFF8
000018
000018
000018
000018
000018
ENDCHAR
STARTCHAR 04B5
ENCODING 1205
SWIDTH 600 0
DWIDTH 21 0
BBX 18 24 2 -5
BITMAP
E00C00
E00C00
E00C00
E00C00
E00C00
E00C00
E00C00
E00C00
E00C00
E00C00
E00C00
E00C00
E00C00
E00C00
E00C00
E00C00
E00C00
FFFFC0
FFFFC0
0001C0
0001C0
0001C0
0001C0
0001C0
ENDCHAR
STARTCHAR 04B6
ENCODING 1206
SWIDTH 628 0
DWIDTH 22 0
BBX 20 31 2 -5
BITMAP
E001C0
E001C0
E001C0
E001C0
E001C0
E001C0
E001C0
E001C0
E001C0
E001C0
E001C0
7001C0
7801C0
3FFFC0
1FFFC0
0001C0
0001C0
0001C0
0001C0
0001C0
0001C0
0001C0
0001C0
0001C0
0001F0
0001F0
000070
000070
000070
000070
000070
ENDCHAR
STARTCHAR 04B7
ENCODING 1207
SWIDTH 514 0
DWIDTH 18 0
BBX 17 24 1 -5
BITMAP
E00C00
E00C00
E00C00
E00C00
E00C00
E00C00
E00C00
E00C00
700C00
780C00
3FFC00
1FFC00
000C00
000C00
000C00
000C00
000C00
000F80
000F80
000380
000380
000380
000380
000380
ENDCHAR
STARTCHAR 04B8
ENCODING 1208
SWIDTH 628 0
DWIDTH 22 0
BBX 18 26 2 0
BITMAP
E001C0
E001C0
E001C0
E001C0
E001C0
E001C0
E001C0
E001C0
E001C0
E0C1C0
E0C1C0
70C1C0
78C1C0
3FFFC0
1FFFC0
00C1C0
00C1C0
00C1C0
00C1C0
00C1C0
0001C0
0001C0
0001C0
0001C0
0001C0
0001C0
ENDCHAR
STARTCHAR 04B9
ENCODING 1209
SWIDTH 514 0
DWIDTH 18 0
BBX 14 19 1 0
BITMAP
E00C
E00C
E00C
E00C
E00C
E00C
E38C
E38C
738C
7B8C
3FFC
1FFC
038C
038C
038C
038C
000C
000C
000C
ENDCHAR
STARTCHAR 04BA
ENCODING 1210
SWIDTH 628 0
DWIDTH 22 0
BBX 18 26 2 0
BITMAP
E00000
E00000
E00000
E00000
E00000
E00000
E00000
E00000
E00000
E00000
E00000
FFFE00
FFFF00
E00780
E00380
E00180
E001C0
E001C0
E001C0
E001C0
E001C0
E001C0
E001C0
E001C0
E001C0
E001C0
ENDCHAR
STARTCHAR 04BB
ENCODING 1211
SWIDTH 514 0
DWIDTH 18 0
BBX 14 19 1 0
BITMAP
E000
E000
E000
E000
E000
E000
E000
FFE0
FFF8
E038
E01C
E01C
E00C
E00C
E00C
E00C
E00C
E00C
E00C
ENDCHAR
STARTCHAR 04BC
ENCODING 1212
SWIDTH 800 0
DWIDTH 28 0
BBX 27 26 2 0
BITMAP
007F8000
01FFF000
07F3F800
0F003E00
1E000F00
38000700
70000380
700001C0
E00001C0
E00001C0
C00000E0
C00000E0
FFFFFFE0
FFFFFFE0
C0000000
E0000000
E0000000
E0000000
70000000
70000380
38000700
1E000E00
0F003C00
07F3F800
03FFE000
007F8000
ENDCHAR
STARTCHAR 04BD
ENCODING 1213
SWIDTH 657 0
DWIDTH 23 0
BBX 20 19 1 0
BITMAP
01FC00
07FF00
0FDF80
1C01C0
3800E0
700070
700070
600030
7FFFF0
FFFFF0
600000
600000
700000
700070
3800E0
1C01C0
0F8F80
07FF00
01FC00
ENDCHAR
STARTCHAR 04BE
ENCODING 1214
SWIDTH 800 0
DWIDTH 28 0
BBX 25 26 2 0
BITMAP
007F8000
01FFF000
07F3F800
0F003C00
1C000E00
38000700
70000380
70000000
E0000000
E0000000
C0000000
C0000000
C0000000
C0000000
C0000000
E0000000
E0000000
E0000000
70000000
78000380
38000700
1E000E00
0F003C00
07F1F800
01FFE000
007F8000
ENDCHAR
STARTCHAR 04BF
ENCODING 1215
SWIDTH 657 0
DWIDTH 23 0
BBX 20 19 1 0
BITMAP
00FC00
07FF00
0F8FC0
1E01E0
3800E0
700070
700000
600000
600000
E00000
600000
600000
700000
700070
3800E0
1E01E0
0FCFC0
07FF00
01FC00
ENDCHAR
STARTCHAR 04C0
ENCODING 1216
SWIDTH 228 0
DWIDTH 8 0
BBX 2 26 3 0
BITMAP
C0
C0
C0
C0
C0
C0
C0
C0
C0
C0
C0
C0
C0
C0
C0
C0
C0
C0
C0
C0
C0
C0
C0
C0
C0
C0
ENDCHAR
STARTCHAR 04C1
ENCODING 1217
SWIDTH 971 0
DWIDTH 34 0
BBX 30 33 2 0
BITMAP
00303000
00387000
001FE000
000FC000
00000000
00000000
00000000
F003801C
70038038
38038070
1C0380F0
1E0380E0
0E0381C0
07038380
03838700
01C38F00
01E38E00
00E39C00
0073B800
003BF800
0073B800
00F39C00
00E39E00
01C38E00
03838700
07838380
070383C0
0E0381C0
1C0380E0
3C038070
78038038
7003803C
E003801C
ENDCHAR
STARTCHAR 04C2
ENCODING 1218
SWIDTH 800 0
DWIDTH 28 0
BBX 27 26 1 0
BITMAP
00C0C000
00E1C000
007F8000
003F0000
00000000
00000000
00000000
E00C01C0
700C0380
380C0780
3C0C0700
1C0C0E00
0E0C1C00
070C3800
038C3800
03CC7000
01CCE000
03CC7000
038C3800
070C3C00
0E0C1C00
1C0C0E00
380C0700
780C0380
F00C01C0
E00C01E0
ENDCHAR
STARTCHAR 04C3
ENCODING 1219
SWIDTH 600 0
DWIDTH 21 0
BBX 17 26 3 0
BITMAP
C00700
C00E00
C01E00
C03C00
C03800
C07000
C0E000
C1C000
C38000
C78000
C70000
CE0000
DC0000
DE0000
CF0000
C70000
C38000
C1C000
C0E000
C0F000
C07000
C03800
C01C00
C00E00
C00F00
C00780
ENDCHAR
STARTCHAR 04C4
ENCODING 1220
SWIDTH 514 0
DWIDTH 18 0
BBX 15 19 2 0
BITMAP
E01E
E01C
E038
E070
E0E0
E1E0
E1C0
E380
E700
EE00
E700
E380
E1C0
E0E0
E0F0
E070
E038
E01C
E00E
ENDCHAR
STARTCHAR 04C7
ENCODING 1223
SWIDTH 685 0
DWIDTH 24 0
BBX 18 26 3 0
BITMAP
C000C0
C000C0
C000C0
C000C0
C000C0
C000C0
C000C0
C000C0
C000C0
C000C0
C000C0
C000C0
FFFFC0
FFFFC0
C000C0
C000C0
C000C0
C000C0
C000C0
C000C0
C000C0
C000C0
C000C0
C000C0
C000C0
C000C0
ENDCHAR
STARTCHAR 04C8
ENCODING 1224
SWIDTH 542 0
DWIDTH 19 0
BBX 16 19 2 0
BITMAP
E007
E007
E007
E007
E007
E007
E007
E007
FFFF
FFFF
E007
E007
E007
E007
E007
E007
E007
E007
E007
ENDCHAR
STARTCHAR 04CB
ENCODING 1227
SWIDTH 628 0
DWIDTH 22 0
BBX 18 31 2 -5
BITMAP
E001C0
E001C0
E001C0
E001C0
E001C0
E001C0
E001C0
E001C0
E001C0
E001C0
E001C0
7001C0
7801C0
3FFFC0
1FFFC0
0001C0
0001C0
0001C0
0001C0
0001C0
0001C0
0001C0
0001C0
0001C0
0007C0
0007C0
000600
000600
000600
000600
000600
ENDCHAR
STARTCHAR 04CC
ENCODING 1228
SWIDTH 514 0
DWIDTH 18 0
BBX 14 24 1 -5
BITMAP
E00C
E00C
E00C
E00C
E00C
E00C
E00C
E00C
700C
780C
3FFC
1FFC
000C
000C
000C
000C
000C
007C
007C
0070
0070
0070
0070
0070
ENDCHAR
STARTCHAR 04D0
ENCODING 1232
SWIDTH 742 0
DWIDTH 26 0
BBX 24 33 1 0
BITMAP
018180
01C380
00FF00
007E00
000000
000000
000000
003C00
003C00
007C00
007E00
006600
00E700
00C700
01C380
01C380
038180
0381C0
0301C0
0700E0
0600E0
0E0070
0FFFF0
1FFFF0
1C0038
180038
38001C
38001C
70000E
70000E
E00006
E00007
C00007
ENDCHAR
STARTCHAR 04D1
ENCODING 1233
SWIDTH 685 0
DWIDTH 24 0
BBX 21 26 1 0
BITMAP
018180
01C380
00FF00
007E00
000000
000000
000000
01FC38
07FF38
0F8FB8
1E01F8
3800F8
700078
700078
600038
600038
E00038
600038
600038
700078
700078
3800F8
1E01F8
0FCFB8
07FF38
01FC38
ENDCHAR
STARTCHAR 04D2
ENCODING 1234
SWIDTH 742 0
DWIDTH 26 0
BBX 24 33 1 0
BITMAP
00E700
00E700
00E700
00E700
000000
000000
000000
003C00
003C00
007C00
007E00
006600
00E700
00C700
01C380
01C380
038180
0381C0
0301C0
0700E0
0600E0
0E0070
0FFFF0
1FFFF0
1C0038
180038
38001C
38001C
70000E
70000E
E00006
E00007
C00007
ENDCHAR
STARTCHAR 04D3
ENCODING 1235
SWIDTH 685 0
DWIDTH 24 0
BBX 21 26 1 0
BITMAP
00E700
00E700
00E700
00E700
000000
000000
000000
01FC38
07FF38
0F8FB8
1E01F8
3800F8
700078
700078
600038
600038
E00038
600038
600038
700078
700078
3800F8
1E01F8
0FCFB8
07FF38
01FC38
ENDCHAR
STARTCHAR 04D4
ENCODING 1236
SWIDTH 1000 0
DWIDTH 35 0
BBX 32 26 1 0
BITMAP
00007FFF
0000FFFF
0000F800
0001F800
0003B800
0007B800
00073800
000E3800
001E3800
001C3800
00383800
00783800
00703FFE
00E03FFE
01E03800
01FFF800
03FFF800
07003800
07003800
0E003800
1C003800
3C003800
38003800
70003800
E0003FFF
E0003FFF
ENDCHAR
STARTCHAR 04D5
ENCODING 1237
SWIDTH 1171 0
DWIDTH 41 0
BBX 38 19 1 0
BITMAP
01FC387E00
07FF39FFC0
0F8FBBF7E0
1C01FF00F0
3800FE0038
70007C0018
700038001C
600038001C
60003FFFFC
E0003FFFFC
6000380000
6000380000
7000380000
70007C0018
3800FE0038
1E01FF00F0
0F8FBBF7E0
07FF39FFC0
01FC387E00
ENDCHAR
STARTCHAR 04D6
ENCODING 1238
SWIDTH 542 0
DWIDTH 19 0
BBX 14 33 3 0
BITMAP
3030
3870
1FE0
0F80
0000
0000
0000
FFFC
FFFC
C000
C000
C000
C000
C000
C000
C000
C000
C000
C000
FFF8
FFF8
C000
C000
C000
C000
C000
C000
C000
C000
C000
C000
FFFC
FFFC
ENDCHAR
STARTCHAR 04D7
ENCODING 1239
SWIDTH 657 0
DWIDTH 23 0
BBX 20 26 1 0
BITMAP
018180
01C380
00FF00
007C00
000000
000000
000000
01FC00
07FF00
0FDF80
1C01C0
3800E0
700070
700070
600030
7FFFF0
FFFFF0
600000
600000
700000
700070
3800E0
1C01C0
0F8F80
07FF00
01FC00
ENDCHAR
STARTCHAR 04D8
ENCODING 1240
SWIDTH 885 0
DWIDTH 31 0
BBX 27 26 2 0
BITMAP
007F8000
01FFF000
07F3F800
0F003E00
1C000F00
38000700
38000380
000001C0
000001C0
000001C0
000000C0
000000E0
FFFFFFE0
FFFFFFE0
C00000E0
C00000E0
E00000C0
E00001C0
700001C0
70000380
38000700
1E000F00
0F003E00
07F1F800
01FFF000
007F8000
ENDCHAR
STARTCHAR 04D9
ENCODING 1241
SWIDTH 657 0
DWIDTH 23 0
BBX 20 19 1 0
BITMAP
01FC00
07FF00
0F9F80
1C03C0
3800E0
700060
000070
000030
000030
FFFFF0
7FFFF0
600030
700070
700060
3800E0
1C01C0
0FDF80
07FF00
01FC00
ENDCHAR
STARTCHAR 04DA
ENCODING 1242
SWIDTH 885 0
DWIDTH 31 0
BBX 27 33 2 0
BITMAP
00718000
00718000
00718000
00718000
00718000
00000000
00000000
007F8000
01FFF000
07F3F800
0F003E00
1C000F00
38000700
38000380
000001C0
000001C0
000001C0
000000C0
000000E0
FFFFFFE0
FFFFFFE0
C00000E0
C00000E0
E00000C0
E00001C0
700001C0
70000380
38000700
1E000F00
0F003E00
07F1F800
01FFF000
007F8000
ENDCHAR
STARTCHAR 04DB
ENCODING 1243
SWIDTH 657 0
DWIDTH 23 0
BBX 20 26 1 0
BITMAP
038C00
038C00
038C00
038C00
038C00
000000
000000
01FC00
07FF00
0F9F80
1C03C0
3800E0
700060
000070
000030
000030
FFFFF0
7FFFF0
600030
700070
700060
3800E0
1C01C0
0FDF80
07FF00
01FC00
ENDCHAR
STARTCHAR 04DC
ENCODING 1244
SWIDTH 971 0
DWIDTH 34 0
BBX 30 33 2 0
BITMAP
001CE000
001CE000
001CE000
001CE000
00000000
00000000
00000000
F003801C
70038038
38038070
1C0380F0
1E0380E0
0E0381C0
07038380
03838700
01C38F00
01E38E00
00E39C00
0073B800
003BF800
0073B800
00F39C00
00E39E00
01C38E00
03838700
07838380
070383C0
0E0381C0
1C0380E0
3C038070
78038038
7003803C
E003801C
ENDCHAR
STARTCHAR 04DD
ENCODING 1245
SWIDTH 800 0
DWIDTH 28 0
BBX 27 26 1 0
BITMAP
00738000
00738000
00738000
00738000
00000000
00000000
00000000
E00C01C0
700C0380
380C0780
3C0C0700
1C0C0E00
0E0C1C00
070C3800
038C3800
03CC7000
01CCE000
03CC7000
038C3800
070C3C00
0E0C1C00
1C0C0E00
380C0700
780C0380
F00C01C0
E00C01E0
ENDCHAR
STARTCHAR 04DE
ENCODING 1246
SWIDTH 571 0
DWIDTH 20 0
BBX 21 33 2 0
BITMAP
01CE00
01CE00
01CE00
01CE00
01CE00
000000
000000
01FC00
07FF80
0FCFC0
1C01E0
3800F0
700070
700070
000070
000070
0000E0
0001E0
00FFC0
00FF80
0007E0
0000F0
000070
000030
000038
000038
E00038
F00030
780070
3C00F0
1F8FE0
0FFF80
01FE00
ENDCHAR
STARTCHAR 04DF
ENCODING 1247
SWIDTH 400 0
DWIDTH 14 0
BBX 15 26 1 0
BITMAP
0C60
0C60
0C60
0C60
0C60
0000
0000
07E0
1FF0
3EF8
381C
701C
001C
0018
07F8
07E0
07F8
001C
000E
0006
C006
E006
700E
3E7C
1FF8
07E0
ENDCHAR
STARTCHAR 04E0
ENCODING 1248
SWIDTH 571 0
DWIDTH 20 0
BBX 21 26 2 0
BITMAP
01FC00
07FF80
0FCFC0
1C01E0
3800F0
700070
700070
000070
000070
0000E0
0001E0
00FFC0
00FF80
0003E0
0000E0
000070
000030
000038
000038
E00038
F00030
780070
3C00E0
1F8FE0
07FF80
01FE00
ENDCHAR
STARTCHAR 04E1
ENCODING 1249
SWIDTH 400 0
DWIDTH 14 0
BBX 15 19 1 0
BITMAP
07E0
1FF0
3EF8
381C
701C
001C
0018
07F8
07E0
07F8
001C
000E
0006
C006
E00E
700E
3E7C
1FF8
07E0
ENDCHAR
STARTCHAR 04E2
ENCODING 1250
SWIDTH 742 0
DWIDTH 26 0
BBX 20 32 3 0
BITMAP
0FFF00
0FFF00
000000
000000
000000
000000
C00070
C00070
C000F0
C001F0
C001F0
C003B0
C00730
C00730
C00E30
C01C30
C01C30
C03830
C07030
C07030
C0E030
C1C030
C1C030
C38030
C70030
C70030
CE0030
DC0030
F80030
F80030
F00030
E00030
ENDCHAR
STARTCHAR 04E3
ENCODING 1251
SWIDTH 600 0
DWIDTH 21 0
BBX 17 25 2 0
BITMAP
1FFE00
1FFE00
000000
000000
000000
000000
E00380
E00780
E00780
E00F80
E01D80
E03980
E03180
E07180
E0E180
E1C180
E18180
E30180
E70180
EE0180
FC0180
F80180
F80180
F00180
E00180
ENDCHAR
STARTCHAR 04E4
ENCODING 1252
SWIDTH 742 0
DWIDTH 26 0
BBX 20 34 3 0
BITMAP
039C00
039C00
039C00
039C00
039C00
000000
000000
000000
C00070
C00070
C000F0
C001F0
C001F0
C003B0
C00730
C00730
C00E30
C01C30
C01C30
C03830
C07030
C07030
C0E030
C1C030
C1C030
C38030
C70030
C70030
CE0030
DC0030
F80030
F80030
F00030
E00030
ENDCHAR
STARTCHAR 04E5
ENCODING 1253
SWIDTH 600 0
DWIDTH 21 0
BBX 17 27 2 0
BITMAP
063800
063800
063800
063800
063800
000000
000000
000000
E00380
E00780
E00780
E00F80
E01D80
E03980
E03180
E07180
E0E180
E1C180
E18180
E30180
E70180
EE0180
FC0180
F80180
F80180
F00180
E00180
ENDCHAR
STARTCHAR 04E6
ENCODING 1254
SWIDTH 857 0
DWIDTH 30 0
BBX 27 33 2 0
BITMAP
00738000
00738000
00738000
00738000
00000000
00000000
00000000
003F8000
01FFF000
07F3F800
0F003E00
1E000F00
38000700
78000380
700001C0
E00001C0
E00000C0
E00000E0
C00000E0
C00000E0
C00000E0
C00000E0
E00000E0
E00000C0
E00001C0
700001C0
78000380
38000700
1E000E00
0F003C00
07F1F800
01FFF000
007F8000
ENDCHAR
STARTCHAR 04E7
ENCODING 1255
SWIDTH 657 0
DWIDTH 23 0
BBX 20 26 1 0
BITMAP
018C00
018C00
018C00
018C00
000000
000000
000000
01FC00
07FF00
0F8F80
1C03C0
3800E0
700070
700070
600030
600030
E00030
600030
600030
700070
700070
3800E0
1C01C0
0F8F80
07FF00
01FC00
ENDCHAR
STARTCHAR 04E8
ENCODING 1256
SWIDTH 857 0
DWIDTH 30 0
BBX 27 26 2 0
BITMAP
003F8000
01FFF000
07F3F800
0F003E00
1E000F00
38000700
70000380
700001C0
E00001C0
E00000C0
C00000E0
C00000E0
FFFFFFE0
FFFFFFE0
C00000E0
E00000E0
E00000C0
E00001C0
700001C0
78000380
3C000700
1E000E00
0F003C00
07F1F800
01FFF000
007F8000
ENDCHAR
STARTCHAR 04E9
ENCODING 1257
SWIDTH 657 0
DWIDTH 23 0
BBX 20 19 1 0
BITMAP
01FC00
07FF00
0FDF80
1C03C0
3800E0
700070
700070
600070
600030
FFFFF0
7FFFF0
600030
700070
700070
3800E0
1C01C0
0FDFC0
07FF00
01FC00
ENDCHAR
STARTCHAR 04EA
ENCODING 1258
SWIDTH 857 0
DWIDTH 30 0
BBX 27 33 2 0
BITMAP
00738000
00738000
00738000
00738000
00000000
00000000
00000000
003F8000
01FFF000
07F3F800
0F003E00
1E000F00
38000700
70000380
700001C0
E00001C0
E00000C0
C00000E0
C00000E0
FFFFFFE0
FFFFFFE0
C00000E0
E00000E0
E00000C0
E00001C0
700001C0
78000380
3C000700
1E000E00
0F003C00
07F1F800
01FFF000
007F8000
ENDCHAR
STARTCHAR 04EB
ENCODING 1259
SWIDTH 657 0
DWIDTH 23 0
BBX 20 26 1 0
BITMAP
018C00
018C00
018C00
018C00
000000
000000
000000
01FC00
07FF00
0FDF80
1C03C0
3800E0
700070
700070
600070
600030
FFFFF0
7FFFF0
600030
700070
700070
3800E0
1C01C0
0FDFC0
07FF00
01FC00
ENDCHAR
STARTCHAR 04EC
ENCODING 1260
SWIDTH 800 0
DWIDTH 28 0
BBX 25 33 2 0
BITMAP
00C60000
00C60000
00C60000
00C60000
00C60000
00000000
00000000
00FE0000
07FFC000
1FE7F000
3C00F800
78003C00
70001E00
E0000E00
00000700
00000700
00000300
00000380
00000380
01FFFF80
01FFFF80
00000380
00000380
00000380
00000700
00000700
E0000E00
F0001E00
78003C00
3C00F800
1FC7F000
07FFC000
01FE0000
ENDCHAR
STARTCHAR 04ED
ENCODING 1261
SWIDTH 657 0
DWIDTH 23 0
BBX 19 26 2 0
BITMAP
073800
073800
073800
073800
073800
000000
000000
03F000
0FFE00
3F3F00
780780
F003C0
E001C0
0000E0
0000E0
000060
07FFE0
07FFE0
0000E0
0000E0
E000C0
F001C0
780780
3F3F00
1FFE00
03F000
ENDCHAR
STARTCHAR 04EE
ENCODING 1262
SWIDTH 600 0
DWIDTH 21 0
BBX 20 31 0 0
BITMAP
07FF00
07FF00
000000
000000
000000
E00030
700070
700060
3800E0
3800C0
1C01C0
1C0180
0E0380
0E0300
070700
070E00
038E00
039C00
01DC00
01F800
00F800
00F000
007000
00E000
00E000
01C000
018000
038000
030000
070000
060000
ENDCHAR
STARTCHAR 04EF
ENCODING 1263
SWIDTH 542 0
DWIDTH 19 0
BBX 17 31 1 -7
BITMAP
3FFC00
3FFC00
000000
000000
000000
C00380
E00380
E00300
700700
700700
300E00
380E00
381C00
1C1C00
1C1800
0C3800
0E3800
0E7000
077000
076000
03E000
03C000
03C000
01C000
038000
038000
070000
070000
060000
0E0000
0E0000
ENDCHAR
STARTCHAR 04F0
ENCODING 1264
SWIDTH 600 0
DWIDTH 21 0
BBX 20 33 0 0
BITMAP
018C00
018C00
018C00
018C00
000000
000000
000000
E00030
700070
700060
3800E0
3800C0
1C01C0
1C0180
0E0380
0E0300
070700
070E00
038E00
039C00
01DC00
01F800
00F800
00F000
007000
00E000
00E000
01C000
018000
038000
030000
070000
060000
ENDCHAR
STARTCHAR 04F1
ENCODING 1265
SWIDTH 542 0
DWIDTH 19 0
BBX 17 33 1 -7
BITMAP
063000
063000
063000
063000
000000
000000
000000
C00380
E00380
E00300
700700
700700
300E00
380E00
381C00
1C1C00
1C1800
0C3800
0E3800
0E7000
077000
076000
03E000
03C000
03C000
01C000
038000
038000
070000
070000
060000
0E0000
0E0000
ENDCHAR
STARTCHAR 04F2
ENCODING 1266
SWIDTH 600 0
DWIDTH 21 0
BBX 20 34 0 1
BITMAP
003860
0078F0
00E3C0
03C780
030600
000000
000000
000000
E00030
700070
700060
3800E0
3800C0
1C01C0
1C0180
0E0380
0E0300
070700
070E00
038E00
039C00
01DC00
01F800
00F800
00F000
007000
00E000
00E000
01C000
018000
038000
030000
070000
060000
ENDCHAR
STARTCHAR 04F3
ENCODING 1267
SWIDTH 542 0
DWIDTH 19 0
BBX 18 34 1 -6
BITMAP
00C180
01E3C0
038F00
0F1E00
0C1800
000000
000000
000000
C00380
E00380
E00300
700700
700700
300E00
380E00
381C00
1C1C00
1C1800
0C3800
0E3800
0E7000
077000
076000
03E000
03C000
03C000
01C000
038000
038000
070000
070000
060000
0E0000
0E0000
ENDCHAR
STARTCHAR 04F4
ENCODING 1268
SWIDTH 628 0
DWIDTH 22 0
BBX 18 33 2 0
BITMAP
073800
073800
073800
073800
000000
000000
000000
E001C0
E001C0
E001C0
E001C0
E001C0
E001C0
E001C0
E001C0
E001C0
E001C0
E001C0
6001C0
7001C0
3C01C0
3FFFC0
07FFC0
0001C0
0001C0
0001C0
0001C0
0001C0
0001C0
0001C0
0001C0
0001C0
0001C0
ENDCHAR
STARTCHAR 04F5
ENCODING 1269
SWIDTH 514 0
DWIDTH 18 0
BBX 14 26 1 0
BITMAP
1C60
1C60
1C60
1C60
0000
0000
0000
E00C
E00C
E00C
E00C
E00C
E00C
E00C
E00C
600C
780C
3FFC
1FFC
000C
000C
000C
000C
000C
000C
000C
ENDCHAR
STARTCHAR 04F8
ENCODING 1272
SWIDTH 771 0
DWIDTH 27 0
BBX 22 33 3 0
BITMAP
039C00
039C00
039C00
039C00
000000
000000
000000
C0000C
C0000C
C0000C
C0000C
C0000C
C0000C
C0000C
C0000C
C0000C
C0000C
FFF00C
FFFC0C
C03F0C
C0070C
C0038C
C0038C
C0038C
C0018C
C0018C
C0038C
C0038C
C0078C
C00F0C
C0FE0C
FFFC0C
FFE00C
ENDCHAR
STARTCHAR 04F9
ENCODING 1273
SWIDTH 628 0
DWIDTH 22 0
BBX 19 26 2 0
BITMAP
073800
073800
073800
073800
000000
000000
000000
E00060
E00060
E00060
E00060
E00060
E00060
FFE060
FFF860
E0FC60
E01E60
E00E60
E00E60
E00660
E00660
E00E60
E01E60
E07C60
FFF860
FFE060
ENDCHAR
STARTCHAR 0E3F
ENCODING 3647
SWIDTH 571 0
DWIDTH 20 0
BBX 16 32 3 -3
BITMAP
0300
0300
0300
FFC0
FFF0
C1F8
C01C
C00C
C00E
C00E
C00E
C00C
C01C
C038
FFF0
FFF8
C07C
C00E
C007
C007
C007
C007
C007
C007
C007
C00E
C0FC
FFF8
FFE0
0300
0300
0300
ENDCHAR
STARTCHAR 1E0C
ENCODING 7692
SWIDTH 742 0
DWIDTH 26 0
BBX 22 32 3 -6
BITMAP
FFF000
FFFE00
C0FF00
C007C0
C001E0
C000E0
C00070
C00030
C00038
C00038
C00018
C00018
C0001C
C0001C
C00018
C00018
C00038
C00038
C00038
C00070
C000E0
C001E0
C007C0
C07F00
FFFE00
FFE000
000000
000000
006000
006000
006000
006000
ENDCHAR
STARTCHAR 1E0D
ENCODING 7693
SWIDTH 685 0
DWIDTH 24 0
BBX 21 32 1 -6
BITMAP
000038
000038
000038
000038
000038
000038
000038
01FC38
07FF38
0F87B8
1E01F8
3800F8
700078
700038
600038
600038
E00038
600038
600038
700038
700078
380078
1C01F8
0F03B8
07FF38
01FC38
000000
000000
003000
003000
003000
003000
ENDCHAR
STARTCHAR 1E0E
ENCODING 7694
SWIDTH 742 0
DWIDTH 26 0
BBX 22 31 3 -5
BITMAP
FFF000
FFFE00
C0FF00
C007C0
C001E0
C000E0
C00070
C00030
C00038
C00038
C00018
C00018
C0001C
C0001C
C00018
C00018
C00038
C00038
C00038
C00070
C000E0
C001E0
C007C0
C07F00
FFFE00
FFE000
000000
000000
000000
0FFF00
0FFF00
ENDCHAR
STARTCHAR 1E0F
ENCODING 7695
SWIDTH 685 0
DWIDTH 24 0
BBX 21 31 1 -5
BITMAP
000038
000038
000038
000038
000038
000038
000038
01FC38
07FF38
0F87B8
1E01F8
3800F8
700078
700038
600038
600038
E00038
600038
600038
700038
700078
380078
1C01F8
0F03B8
07FF38
01FC38
000000
000000
000000
07FF80
07FF80
ENDCHAR
STARTCHAR 1E24
ENCODING 7716
SWIDTH 685 0
DWIDTH 24 0
BBX 18 32 3 -6
BITMAP
C000C0
C000C0
C000C0
C000C0
C000C0
C000C0
C000C0
C000C0
C000C0
C000C0
C000C0
C000C0
FFFFC0
FFFFC0
C000C0
C000C0
C000C0
C000C0
C000C0
C000C0
C000C0
C000C0
C000C0
C000C0
C000C0
C000C0
000000
000000
00C000
00C000
00C000
00C000
ENDCHAR
STARTCHAR 1E25
ENCODING 7717
SWIDTH 600 0
DWIDTH 21 0
BBX 17 32 2 -6
BITMAP
E00000
E00000
E00000
E00000
E00000
E00000
E00000
E3F000
EFFC00
FF7E00
F80F00
F00700
E00380
E00380
E00380
E00180
E00180
E00180
E00180
E00180
E00180
E00180
E00180
E00180
E00180
E00180
000000
000000
01C000
01C000
01C000
01C000
ENDCHAR
STARTCHAR 1E26
ENCODING 7718
SWIDTH 685 0
DWIDTH 24 0
BBX 18 32 3 0
BITMAP
073800
073800
073800
073800
000000
000000
C000C0
C000C0
C000C0
C000C0
C000C0
C000C0
C000C0
C000C0
C000C0
C000C0
C000C0
C000C0
FFFFC0
FFFFC0
C000C0
C000C0
C000C0
C000C0
C000C0
C000C0
C000C0
C000C0
C000C0
C000C0
C000C0
C000C0
ENDCHAR
STARTCHAR 1E27
ENCODING 7719
SWIDTH 600 0
DWIDTH 21 0
BBX 17 32 2 0
BITMAP
063800
063800
063800
063800
000000
000000
E00000
E00000
E00000
E00000
E00000
E00000
E00000
E3F000
EFFC00
FF7E00
F80F00
F00700
E00380
E00380
E00380
E00180
E00180
E00180
E00180
E00180
E00180
E00180
E00180
E00180
E00180
E00180
ENDCHAR
STARTCHAR 1E2A
ENCODING 7722
SWIDTH 685 0
DWIDTH 24 0
BBX 18 32 3 -6
BITMAP
C000C0
C000C0
C000C0
C000C0
C000C0
C000C0
C000C0
C000C0
C000C0
C000C0
C000C0
C000C0
FFFFC0
FFFFC0
C000C0
C000C0
C000C0
C000C0
C000C0
C000C0
C000C0
C000C0
C000C0
C000C0
C000C0
C000C0
000000
000000
0C0C00
0E1C00
07F800
03F000
ENDCHAR
STARTCHAR 1E2B
ENCODING 7723
SWIDTH 600 0
DWIDTH 21 0
BBX 17 32 2 -6
BITMAP
E00000
E00000
E00000
E00000
E00000
E00000
E00000
E3F000
EFFC00
FF7E00
F80F00
F00700
E00380
E00380
E00380
E00180
E00180
E00180
E00180
E00180
E00180
E00180
E00180
E00180
E00180
E00180
000000
000000
1C0C00
0E1C00
0FF800
03E000
ENDCHAR
STARTCHAR 1E36
ENCODING 7734
SWIDTH 457 0
DWIDTH 16 0
BBX 13 32 3 -6
BITMAP
C000
C000
C000
C000
C000
C000
C000
C000
C000
C000
C000
C000
C000
C000
C000
C000
C000
C000
C000
C000
C000
C000
C000
C000
FFF8
FFF8
0000
0000
0700
0700
0700
0700
ENDCHAR
STARTCHAR 1E37
ENCODING 7735
SWIDTH 200 0
DWIDTH 7 0
BBX 3 32 2 -6
BITMAP
E0
E0
E0
E0
E0
E0
E0
E0
E0
E0
E0
E0
E0
E0
E0
E0
E0
E0
E0
E0
E0
E0
E0
E0
E0
E0
00
00
E0
E0
E0
E0
ENDCHAR
STARTCHAR 1E38
ENCODING 7736
SWIDTH 457 0
DWIDTH 16 0
BBX 18 37 -2 -6
BITMAP
FFF000
FFF000
000000
000000
000000
060000
060000
060000
060000
060000
060000
060000
060000
060000
060000
060000
060000
060000
060000
060000
060000
060000
060000
060000
060000
060000
060000
060000
060000
07FFC0
07FFC0
000000
000000
003800
003800
003800
003800
ENDCHAR
STARTCHAR 1E39
ENCODING 7737
SWIDTH 200 0
DWIDTH 7 0
BBX 11 37 -2 -6
BITMAP
FFE0
FFE0
0000
0000
0000
0E00
0E00
0E00
0E00
0E00
0E00
0E00
0E00
0E00
0E00
0E00
0E00
0E00
0E00
0E00
0E00
0E00
0E00
0E00
0E00
0E00
0E00
0E00
0E00
0E00
0E00
0000
0000
0E00
0E00
0E00
0E00
ENDCHAR
STARTCHAR 1E42
ENCODING 7746
SWIDTH 914 0
DWIDTH 32 0
BBX 27 32 3 -6
BITMAP
F00003E0
F00003E0
F80007E0
D80007E0
DC0006E0
DC000EE0
CC000CE0
CE001CE0
C6001CE0
C70038E0
C70038E0
C38030E0
C38070E0
C18060E0
C1C0E0E0
C0C0E0E0
C0E1C0E0
C0E1C0E0
C07180E0
C07380E0
C03300E0
C03F00E0
C03F00E0
C01E00E0
C01E00E0
C00C00E0
00000000
00000000
000C0000
000C0000
000C0000
000C0000
ENDCHAR
STARTCHAR 1E43
ENCODING 7747
SWIDTH 942 0
DWIDTH 33 0
BBX 29 25 2 -6
BITMAP
E3E03F00
EFF8FFC0
F83DC0E0
F00D8070
F00F0070
E0070030
E0070038
E0070038
E0070038
E0070038
E0070038
E0070038
E0070038
E0070038
E0070038
E0070038
E0070038
E0070038
E0070038
00000008
00000000
00070000
00070000
00070000
00070000
ENDCHAR
STARTCHAR 1E44
ENCODING 7748
SWIDTH 742 0
DWIDTH 26 0
BBX 20 32 3 0
BITMAP
006000
006000
006000
006000
000000
000000
F00030
F00030
F80030
FC0030
DC0030
CE0030
CF0030
C70030
C38030
C1C030
C1C030
C0E030
C07030
C07030
C03830
C01C30
C01C30
C00E30
C00730
C00730
C003B0
C001F0
C001F0
C000F0
C00070
C00070
ENDCHAR
STARTCHAR 1E45
ENCODING 7749
SWIDTH 600 0
DWIDTH 21 0
BBX 17 25 2 -1
BITMAP
01C000
01C000
01C000
01C000
000000
000000
E3F000
EFFC00
FC1E00
F00700
F00300
E00380
E00380
E00380
E00180
E00180
E00180
E00180
E00180
E00180
E00180
E00180
E00180
E00180
E00180
ENDCHAR
STARTCHAR 1E46
ENCODING 7750
SWIDTH 742 0
DWIDTH 26 0
BBX 20 32 3 -6
BITMAP
F00030
F00030
F80030
FC0030
DC0030
CE0030
CF0030
C70030
C38030
C1C030
C1C030
C0E030
C07030
C07030
C03830
C01C30
C01C30
C00E30
C00730
C00730
C003B0
C001F0
C001F0
C000F0
C00070
C00070
000000
000000
006000
006000
006000
006000
ENDCHAR
STARTCHAR 1E47
ENCODING 7751
SWIDTH 600 0
DWIDTH 21 0
BBX 17 25 2 -6
BITMAP
E3F000
EFFC00
FC1E00
F00700
F00300
E00380
E00380
E00380
E00180
E00180
E00180
E00180
E00180
E00180
E00180
E00180
E00180
E00180
E00180
000000
000000
01C000
01C000
01C000
01C000
ENDCHAR
STARTCHAR 1E58
ENCODING 7768
SWIDTH 600 0
DWIDTH 21 0
BBX 17 32 3 0
BITMAP
038000
038000
038000
038000
000000
000000
FFE000
FFFC00
C0FE00
C00F00
C00780
C00380
C00380
C00180
C00180
C00180
C00380
C00380
C00700
C01F00
C7FE00
C3F800
C1C000
C1C000
C0E000
C07000
C07800
C03800
C01C00
C00E00
C00F00
C00700
ENDCHAR
STARTCHAR 1E59
ENCODING 7769
SWIDTH 314 0
DWIDTH 11 0
BBX 8 25 2 0
BITMAP
70
70
70
70
00
00
E3
EF
FC
F0
F0
E0
E0
E0
E0
E0
E0
E0
E0
E0
E0
E0
E0
E0
E0
ENDCHAR
STARTCHAR 1E5A
ENCODING 7770
SWIDTH 600 0
DWIDTH 21 0
BBX 17 32 3 -6
BITMAP
FFE000
FFFC00
C0FE00
C00F00
C00780
C00380
C00380
C00180
C00180
C00180
C00380
C00380
C00700
C01F00
C7FE00
C3F800
C1C000
C1C000
C0E000
C07000
C07800
C03800
C01C00
C00E00
C00F00
C00700
000000
000000
038000
038000
038000
038000
ENDCHAR
STARTCHAR 1E5B
ENCODING 7771
SWIDTH 314 0
DWIDTH 11 0
BBX 8 25 2 -6
BITMAP
E3
EF
FC
F0
F0
E0
E0
E0
E0
E0
E0
E0
E0
E0
E0
E0
E0
E0
E0
00
00
E0
E0
E0
E0
ENDCHAR
STARTCHAR 1E5C
ENCODING 7772
SWIDTH 600 0
DWIDTH 21 0
BBX 17 37 3 -6
BITMAP
3FFC00
3FFC00
000000
000000
000000
FFE000
FFFC00
C0FE00
C00F00
C00780
C00380
C00380
C00180
C00180
C00180
C00380
C00380
C00700
C01F00
C7FE00
C3F800
C1C000
C1C000
C0E000
C07000
C07800
C03800
C01C00
C00E00
C00F00
C00700
000000
000000
038000
038000
038000
038000
ENDCHAR
STARTCHAR 1E5D
ENCODING 7773
SWIDTH 314 0
DWIDTH 11 0
BBX 12 30 -1 -6
BITMAP
FFF0
FFF0
0000
0000
0000
1C60
1DE0
1F80
1E00
1E00
1C00
1C00
1C00
1C00
1C00
1C00
1C00
1C00
1C00
1C00
1C00
1C00
1C00
1C00
0000
0000
1C00
1C00
1C00
1C00
ENDCHAR
STARTCHAR 1E62
ENCODING 7778
SWIDTH 485 0
DWIDTH 17 0
BBX 16 32 1 -6
BITMAP
07E0
1FF8
3EFC
381C
700E
600E
600E
6000
7000
7000
3800
3F00
0FE0
03F8
003C
000E
0006
0007
E007
E007
E006
F00E
781E
3E7C
1FF8
07E0
0000
0000
0380
0380
0380
0380
ENDCHAR
STARTCHAR 1E63
ENCODING 7779
SWIDTH 400 0
DWIDTH 14 0
BBX 12 25 1 -6
BITMAP
1F00
3FC0
7BE0
70E0
E0E0
E000
E000
7000
7E00
1F80
07C0
00E0
0060
C070
C060
E0E0
7BE0
7FC0
1F00
0000
0000
0E00
0E00
0E00
0E00
ENDCHAR
STARTCHAR 1E6C
ENCODING 7788
SWIDTH 428 0
DWIDTH 15 0
BBX 15 32 0 -6
BITMAP
FFFE
FFFE
0380
0380
0380
0380
0380
0380
0380
0380
0380
0380
0380
0380
0380
0380
0380
0380
0380
0380
0380
0380
0380
0380
0380
0380
0000
0000
0380
0380
0380
0380
ENDCHAR
STARTCHAR 1E6D
ENCODING 7789
SWIDTH 342 0
DWIDTH 12 0
BBX 11 32 0 -6
BITMAP
0600
0600
0600
0600
0600
0600
0600
FFE0
FFE0
0600
0600
0600
0600
0600
0600
0600
0600
0600
0600
0600
0600
0600
0600
0600
0600
0600
0000
0000
0600
0600
0600
0600
ENDCHAR
STARTCHAR 1E6E
ENCODING 7790
SWIDTH 428 0
DWIDTH 15 0
BBX 15 31 0 -5
BITMAP
FFFE
FFFE
0380
0380
0380
0380
0380
0380
0380
0380
0380
0380
0380
0380
0380
0380
0380
0380
0380
0380
0380
0380
0380
0380
0380
0380
0000
0000
0000
3FF8
3FF8
ENDCHAR
STARTCHAR 1E6F
ENCODING 7791
SWIDTH 342 0
DWIDTH 12 0
BBX 12 31 0 -5
BITMAP
0600
0600
0600
0600
0600
0600
0600
FFE0
FFE0
0600
0600
0600
0600
0600
0600
0600
0600
0600
0600
0600
0600
0600
0600
0600
0600
0600
0000
0000
0000
FFF0
FFF0
ENDCHAR
STARTCHAR 1E80
ENCODING 7808
SWIDTH 971 0
DWIDTH 34 0
BBX 33 33 0 0
BITMAP
000C000000
000E000000
000F800000
0003E00000
0000E00000
0000600000
0000000000
E001C00380
6001C00380
7001E00380
7001E00300
3003E00700
3803F00700
3803700600
3803300E00
1807300E00
1C06380E00
1C06380C00
0C0E181C00
0E0E181C00
0E0C1C1800
0E0C1C1800
061C0C3800
071C0E3800
07180E3000
03380E7000
03B8067000
03B8076000
03B0076000
01F003E000
01F003E000
01F003C000
00E003C000
ENDCHAR
STARTCHAR 1E81
ENCODING 7809
SWIDTH 828 0
DWIDTH 29 0
BBX 29 27 0 0
BITMAP
00200000
00380000
003E0000
000F0000
00078000
00010000
00000000
00000000
E0000038
60000030
70070070
30070060
38070060
380F80E0
180D80C0
1C0D81C0
1C1DC1C0
0C19C180
0E18C380
0638E300
0730E700
07306700
03707600
03E07E00
01E03C00
01E03C00
01E03C00
ENDCHAR
STARTCHAR 1E82
ENCODING 7810
SWIDTH 971 0
DWIDTH 34 0
BBX 33 33 0 0
BITMAP
0000080000
00003C0000
0000780000
0001F00000
0003C00000
0001000000
0000000000
E001C00380
6001C00380
7001E00380
7001E00300
3003E00700
3803F00700
3803700600
3803300E00
1807300E00
1C06380E00
1C06380C00
0C0E181C00
0E0E181C00
0E0C1C1800
0E0C1C1800
061C0C3800
071C0E3800
07180E3000
03380E7000
03B8067000
03B8076000
03B0076000
01F003E000
01F003E000
01F003C000
00E003C000
ENDCHAR
STARTCHAR 1E83
ENCODING 7811
SWIDTH 828 0
DWIDTH 29 0
BBX 29 27 0 0
BITMAP
00002000
0000E000
0003E000
00078000
000F0000
00040000
00000000
00000000
E0000038
60000030
70070070
30070060
38070060
380F80E0
180D80C0
1C0D81C0
1C1DC1C0
0C19C180
0E18C380
0638E300
0730E700
07306700
03707600
03E07E00
01E03C00
01E03C00
01E03C00
ENDCHAR
STARTCHAR 1E84
ENCODING 7812
SWIDTH 971 0
DWIDTH 34 0
BBX 33 32 0 0
BITMAP
0007380000
0007380000
0007380000
0007380000
0000000000
0000000000
E001C00380
6001C00380
7001E00380
7001E00300
3003E00700
3803F00700
3803700600
3803300E00
1807300E00
1C06380E00
1C06380C00
0C0E181C00
0E0E181C00
0E0C1C1800
0E0C1C1800
061C0C3800
071C0E3800
07180E3000
03380E7000
03B8067000
03B8076000
03B0076000
01F003E000
01F003E000
01F003C000
00E003C000
ENDCHAR
STARTCHAR 1E85
ENCODING 7813
SWIDTH 828 0
DWIDTH 29 0
BBX 29 25 0 0
BITMAP
0018C000
0018C000
0018C000
0018C000
00000000
00000000
E0000038
60000030
70070070
30070060
38070060
380F80E0
180D80C0
1C0D81C0
1C1DC1C0
0C19C180
0E18C380
0638E300
0730E700
07306700
03707600
03E07E00
01E03C00
01E03C00
01E03C00
ENDCHAR
STARTCHAR 1E92
ENCODING 7826
SWIDTH 485 0
DWIDTH 17 0
BBX 16 32 1 -6
BITMAP
FFFE
FFFE
000E
000E
001C
0038
0038
0070
0070
00E0
01C0
01C0
0380
0380
0700
0E00
0E00
1C00
1C00
3800
7000
7000
E000
E000
FFFF
FFFF
0000
0000
0380
0380
0380
0380
ENDCHAR
STARTCHAR 1E93
ENCODING 7827
SWIDTH 428 0
DWIDTH 15 0
BBX 15 25 0 -6
BITMAP
7FFC
7FFC
001C
0038
0070
0060
00E0
01C0
0380
0380
0700
0E00
1C00
1C00
3800
7000
F000
FFFE
FFFE
0000
0000
0380
0380
0380
0380
ENDCHAR
STARTCHAR 1E97
ENCODING 7831
SWIDTH 342 0
DWIDTH 12 0
BBX 11 32 0 0
BITMAP
39C0
39C0
39C0
39C0
0000
0000
0600
0600
0600
0600
0600
0600
0600
FFE0
FFE0
0600
0600
0600
0600
0600
0600
0600
0600
0600
0600
0600
0600
0600
0600
0600
0600
0600
ENDCHAR
STARTCHAR 1EA0
ENCODING 7840
SWIDTH 742 0
DWIDTH 26 0
BBX 24 32 1 -6
BITMAP
003C00
003C00
007C00
007E00
006600
00E700
00C700
01C380
01C380
038180
0381C0
0301C0
0700E0
0600E0
0E0070
0FFFF0
1FFFF0
1C0038
180038
38001C
38001C
70000E
70000E
E00006
E00007
C00007
000000
000000
001800
001800
001800
001800
ENDCHAR
STARTCHAR 1EA1
ENCODING 7841
SWIDTH 685 0
DWIDTH 24 0
BBX 21 25 1 -6
BITMAP
01FC38
07FF38
0F8FB8
1E01F8
3800F8
700078
700078
600038
600038
E00038
600038
600038
700038
700078
3800F8
1C01F8
0F03B8
07FF38
01FC38
000000
000000
007000
007000
007000
007000
ENDCHAR
STARTCHAR 1EA2
ENCODING 7842
SWIDTH 742 0
DWIDTH 26 0
BBX 24 35 1 0
BITMAP
001C00
007E00
006600
00C600
000E00
001C00
001800
000000
000000
003C00
003C00
007C00
007E00
006600
00E700
00C700
01C380
01C380
038180
0381C0
0301C0
0700E0
0600E0
0E0070
0FFFF0
1FFFF0
1C0038
180038
38001C
38001C
70000E
70000E
E00006
E00007
C00007
ENDCHAR
STARTCHAR 1EA3
ENCODING 7843
SWIDTH 685 0
DWIDTH 24 0
BBX 21 27 1 0
BITMAP
007800
00FC00
018C00
018C00
001800
003000
003000
000000
01FC38
07FF38
0F8FB8
1E01F8
3800F8
700078
700078
600038
600038
E00038
600038
600038
700038
700078
3800F8
1C01F8
0F03B8
07FF38
01FC38
ENDCHAR
STARTCHAR 1EA4
ENCODING 7844
SWIDTH 742 0
DWIDTH 26 0
BBX 24 39 1 0
BITMAP
000100
000380
000F00
003E00
003800
002000
000000
003C00
007E00
00E700
03C3C0
000000
000000
003C00
003C00
007C00
007E00
006600
00E700
00C700
01C380
01C380
038180
0381C0
0301C0
0700E0
0600E0
0E0070
0FFFF0
1FFFF0
1C0038
180038
38001C
38001C
70000E
70000E
E00006
E00007
C00007
ENDCHAR
STARTCHAR 1EA5
ENCODING 7845
SWIDTH 685 0
DWIDTH 24 0
BBX 21 31 1 0
BITMAP
000200
000F00
003E00
007800
00F000
004000
000000
007000
00FC00
03CE00
070700
000000
01FC38
07FF38
0F8FB8
1E01F8
3800F8
700078
700078
600038
600038
E00038
600038
600038
700038
700078
3800F8
1C01F8
0F03B8
07FF38
01FC38
ENDCHAR
STARTCHAR 1EA6
ENCODING 7846
SWIDTH 742 0
DWIDTH 26 0
BBX 24 39 1 0
BITMAP
008000
01C000
01F000
007C00
001C00
000400
000000
003C00
007E00
00E700
03C3C0
000000
000000
003C00
003C00
007C00
007E00
006600
00E700
00C700
01C380
01C380
038180
0381C0
0301C0
0700E0
0600E0
0E0070
0FFFF0
1FFFF0
1C0038
180038
38001C
38001C
70000E
70000E
E00006
E00007
C00007
ENDCHAR
STARTCHAR 1EA7
ENCODING 7847
SWIDTH 685 0
DWIDTH 24 0
BBX 21 31 1 0
BITMAP
020000
038000
03E000
00F000
007800
001000
000000
007000
00FC00
03CE00
070700
000000
01FC38
07FF38
0F8FB8
1E01F8
3800F8
700078
700078
600038
600038
E00038
600038
600038
700038
700078
3800F8
1C01F8
0F03B8
07FF38
01FC38
ENDCHAR
STARTCHAR 1EA8
ENCODING 7848
SWIDTH 742 0
DWIDTH 26 0
BBX 24 40 1 0
BITMAP
000780
000FC0
0018C0
0018C0
000180
000300
000300
000000
003C00
007E00
00E700
03C3C0
000000
000000
003C00
003C00
007C00
007E00
006600
00E700
00C700
01C380
01C380
038180
0381C0
0301C0
0700E0
0600E0
0E0070
0FFFF0
1FFFF0
1C0038
180038
38001C
38001C
70000E
70000E
E00006
E00007
C00007
ENDCHAR
STARTCHAR 1EA9
ENCODING 7849
SWIDTH 685 0
DWIDTH 24 0
BBX 21 33 1 0
BITMAP
000E00
003F00
003180
003180
000700
000600
000C00
000000
007000
00F800
01DC00
038E00
070700
000000
01FC38
07FF38
0F8FB8
1E01F8
3800F8
700078
700078
600038
600038
E00038
600038
600038
700038
700078
3800F8
1C01F8
0F03B8
07FF38
01FC38
ENDCHAR
STARTCHAR 1EAA
ENCODING 7850
SWIDTH 742 0
DWIDTH 26 0
BBX 24 36 1 0
BITMAP
00F980
01FF80
008F00
000000
003C00
007E00
00E700
03C3C0
000000
000000
003C00
003C00
007C00
007E00
006600
00E700
00C700
01C380
01C380
038180
0381C0
0301C0
0700E0
0600E0
0E0070
0FFFF0
1FFFF0
1C0038
180038
38001C
38001C
70000E
70000E
E00006
E00007
C00007
ENDCHAR
STARTCHAR 1EAB
ENCODING 7851
SWIDTH 685 0
DWIDTH 24 0
BBX 21 29 1 0
BITMAP
03F600
03FE00
021C00
000000
007000
00F800
01DC00
038E00
070700
000000
01FC38
07FF38
0F8FB8
1E01F8
3800F8
700078
700078
600038
600038
E00038
600038
600038
700038
700078
3800F8
1C01F8
0F03B8
07FF38
01FC38
ENDCHAR
STARTCHAR 1EAC
ENCODING 7852
SWIDTH 742 0
DWIDTH 26 0
BBX 24 38 1 -6
BITMAP
003C00
007E00
00E700
03C3C0
000000
000000
003C00
003C00
007C00
007E00
006600
00E700
00C700
01C380
01C380
038180
0381C0
0301C0
0700E0
0600E0
0E0070
0FFFF0
1FFFF0
1C0038
180038
38001C
38001C
70000E
70000E
E00006
E00007
C00007
000000
000000
001800
001800
001800
001800
ENDCHAR
STARTCHAR 1EAD
ENCODING 7853
SWIDTH 685 0
DWIDTH 24 0
BBX 21 31 1 -6
BITMAP
007000
00FC00
03CE00
070700
000000
000000
01FC38
07FF38
0F8FB8
1E01F8
3800F8
700078
700078
600038
600038
E00038
600038
600038
700038
700078
3800F8
1C01F8
0F03B8
07FF38
01FC38
000000
000000
007000
007000
007000
007000
ENDCHAR
STARTCHAR 1EAE
ENCODING 7854
SWIDTH 742 0
DWIDTH 26 0
BBX 24 39 1 0
BITMAP
000080
0003C0
000780
001E00
003C00
001000
000000
018180
01C380
00FF00
007E00
000000
000000
003C00
003C00
007C00
007E00
006600
00E700
00C700
01C380
01C380
038180
0381C0
0301C0
0700E0
0600E0
0E0070
0FFFF0
1FFFF0
1C0038
180038
38001C
38001C
70000E
70000E
E00006
E00007
C00007
ENDCHAR
STARTCHAR 1EAF
ENCODING 7855
SWIDTH 685 0
DWIDTH 24 0
BBX 21 32 1 0
BITMAP
000100
000700
001F00
003C00
007000
006000
000000
070300
030700
038E00
01FE00
00F800
000000
01FC38
07FF38
0F8FB8
1E01F8
3800F8
700078
700078
600038
600038
E00038
600038
600038
700038
700078
3800F8
1C01F8
0F03B8
07FF38
01FC38
ENDCHAR
STARTCHAR 1EB0
ENCODING 7856
SWIDTH 742 0
DWIDTH 26 0
BBX 24 39 1 0
BITMAP
010000
03C000
01E000
00F800
003C00
000800
000000
018180
01C380
00FF00
007E00
000000
000000
003C00
003C00
007C00
007E00
006600
00E700
00C700
01C380
01C380
038180
0381C0
0301C0
0700E0
0600E0
0E0070
0FFFF0
1FFFF0
1C0038
180038
38001C
38001C
70000E
70000E
E00006
E00007
C00007
ENDCHAR
STARTCHAR 1EB1
ENCODING 7857
SWIDTH 685 0
DWIDTH 24 0
BBX 21 32 1 0
BITMAP
060000
070000
07C000
01F000
007000
003000
000000
070300
030700
038E00
01FE00
00F800
000000
01FC38
07FF38
0F8FB8
1E01F8
3800F8
700078
700078
600038
600038
E00038
600038
600038
700038
700078
3800F8
1C01F8
0F03B8
07FF38
01FC38
ENDCHAR
STARTCHAR 1EB2
ENCODING 7858
SWIDTH 742 0
DWIDTH 26 0
BBX 24 39 1 0
BITMAP
001C00
007E00
006600
00C600
000E00
001C00
001800
018180
01C380
00FF00
007E00
000000
000000
003C00
003C00
007C00
007E00
006600
00E700
00C700
01C380
01C380
038180
0381C0
0301C0
0700E0
0600E0
0E0070
0FFFF0
1FFFF0
1C0038
180038
38001C
38001C
70000E
70000E
E00006
E00007
C00007
ENDCHAR
STARTCHAR 1EB3
ENCODING 7859
SWIDTH 685 0
DWIDTH 24 0
BBX 21 31 1 0
BITMAP
007800
00FC00
018C00
018C00
001800
003000
073300
030700
038E00
01FE00
00F800
000000
01FC38
07FF38
0F8FB8
1E01F8
3800F8
700078
700078
600038
600038
E00038
600038
600038
700038
700078
3800F8
1C01F8
0F03B8
07FF38
01FC38
ENDCHAR
STARTCHAR 1EB4
ENCODING 7860
SWIDTH 742 0
DWIDTH 26 0
BBX 24 37 1 0
BITMAP
006000
01FF80
01FF00
000000
000000
018180
01C380
00FF00
007E00
000000
000000
003C00
003C00
007C00
007E00
006600
00E700
00C700
01C380
01C380
038180
0381C0
0301C0
0700E0
0600E0
0E0070
0FFFF0
1FFFF0
1C0038
180038
38001C
38001C
70000E
70000E
E00006
E00007
C00007
ENDCHAR
STARTCHAR 1EB5
ENCODING 7861
SWIDTH 685 0
DWIDTH 24 0
BBX 21 30 1 0
BITMAP
00C200
03FE00
037E00
000800
000000
070300
030700
038E00
01FE00
00F800
000000
01FC38
07FF38
0F8FB8
1E01F8
3800F8
700078
700078
600038
600038
E00038
600038
600038
700038
700078
3800F8
1C01F8
0F03B8
07FF38
01FC38
ENDCHAR
STARTCHAR 1EB6
ENCODING 7862
SWIDTH 742 0
DWIDTH 26 0
BBX 24 38 1 -6
BITMAP
018180
01C380
00FF00
007E00
000000
000000
003C00
003C00
007C00
007E00
006600
00E700
00C700
01C380
01C380
038180
0381C0
0301C0
0700E0
0600E0
0E0070
0FFFF0
1FFFF0
1C0038
180038
38001C
38001C
70000E
70000E
E00006
E00007
C00007
000000
000000
001800
001800
001800
001800
ENDCHAR
STARTCHAR 1EB7
ENCODING 7863
SWIDTH 685 0
DWIDTH 24 0
BBX 21 31 1 -6
BITMAP
070700
030600
03FE00
00F800
000000
000000
01FC38
07FF38
0F8FB8
1E01F8
3800F8
700078
700078
600038
600038
E00038
600038
600038
700038
700078
3800F8
1C01F8
0F03B8
07FF38
01FC38
000000
000000
007000
007000
007000
007000
ENDCHAR
STARTCHAR 1EB8
ENCODING 7864
SWIDTH 542 0
DWIDTH 19 0
BBX 14 32 3 -6
BITMAP
FFFC
FFFC
C000
C000
C000
C000
C000
C000
C000
C000
C000
C000
FFF8
FFF8
C000
C000
C000
C000
C000
C000
C000
C000
C000
C000
FFFC
FFFC
0000
0000
0700
0700
0700
0700
ENDCHAR
STARTCHAR 1EB9
ENCODING 7865
SWIDTH 657 0
DWIDTH 23 0
BBX 20 25 1 -6
BITMAP
01FC00
07FF00
0FDF80
1C01C0
3800E0
700060
700070
600030
7FFFF0
FFFFF0
600000
600000
700000
700070
3800E0
1C01C0
0F8F80
07FF00
01FC00
000000
000000
007000
007000
007000
007000
ENDCHAR
STARTCHAR 1EBA
ENCODING 7866
SWIDTH 542 0
DWIDTH 19 0
BBX 14 35 3 0
BITMAP
0700
0FC0
18C0
18C0
01C0
0300
0300
0000
0000
FFFC
FFFC
C000
C000
C000
C000
C000
C000
C000
C000
C000
C000
FFF8
FFF8
C000
C000
C000
C000
C000
C000
C000
C000
C000
C000
FFFC
FFFC
ENDCHAR
STARTCHAR 1EBB
ENCODING 7867
SWIDTH 657 0
DWIDTH 23 0
BBX 20 27 1 0
BITMAP
00F800
01FC00
018C00
018C00
003800
003000
002000
000000
01FC00
07FF00
0FDF80
1C01C0
3800E0
700060
700070
600030
7FFFF0
FFFFF0
600000
600000
700000
700070
3800E0
1C01C0
0F8F80
07FF00
01FC00
ENDCHAR
STARTCHAR 1EBC
ENCODING 7868
SWIDTH 542 0
DWIDTH 19 0
BBX 14 32 3 0
BITMAP
1C20
3F70
33F0
21C0
0000
0000
FFFC
FFFC
C000
C000
C000
C000
C000
C000
C000
C000
C000
C000
FFF8
FFF8
C000
C000
C000
C000
C000
C000
C000
C000
C000
C000
FFFC
FFFC
ENDCHAR
STARTCHAR 1EBD
ENCODING 7869
SWIDTH 657 0
DWIDTH 23 0
BBX 20 24 1 0
BITMAP
03E600
07FE00
023C00
000000
000000
01FC00
07FF00
0FDF80
1C01C0
3800E0
700060
700070
600030
7FFFF0
FFFFF0
600000
600000
700000
700070
3800E0
1C01C0
0F8F80
07FF00
01FC00
ENDCHAR
STARTCHAR 1EBE
ENCODING 7870
SWIDTH 542 0
DWIDTH 19 0
BBX 14 39 3 0
BITMAP
0020
00F0
01E0
07C0
0F00
0400
0000
0780
0FC0
3CE0
7070
0000
0000
FFFC
FFFC
C000
C000
C000
C000
C000
C000
C000
C000
C000
C000
FFF8
FFF8
C000
C000
C000
C000
C000
C000
C000
C000
C000
C000
FFFC
FFFC
ENDCHAR
STARTCHAR 1EBF
ENCODING 7871
SWIDTH 657 0
DWIDTH 23 0
BBX 20 31 1 0
BITMAP
000200
000E00
003E00
007800
00E000
004000
000000
007000
01F800
038E00
070700
000000
01FC00
07FF00
0FDF80
1C01C0
3800E0
700060
700070
600030
7FFFF0
FFFFF0
600000
600000
700000
700070
3800E0
1C01C0
0F8F80
07FF00
01FC00
ENDCHAR
STARTCHAR 1EC0
ENCODING 7872
SWIDTH 542 0
DWIDTH 19 0
BBX 14 39 3 0
BITMAP
2000
3800
3E00
0F00
0380
0180
0000
0780
0FC0
3CE0
7070
0000
0000
FFFC
FFFC
C000
C000
C000
C000
C000
C000
C000
C000
C000
C000
FFF8
FFF8
C000
C000
C000
C000
C000
C000
C000
C000
C000
C000
FFFC
FFFC
ENDCHAR
STARTCHAR 1EC1
ENCODING 7873
SWIDTH 657 0
DWIDTH 23 0
BBX 20 31 1 0
BITMAP
020000
078000
03E000
00F000
007800
001000
000000
007000
01F800
038E00
070700
000000
01FC00
07FF00
0FDF80
1C01C0
3800E0
700060
700070
600030
7FFFF0
FFFFF0
600000
600000
700000
700070
3800E0
1C01C0
0F8F80
07FF00
01FC00
ENDCHAR
STARTCHAR 1EC2
ENCODING 7874
SWIDTH 542 0
DWIDTH 19 0
BBX 14 40 3 0
BITMAP
01F0
03F8
0318
0318
0070
0060
0040
0000
0780
0FC0
3CE0
7070
0000
0000
FFFC
FFFC
C000
C000
C000
C000
C000
C000
C000
C000
C000
C000
FFF8
FFF8
C000
C000
C000
C000
C000
C000
C000
C000
C000
C000
FFFC
FFFC
ENDCHAR
STARTCHAR 1EC3
ENCODING 7875
SWIDTH 657 0
DWIDTH 23 0
BBX 20 33 1 0
BITMAP
000E00
003F00
003380
002380
000700
000600
000C00
000000
007000
00F800
01DC00
038E00
070700
000000
01FC00
07FF00
0FDF80
1C01C0
3800E0
700060
700070
600030
7FFFF0
FFFFF0
600000
600000
700000
700070
3800E0
1C01C0
0F8F80
07FF00
01FC00
ENDCHAR
STARTCHAR 1EC4
ENCODING 7876
SWIDTH 542 0
DWIDTH 19 0
BBX 14 36 3 0
BITMAP
1F20
3FF0
21C0
0000
0780
0FC0
3CE0
7070
0000
0000
FFFC
FFFC
C000
C000
C000
C000
C000
C000
C000
C000
C000
C000
FFF8
FFF8
C000
C000
C000
C000
C000
C000
C000
C000
C000
C000
FFFC
FFFC
ENDCHAR
STARTCHAR 1EC5
ENCODING 7877
SWIDTH 657 0
DWIDTH 23 0
BBX 20 29 1 0
BITMAP
03E600
07FE00
021C00
000000
007000
00F800
01DC00
038E00
070700
000000
01FC00
07FF00
0FDF80
1C01C0
3800E0
700060
700070
600030
7FFFF0
FFFFF0
600000
600000
700000
700070
3800E0
1C01C0
0F8F80
07FF00
01FC00
ENDCHAR
STARTCHAR 1EC6
ENCODING 7878
SWIDTH 542 0
DWIDTH 19 0
BBX 14 38 3 -6
BITMAP
0780
0FC0
3CE0
7070
0000
0000
FFFC
FFFC
C000
C000
C000
C000
C000
C000
C000
C000
C000
C000
FFF8
FFF8
C000
C000
C000
C000
C000
C000
C000
C000
C000
C000
FFFC
FFFC
0000
0000
0700
0700
0700
0700
ENDCHAR
STARTCHAR 1EC7
ENCODING 7879
SWIDTH 657 0
DWIDTH 23 0
BBX 20 31 1 -6
BITMAP
007000
01F800
038E00
070700
000000
000000
01FC00
07FF00
0FDF80
1C01C0
3800E0
700060
700070
600030
7FFFF0
FFFFF0
600000
600000
700000
700070
3800E0
1C01C0
0F8F80
07FF00
01FC00
000000
000000
007000
007000
007000
007000
ENDCHAR
STARTCHAR 1EC8
ENCODING 7880
SWIDTH 228 0
DWIDTH 8 0
BBX 7 35 0 0
BITMAP
1C
7E
66
C6
0E
1C
18
00
00
18
18
18
18
18
18
18
18
18
18
18
18
18
18
18
18
18
18
18
18
18
18
18
18
18
18
ENDCHAR
STARTCHAR 1EC9
ENCODING 7881
SWIDTH 200 0
DWIDTH 7 0
BBX 7 28 0 0
BITMAP
38
7E
C6
C6
0C
18
18
00
00
38
38
38
38
38
38
38
38
38
38
38
38
38
38
38
38
38
38
38
ENDCHAR
STARTCHAR 1ECA
ENCODING 7882
SWIDTH 228 0
DWIDTH 8 0
BBX 2 32 3 -6
BITMAP
C0
C0
C0
C0
C0
C0
C0
C0
C0
C0
C0
C0
C0
C0
C0
C0
C0
C0
C0
C0
C0
C0
C0
C0
C0
C0
00
00
C0
C0
C0
C0
ENDCHAR
STARTCHAR 1ECB
ENCODING 7883
SWIDTH 200 0
DWIDTH 7 0
BBX 3 31 2 -6
BITMAP
E0
E0
E0
E0
00
00
E0
E0
E0
E0
E0
E0
E0
E0
E0
E0
E0
E0
E0
E0
E0
E0
E0
E0
E0
00
00
E0
E0
E0
E0
ENDCHAR
STARTCHAR 1ECC
ENCODING 7884
SWIDTH 857 0
DWIDTH 30 0
BBX 27 32 2 -6
BITMAP
003F8000
01FFF000
07F3F800
0F003E00
1E000F00
38000700
78000380
700001C0
E00001C0
E00000C0
E00000E0
C00000E0
C00000E0
C00000E0
C00000E0
E00000E0
E00000C0
E00001C0
700001C0
78000380
38000700
1E000E00
0F003C00
07F1F800
01FFF000
007F8000
00000000
00000000
000E0000
000E0000
000E0000
000E0000
ENDCHAR
STARTCHAR 1ECD
ENCODING 7885
SWIDTH 657 0
DWIDTH 23 0
BBX 20 25 1 -6
BITMAP
01FC00
07FF00
0F8F80
1C03C0
3800E0
700070
700070
600030
600030
E00030
600030
600030
700070
700070
3800E0
1C01C0
0F8F80
07FF00
01FC00
000000
000000
007000
007000
007000
007000
ENDCHAR
STARTCHAR 1ECE
ENCODING 7886
SWIDTH 857 0
DWIDTH 30 0
BBX 27 34 2 0
BITMAP
001E0000
003F0000
00318000
00338000
00070000
00060000
000C0000
00000000
003F8000
01FFF000
07F3F800
0F003E00
1E000F00
38000700
78000380
700001C0
E00001C0
E00000C0
E00000E0
C00000E0
C00000E0
C00000E0
C00000E0
E00000E0
E00000C0
E00001C0
700001C0
78000380
38000700
1E000E00
0F003C00
07F1F800
01FFF000
007F8000
ENDCHAR
STARTCHAR 1ECF
ENCODING 7887
SWIDTH 657 0
DWIDTH 23 0
BBX 20 27 1 0
BITMAP
007800
00FC00
018C00
018C00
001800
003000
003000
000000
01FC00
07FF00
0F8F80
1C03C0
3800E0
700070
700070
600030
600030
E00030
600030
600030
700070
700070
3800E0
1C01C0
0F8F80
07FF00
01FC00
ENDCHAR
STARTCHAR 1ED0
ENCODING 7888
SWIDTH 857 0
DWIDTH 30 0
BBX 27 38 2 0
BITMAP
0000C000
0001C000
0007C000
001F0000
001C0000
00180000
00000000
001E0000
003F0000
0073C000
00E0E000
00000000
003F8000
01FFF000
07F3F800
0F003E00
1E000F00
38000700
78000380
700001C0
E00001C0
E00000C0
E00000E0
C00000E0
C00000E0
C00000E0
C00000E0
E00000E0
E00000C0
E00001C0
700001C0
78000380
38000700
1E000E00
0F003C00
07F1F800
01FFF000
007F8000
ENDCHAR
STARTCHAR 1ED1
ENCODING 7889
SWIDTH 657 0
DWIDTH 23 0
BBX 20 31 1 0
BITMAP
000200
000E00
003E00
007800
00F000
004000
000000
007000
01FC00
038E00
070700
000000
01FC00
07FF00
0F8F80
1C03C0
3800E0
700070
700070
600030
600030
E00030
600030
600030
700070
700070
3800E0
1C01C0
0F8F80
07FF00
01FC00
ENDCHAR
STARTCHAR 1ED2
ENCODING 7890
SWIDTH 857 0
DWIDTH 30 0
BBX 27 38 2 0
BITMAP
00400000
00F00000
00780000
003E0000
000F0000
00020000
00000000
001E0000
003F0000
0073C000
00E0E000
00000000
003F8000
01FFF000
07F3F800
0F003E00
1E000F00
38000700
78000380
700001C0
E00001C0
E00000C0
E00000E0
C00000E0
C00000E0
C00000E0
C00000E0
E00000E0
E00000C0
E00001C0
700001C0
78000380
38000700
1E000E00
0F003C00
07F1F800
01FFF000
007F8000
ENDCHAR
STARTCHAR 1ED3
ENCODING 7891
SWIDTH 657 0
DWIDTH 23 0
BBX 20 31 1 0
BITMAP
020000
038000
03E000
00F000
007800
001000
000000
007000
01FC00
038E00
070700
000000
01FC00
07FF00
0F8F80
1C03C0
3800E0
700070
700070
600030
600030
E00030
600030
600030
700070
700070
3800E0
1C01C0
0F8F80
07FF00
01FC00
ENDCHAR
STARTCHAR 1ED4
ENCODING 7892
SWIDTH 857 0
DWIDTH 30 0
BBX 27 40 2 0
BITMAP
00038000
0007E000
00066000
000C6000
0000E000
0001C000
00018000
00000000
000E0000
001F0000
003B8000
0071C000
00E0E000
00000000
003F8000
01FFF000
07F3F800
0F003E00
1E000F00
38000700
78000380
700001C0
E00001C0
E00000C0
E00000E0
C00000E0
C00000E0
C00000E0
C00000E0
E00000E0
E00000C0
E00001C0
700001C0
78000380
38000700
1E000E00
0F003C00
07F1F800
01FFF000
007F8000
ENDCHAR
STARTCHAR 1ED5
ENCODING 7893
SWIDTH 657 0
DWIDTH 23 0
BBX 20 33 1 0
BITMAP
000E00
003F00
003180
003180
000700
000600
000C00
000000
007000
00F800
01DC00
038E00
070700
000000
01FC00
07FF00
0F8F80
1C03C0
3800E0
700070
700070
600030
600030
E00030
600030
600030
700070
700070
3800E0
1C01C0
0F8F80
07FF00
01FC00
ENDCHAR
STARTCHAR 1ED6
ENCODING 7894
SWIDTH 857 0
DWIDTH 30 0
BBX 27 36 2 0
BITMAP
007CC000
00FFC000
00478000
00000000
000E0000
001F0000
003B8000
0071C000
00E0E000
00000000
003F8000
01FFF000
07F3F800
0F003E00
1E000F00
38000700
78000380
700001C0
E00001C0
E00000C0
E00000E0
C00000E0
C00000E0
C00000E0
C00000E0
E00000E0
E00000C0
E00001C0
700001C0
78000380
38000700
1E000E00
0F003C00
07F1F800
01FFF000
007F8000
ENDCHAR
STARTCHAR 1ED7
ENCODING 7895
SWIDTH 657 0
DWIDTH 23 0
BBX 20 29 1 0
BITMAP
03F600
03FE00
021C00
000000
007000
00F800
01DC00
038E00
070700
000000
01FC00
07FF00
0F8F80
1C03C0
3800E0
700070
700070
600030
600030
E00030
600030
600030
700070
700070
3800E0
1C01C0
0F8F80
07FF00
01FC00
ENDCHAR
STARTCHAR 1ED8
ENCODING 7896
SWIDTH 857 0
DWIDTH 30 0
BBX 27 38 2 -6
BITMAP
000E0000
001F0000
003B8000
0071C000
00E0E000
00000000
003F8000
01FFF000
07F3F800
0F003E00
1E000F00
38000700
78000380
700001C0
E00001C0
E00000C0
E00000E0
C00000E0
C00000E0
C00000E0
C00000E0
E00000E0
E00000C0
E00001C0
700001C0
78000380
38000700
1E000E00
0F003C00
07F1F800
01FFF000
007F8000
00000000
00000000
000E0000
000E0000
000E0000
000E0000
ENDCHAR
STARTCHAR 1ED9
ENCODING 7897
SWIDTH 657 0
DWIDTH 23 0
BBX 20 31 1 -6
BITMAP
007000
01FC00
038E00
070700
000000
000000
01FC00
07FF00
0F8F80
1C03C0
3800E0
700070
700070
600030
600030
E00030
600030
600030
700070
700070
3800E0
1C01C0
0F8F80
07FF00
01FC00
000000
000000
007000
007000
007000
007000
ENDCHAR
STARTCHAR 1EDA
ENCODING 7898
SWIDTH 857 0
DWIDTH 30 0
BBX 27 33 2 0
BITMAP
0000C000
0001C000
0007C000
001F0000
001C0000
00180000
00000000
003F8060
01FFF0E0
07F3F8E0
0F003DC0
1E000FC0
38000780
78000380
700001C0
E00001C0
E00000C0
E00000E0
C00000E0
C00000E0
C00000E0
C00000E0
E00000E0
E00000C0
E00001C0
700001C0
78000380
38000700
1E000E00
0F003C00
07F1F800
01FFF000
007F8000
ENDCHAR
STARTCHAR 1EDB
ENCODING 7899
SWIDTH 685 0
DWIDTH 24 0
BBX 22 26 1 0
BITMAP
000200
000E00
003E00
007800
00F000
004000
000000
01FC0C
07FF0C
0F879C
1C01D8
3800F8
700070
700070
600030
600030
E00030
600030
600030
700070
700070
3800E0
1C01E0
0F8FC0
07FF80
01FE00
ENDCHAR
STARTCHAR 1EDC
ENCODING 7900
SWIDTH 857 0
DWIDTH 30 0
BBX 27 33 2 0
BITMAP
00400000
00F00000
00780000
003E0000
000F0000
00020000
00000000
003F8060
01FFF0E0
07F3F8E0
0F003DC0
1E000FC0
38000780
78000380
700001C0
E00001C0
E00000C0
E00000E0
C00000E0
C00000E0
C00000E0
C00000E0
E00000E0
E00000C0
E00001C0
700001C0
78000380
38000700
1E000E00
0F003C00
07F1F800
01FFF000
007F8000
ENDCHAR
STARTCHAR 1EDD
ENCODING 7901
SWIDTH 685 0
DWIDTH 24 0
BBX 22 26 1 0
BITMAP
020000
038000
03E000
00F000
007800
001000
000000
01FC0C
07FF0C
0F879C
1C01D8
3800F8
700070
700070
600030
600030
E00030
600030
600030
700070
700070
3800E0
1C01E0
0F8FC0
07FF80
01FE00
ENDCHAR
STARTCHAR 1EDE
ENCODING 7902
SWIDTH 857 0
DWIDTH 30 0
BBX 27 34 2 0
BITMAP
001E0000
003F0000
00318000
00338000
00070000
00060000
000C0000
00000000
003F8060
01FFF0E0
07F3F8E0
0F003DC0
1E000FC0
38000780
78000380
700001C0
E00001C0
E00000C0
E00000E0
C00000E0
C00000E0
C00000E0
C00000E0
E00000E0
E00000C0
E00001C0
700001C0
78000380
38000700
1E000E00
0F003C00
07F1F800
01FFF000
007F8000
ENDCHAR
STARTCHAR 1EDF
ENCODING 7903
SWIDTH 685 0
DWIDTH 24 0
BBX 22 27 1 0
BITMAP
007800
00FC00
018C00
018C00
001800
003000
003000
000000
01FC0C
07FF0C
0F879C
1C01D8
3800F8
700070
700070
600030
600030
E00030
600030
600030
700070
700070
3800E0
1C01E0
0F8FC0
07FF80
01FE00
ENDCHAR
STARTCHAR 1EE0
ENCODING 7904
SWIDTH 857 0
DWIDTH 30 0
BBX 27 31 2 0
BITMAP
007CC000
00FFC000
00478000
00000000
00000000
003F8060
01FFF0E0
07F3F8E0
0F003DC0
1E000FC0
38000780
78000380
700001C0
E00001C0
E00000C0
E00000E0
C00000E0
C00000E0
C00000E0
C00000E0
E00000E0
E00000C0
E00001C0
700001C0
78000380
38000700
1E000E00
0F003C00
07F1F800
01FFF000
007F8000
ENDCHAR
STARTCHAR 1EE1
ENCODING 7905
SWIDTH 685 0
DWIDTH 24 0
BBX 22 24 1 0
BITMAP
01E600
07FE00
023C00
000000
000000
01FC0C
07FF0C
0F879C
1C01D8
3800F8
700070
700070
600030
600030
E00030
600030
600030
700070
700070
3800E0
1C01E0
0F8FC0
07FF80
01FE00
ENDCHAR
STARTCHAR 1EE2
ENCODING 7906
SWIDTH 857 0
DWIDTH 30 0
BBX 27 32 2 -6
BITMAP
003F8060
01FFF0E0
07F3F8E0
0F003DC0
1E000FC0
38000780
78000380
700001C0
E00001C0
E00000C0
E00000E0
C00000E0
C00000E0
C00000E0
C00000E0
E00000E0
E00000C0
E00001C0
700001C0
78000380
38000700
1E000E00
0F003C00
07F1F800
01FFF000
007F8000
00000000
00000000
000E0000
000E0000
000E0000
000E0000
ENDCHAR
STARTCHAR 1EE3
ENCODING 7907
SWIDTH 685 0
DWIDTH 24 0
BBX 22 25 1 -6
BITMAP
01FC0C
07FF0C
0F879C
1C01D8
3800F8
700070
700070
600030
600030
E00030
600030
600030
700070
700070
3800E0
1C01E0
0F8FC0
07FF80
01FE00
000000
000000
007000
007000
007000
007000
ENDCHAR
STARTCHAR 1EE4
ENCODING 7908
SWIDTH 657 0
DWIDTH 23 0
BBX 17 32 3 -6
BITMAP
C00180
C00180
C00180
C00180
C00180
C00180
C00180
C00180
C00180
C00180
C00180
C00180
C00180
C00180
C00180
C00180
C00180
C00180
E00380
E00380
E00380
700700
780F00
3F7E00
1FFC00
07F000
000000
000000
01C000
01C000
01C000
01C000
ENDCHAR
STARTCHAR 1EE5
ENCODING 7909
SWIDTH 600 0
DWIDTH 21 0
BBX 17 25 2 -6
BITMAP
E00380
E00380
E00380
E00380
E00380
E00380
E00380
E00380
E00380
E00380
E00380
E00380
E00380
600380
700780
700780
3C1F80
1FFB80
07E380
000000
000000
01C000
01C000
01C000
01C000
ENDCHAR
STARTCHAR 1EE6
ENCODING 7910
SWIDTH 657 0
DWIDTH 23 0
BBX 17 35 3 0
BITMAP
01C000
03F000
063000
063000
006000
00C000
00C000
000000
000000
C00180
C00180
C00180
C00180
C00180
C00180
C00180
C00180
C00180
C00180
C00180
C00180
C00180
C00180
C00180
C00180
C00180
C00180
E00380
E00380
E00380
700700
780F00
3F7E00
1FFC00
07F000
ENDCHAR
STARTCHAR 1EE7
ENCODING 7911
SWIDTH 600 0
DWIDTH 21 0
BBX 17 28 2 0
BITMAP
01C000
03F000
063000
063000
007000
00C000
00C000
000000
000000
E00380
E00380
E00380
E00380
E00380
E00380
E00380
E00380
E00380
E00380
E00380
E00380
E00380
600380
700780
700780
3C1F80
1FFB80
07E380
ENDCHAR
STARTCHAR 1EE8
ENCODING 7912
SWIDTH 714 0
DWIDTH 25 0
BBX 21 33 3 0
BITMAP
000800
003800
00F800
01E000
03C000
010000
000000
C00198
C00198
C001B8
C001F0
C001F0
C001E0
C00180
C00180
C00180
C00180
C00180
C00180
C00180
C00180
C00180
C00180
C00180
C00180
C00180
E00380
E00380
700700
780F00
3E3E00
1FFC00
07E000
ENDCHAR
STARTCHAR 1EE9
ENCODING 7913
SWIDTH 685 0
DWIDTH 24 0
BBX 21 27 2 0
BITMAP
000800
003C00
007800
01E000
03C000
010000
000000
000000
E00398
E00398
E003B8
E003F0
E003E0
E003C0
E00380
E00380
E00380
E00380
E00380
E00380
E00380
600380
700780
780F80
3E3F80
1FFB80
07E380
ENDCHAR
STARTCHAR 1EEA
ENCODING 7914
SWIDTH 714 0
DWIDTH 25 0
BBX 21 33 3 0
BITMAP
080000
1E0000
0F8000
03C000
01E000
004000
000000
C00198
C00198
C001B8
C001F0
C001F0
C001E0
C00180
C00180
C00180
C00180
C00180
C00180
C00180
C00180
C00180
C00180
C00180
C00180
C00180
E00380
E00380
700700
780F00
3E3E00
1FFC00
07E000
ENDCHAR
STARTCHAR 1EEB
ENCODING 7915
SWIDTH 685 0
DWIDTH 24 0
BBX 21 27 2 0
BITMAP
080000
0E0000
0F8000
03C000
00E000
004000
000000
000000
E00398
E00398
E003B8
E003F0
E003E0
E003C0
E00380
E00380
E00380
E00380
E00380
E00380
E00380
600380
700780
780F80
3E3F80
1FFB80
07E380
ENDCHAR
STARTCHAR 1EEC
ENCODING 7916
SWIDTH 714 0
DWIDTH 25 0
BBX 21 35 3 0
BITMAP
01C000
03F000
063000
063000
006000
00C000
00C000
000000
000000
C00198
C00198
C001B8
C001F0
C001F0
C001E0
C00180
C00180
C00180
C00180
C00180
C00180
C00180
C00180
C00180
C00180
C00180
C00180
C00180
E00380
E00380
700700
780F00
3E3E00
1FFC00
07E000
ENDCHAR
STARTCHAR 1EED
ENCODING 7917
SWIDTH 685 0
DWIDTH 24 0
BBX 21 28 2 0
BITMAP
01C000
03F000
063000
063000
007000
00C000
00C000
000000
000000
E00398
E00398
E003B8
E003F0
E003E0
E003C0
E00380
E00380
E00380
E00380
E00380
E00380
E00380
600380
700780
780F80
3E3F80
1FFB80
07E380
ENDCHAR
STARTCHAR 1EEE
ENCODING 7918
SWIDTH 714 0
DWIDTH 25 0
BBX 21 32 3 0
BITMAP
070800
0FD800
0CF800
087000
000000
000000
C00198
C00198
C001B8
C001F0
C001F0
C001E0
C00180
C00180
C00180
C00180
C00180
C00180
C00180
C00180
C00180
C00180
C00180
C00180
C00180
E00380
E00380
700700
780F00
3E3E00
1FFC00
07E000
ENDCHAR
STARTCHAR 1EEF
ENCODING 7919
SWIDTH 685 0
DWIDTH 24 0
BBX 21 25 2 0
BITMAP
078800
0FFC00
0CF800
000000
000000
000000
E00398
E00398
E003B8
E003F0
E003E0
E003C0
E00380
E00380
E00380
E00380
E00380
E00380
E00380
600380
700780
780F80
3E3F80
1FFB80
07E380
ENDCHAR
STARTCHAR 1EF0
ENCODING 7920
SWIDTH 714 0
DWIDTH 25 0
BBX 21 32 3 -6
BITMAP
C00198
C00198
C001B8
C001F0
C001F0
C001E0
C00180
C00180
C00180
C00180
C00180
C00180
C00180
C00180
C00180
C00180
C00180
C00180
C00180
E00380
E00380
700700
780F00
3E3E00
1FFC00
07E000
000000
000000
01C000
01C000
01C000
01C000
ENDCHAR
STARTCHAR 1EF1
ENCODING 7921
SWIDTH 685 0
DWIDTH 24 0
BBX 21 25 2 -6
BITMAP
E00398
E00398
E003B8
E003F0
E003E0
E003C0
E00380
E00380
E00380
E00380
E00380
E00380
E00380
600380
700780
780F80
3E3F80
1FFB80
07E380
000000
000000
01C000
01C000
01C000
01C000
ENDCHAR
STARTCHAR 1EF2
ENCODING 7922
SWIDTH 600 0
DWIDTH 21 0
BBX 20 33 0 0
BITMAP
020000
078000
03C000
00F000
007800
001000
000000
E00030
700070
700060
3800E0
3801C0
1C01C0
1C0380
0E0380
0E0700
070700
070E00
038E00
019C00
01DC00
00F800
00F800
007000
007000
007000
007000
007000
007000
007000
007000
007000
007000
ENDCHAR
STARTCHAR 1EF3
ENCODING 7923
SWIDTH 542 0
DWIDTH 19 0
BBX 17 34 1 -7
BITMAP
080000
1E0000
0F0000
03C000
01E000
004000
000000
000000
C00380
E00380
E00300
700700
700700
700E00
380E00
380C00
1C1C00
1C1800
1C3800
0E3800
0E7000
067000
076000
07E000
03C000
03C000
01C000
038000
038000
030000
070000
060000
0E0000
0E0000
ENDCHAR
STARTCHAR 1EF4
ENCODING 7924
SWIDTH 600 0
DWIDTH 21 0
BBX 20 32 0 -6
BITMAP
E00030
700070
700060
3800E0
3801C0
1C01C0
1C0380
0E0380
0E0700
070700
070E00
038E00
019C00
01DC00
00F800
00F800
007000
007000
007000
007000
007000
007000
007000
007000
007000
007000
000000
000000
007000
007000
007000
007000
ENDCHAR
STARTCHAR 1EF5
ENCODING 7925
SWIDTH 542 0
DWIDTH 19 0
BBX 17 26 1 -7
BITMAP
C00380
E00380
E00300
700700
700700
700E00
380E00
380C00
1C1C00
1C1800
1C3800
0E3800
0E7000
067000
076000
07E000
03C000
03C000
01C000
038000
038000
030C00
070C00
060C00
0E0C00
0E0C00
ENDCHAR
STARTCHAR 1EF6
ENCODING 7926
SWIDTH 600 0
DWIDTH 21 0
BBX 20 35 0 0
BITMAP
007000
01F800
018C00
018C00
003800
003000
002000
000000
000000
E00030
700070
700060
3800E0
3801C0
1C01C0
1C0380
0E0380
0E0700
070700
070E00
038E00
019C00
01DC00
00F800
00F800
007000
007000
007000
007000
007000
007000
007000
007000
007000
007000
ENDCHAR
STARTCHAR 1EF7
ENCODING 7927
SWIDTH 542 0
DWIDTH 19 0
BBX 17 35 1 -7
BITMAP
01C000
03E000
063000
063000
006000
00C000
008000
000000
000000
C00380
E00380
E00300
700700
700700
700E00
380E00
380C00
1C1C00
1C1800
1C3800
0E3800
0E7000
067000
076000
07E000
03C000
03C000
01C000
038000
038000
030000
070000
060000
0E0000
0E0000
ENDCHAR
STARTCHAR 1EF8
ENCODING 7928
SWIDTH 600 0
DWIDTH 21 0
BBX 20 32 0 0
BITMAP
01C200
07F600
033E00
021C00
000000
000000
E00030
700070
700060
3800E0
3801C0
1C01C0
1C0380
0E0380
0E0700
070700
070E00
038E00
019C00
01DC00
00F800
00F800
007000
007000
007000
007000
007000
007000
007000
007000
007000
007000
ENDCHAR
STARTCHAR 1EF9
ENCODING 7929
SWIDTH 542 0
DWIDTH 19 0
BBX 17 32 1 -7
BITMAP
070800
1FF800
0CF000
000000
000000
000000
C00380
E00380
E00300
700700
700700
700E00
380E00
380C00
1C1C00
1C1800
1C3800
0E3800
0E7000
067000
076000
07E000
03C000
03C000
01C000
038000
038000
030000
070000
060000
0E0000
0E0000
ENDCHAR
STARTCHAR 2013
ENCODING 8211
SWIDTH 514 0
DWIDTH 18 0
BBX 18 2 0 8
BITMAP
FFFFC0
FFFFC0
ENDCHAR
STARTCHAR 2014
ENCODING 8212
SWIDTH 1000 0
DWIDTH 35 0
BBX 35 2 0 8
BITMAP
FFFFFFFFE0
FFFFFFFFE0
ENDCHAR
STARTCHAR 2016
ENCODING 8214
SWIDTH 600 0
DWIDTH 21 0
BBX 7 30 7 -4
BITMAP
C6
C6
C6
C6
C6
C6
C6
C6
C6
C6
C6
C6
C6
C6
C6
C6
C6
C6
C6
C6
C6
C6
C6
C6
C6
C6
C6
C6
C6
C6
ENDCHAR
STARTCHAR 2018
ENCODING 8216
SWIDTH 342 0
DWIDTH 12 0
BBX 5 7 4 19
BITMAP
C0
E0
60
70
70
30
38
ENDCHAR
STARTCHAR 2019
ENCODING 8217
SWIDTH 342 0
DWIDTH 12 0
BBX 6 7 3 19
BITMAP
1C
18
38
30
70
60
E0
ENDCHAR
STARTCHAR 201A
ENCODING 8218
SWIDTH 342 0
DWIDTH 12 0
BBX 6 6 3 -2
BITMAP
1C
38
30
70
60
E0
ENDCHAR
STARTCHAR 201C
ENCODING 8220
SWIDTH 514 0
DWIDTH 18 0
BBX 10 7 4 19
BITMAP
C600
E700
E300
6380
7380
31C0
39C0
ENDCHAR
STARTCHAR 201D
ENCODING 8221
SWIDTH 485 0
DWIDTH 17 0
BBX 11 7 3 19
BITMAP
18E0
39C0
39C0
3180
7380
6300
E700
ENDCHAR
STARTCHAR 201E
ENCODING 8222
SWIDTH 514 0
DWIDTH 18 0
BBX 11 6 3 -2
BITMAP
1CE0
38C0
31C0
7180
6380
E700
ENDCHAR
STARTCHAR 2020
ENCODING 8224
SWIDTH 542 0
DWIDTH 19 0
BBX 15 31 2 -5
BITMAP
0380
0380
0380
0380
0380
0380
0380
FFFE
FFFE
0380
0380
0380
0380
0380
0380
0380
0380
0380
0380
0380
0380
0380
0380
0380
0380
0380
0380
0380
0380
0380
0380
ENDCHAR
STARTCHAR 2021
ENCODING 8225
SWIDTH 542 0
DWIDTH 19 0
BBX 15 31 2 -5
BITMAP
0380
0380
0380
0380
0380
0380
0380
FFFE
FFFE
0380
0380
0380
0380
FFFE
FFFE
0380
0380
0380
0380
0380
0380
0380
0380
0380
0380
0380
0380
0380
0380
0380
0380
ENDCHAR
STARTCHAR 2022
ENCODING 8226
SWIDTH 600 0
DWIDTH 21 0
BBX 13 13 4 4
BITMAP
0F80
1FE0
3FF0
7FF0
FFF8
FFF8
FFF8
FFF8
FFF8
7FF0
3FF0
1FE0
0F80
ENDCHAR
STARTCHAR 2026
ENCODING 8230
SWIDTH 1000 0
DWIDTH 35 0
BBX 25 4 5 0
BITMAP
C01C0180
C01C0180
C01C0180
C01C0180
ENDCHAR
STARTCHAR 2030
ENCODING 8240
SWIDTH 1171 0
DWIDTH 41 0
BBX 40 26 0 0
BITMAP
0F80380000
1FE0700000
3DF0700000
7070600000
6038E00000
E038C00000
E039C00000
6039800000
7073800000
3CF3000000
1FE7000000
0F86000000
000E000000
000C000000
001C3E00F8
001CFF03FC
0019E7879E
003981C607
003380CE03
007300CC03
006300CC03
00E380CE03
00C181C607
01C1E7879E
0180FF03FC
03803E00F8
ENDCHAR
STARTCHAR 2031
ENCODING 8241
SWIDTH 1571 0
DWIDTH 55 0
BBX 54 26 0 0
BITMAP
0F803800000000
1FE07000000000
3DF07000000000
70706000000000
6038E000000000
E038C000000000
E039C000000000
60398000000000
70738000000000
3CF30000000000
1FE70000000000
0F860000000000
000E0000000000
000C0000000000
001C3E00F803E0
001CFF03FC0FF0
0019E7879E1E78
003981C607181C
003380CE03380C
007300CC03300C
006300CC03300C
00E380CE03380C
00C181C607181C
01C1E7879E1E78
0180FF03FC0FF0
03803E00F803E0
ENDCHAR
STARTCHAR 2039
ENCODING 8249
SWIDTH 257 0
DWIDTH 9 0
BBX 5 14 2 3
BITMAP
10
38
38
70
70
E0
C0
C0
E0
70
70
38
38
10
ENDCHAR
STARTCHAR 203A
ENCODING 8250
SWIDTH 257 0
DWIDTH 9 0
BBX 5 14 2 3
BITMAP
40
C0
E0
60
70
38
38
38
38
70
60
E0
C0
40
ENDCHAR
STARTCHAR 203B
ENCODING 8251
SWIDTH 600 0
DWIDTH 21 0
BBX 19 19 1 -1
BITMAP
00E000
01F000
08F200
1CE700
1E0F00
0F1E00
07BC00
73F8C0
F1F1E0
F0F1E0
F1F9E0
03BC00
071E00
0E0F00
1C0700
08E200
01F000
00F000
00E000
ENDCHAR
STARTCHAR 203D
ENCODING 8253
SWIDTH 600 0
DWIDTH 21 0
BBX 16 29 2 0
BITMAP
01C0
01C0
01C0
03F0
0FF8
3FFE
39CE
71C7
61C7
61C3
E1C3
01C3
01C7
01C7
01CE
01DC
01F8
01F0
01E0
01C0
01C0
01C0
0000
0000
0000
01C0
01C0
01C0
01C0
ENDCHAR
STARTCHAR 2044
ENCODING 8260
SWIDTH 171 0
DWIDTH 6 0
BBX 14 26 -4 0
BITMAP
000C
0018
0018
0030
0030
0060
0060
00C0
00C0
0080
0180
0180
0300
0300
0600
0600
0C00
0C00
1800
1800
3000
3000
2000
6000
6000
C000
ENDCHAR
ENDFONT
